<svg width="500" height="500" viewBox="0 0 500 500" fill="none" xmlns="http://www.w3.org/2000/svg">
<path opacity="0.7" d="M67.93 167.09C67.93 167.09 40.05 239.09 79.23 311.59C118.41 384.09 199.11 422.39 263.7 455.14C328.29 487.89 395.36 471.94 427.23 418.3C459.1 364.66 415.39 326.37 415.33 249.88C415.27 173.39 426.78 153.14 385.33 88.52C343.88 23.9 242.27 9.59001 165.43 57.52C88.59 105.45 67.93 167.09 67.93 167.09Z" fill="white"/>
<path d="M228.25 51.32C352.25 40.32 352.5 110.25 408.38 175.45C464.26 240.65 476.23 270.2 455.16 345.36C434.09 420.52 363.1 479.43 275.27 446.05C187.44 412.67 137.13 444.72 81.73 415.05C26.33 385.38 5.73005 328.13 46.32 260.64C86.91 193.15 75.31 64.94 228.25 51.32Z" fill="#92E3A9"/>
<path opacity="0.7" d="M228.25 51.32C352.25 40.32 352.5 110.25 408.38 175.45C464.26 240.65 476.23 270.2 455.16 345.36C434.09 420.52 363.1 479.43 275.27 446.05C187.44 412.67 137.13 444.72 81.73 415.05C26.33 385.38 5.73005 328.13 46.32 260.64C86.91 193.15 75.31 64.94 228.25 51.32Z" fill="white"/>
<path d="M256.407 55.9179L236.005 60.2137C233.254 60.7929 231.494 63.4924 232.073 66.2432L236.369 86.6459C236.948 89.3967 239.647 91.1572 242.398 90.578L262.801 86.2822C265.552 85.703 267.312 83.0035 266.733 80.2527L262.437 59.85C261.858 57.0992 259.158 55.3388 256.407 55.9179Z" stroke="#263238" stroke-linecap="round" stroke-linejoin="round"/>
<path d="M248.11 67.05L250.71 79.43" stroke="#263238" stroke-linecap="round" stroke-linejoin="round"/>
<path d="M255.6 71.93L243.22 74.54" stroke="#263238" stroke-linecap="round" stroke-linejoin="round"/>
<path d="M462.077 274.061L441.674 278.357C438.923 278.936 437.163 281.635 437.742 284.386L442.038 304.789C442.617 307.54 445.317 309.3 448.067 308.721L468.47 304.425C471.221 303.846 472.981 301.147 472.402 298.396L468.106 277.993C467.527 275.242 464.828 273.482 462.077 274.061Z" stroke="#263238" stroke-linecap="round" stroke-linejoin="round"/>
<path d="M458.54 286.07L451.63 296.67" stroke="#263238" stroke-linecap="round" stroke-linejoin="round"/>
<path d="M460.38 294.83L449.78 287.91" stroke="#263238" stroke-linecap="round" stroke-linejoin="round"/>
<path d="M186.612 406.873L165.762 405.622C162.951 405.453 160.535 407.595 160.367 410.406L159.116 431.256C158.947 434.068 161.089 436.483 163.9 436.652L184.75 437.903C187.561 438.071 189.977 435.929 190.146 433.118L191.397 412.268C191.565 409.457 189.423 407.041 186.612 406.873Z" stroke="#263238" stroke-width="1.0018" stroke-linecap="round" stroke-linejoin="round"/>
<path d="M182.28 421.01L169.64 420.28" stroke="#263238" stroke-linecap="round" stroke-linejoin="round"/>
<path d="M62.2066 261.742L42.4145 255.185C39.746 254.301 36.8661 255.747 35.982 258.416L29.4249 278.208C28.5408 280.876 29.9874 283.756 32.6559 284.64L52.448 291.198C55.1165 292.082 57.9964 290.635 58.8805 287.967L65.4376 268.174C66.3217 265.506 64.8751 262.626 62.2066 261.742Z" stroke="#263238" stroke-linecap="round" stroke-linejoin="round"/>
<path d="M55.35 269.22L39.52 277.17" stroke="#263238" stroke-linecap="round" stroke-linejoin="round"/>
<path d="M46.2699 266C46.4598 266.391 46.53 266.83 46.4718 267.261C46.4135 267.692 46.2295 268.096 45.9426 268.423C45.6557 268.75 45.2788 268.984 44.859 269.098C44.4393 269.212 43.9953 269.199 43.5828 269.061C43.1702 268.924 42.8074 268.668 42.5398 268.325C42.2722 267.982 42.1116 267.568 42.0782 267.135C42.0448 266.701 42.14 266.267 42.352 265.887C42.564 265.508 42.8833 265.199 43.2699 265C43.5316 264.864 43.818 264.781 44.1121 264.758C44.4062 264.735 44.702 264.771 44.9819 264.864C45.2618 264.957 45.5201 265.106 45.7413 265.301C45.9626 265.496 46.1424 265.734 46.2699 266Z" stroke="#263238" stroke-linecap="round" stroke-linejoin="round"/>
<path d="M52.55 278.46C52.7398 278.851 52.81 279.29 52.7518 279.721C52.6936 280.152 52.5095 280.556 52.2226 280.883C51.9357 281.209 51.5588 281.444 51.1391 281.558C50.7193 281.672 50.2754 281.659 49.8628 281.521C49.4503 281.384 49.0875 281.128 48.8198 280.785C48.5522 280.442 48.3916 280.028 48.3582 279.595C48.3248 279.161 48.4201 278.727 48.6321 278.347C48.844 277.968 49.1633 277.659 49.55 277.46C49.8116 277.324 50.098 277.241 50.3921 277.218C50.6862 277.195 50.982 277.231 51.2619 277.324C51.5418 277.417 51.8001 277.566 52.0214 277.761C52.2426 277.956 52.4224 278.194 52.55 278.46Z" stroke="#263238" stroke-linecap="round" stroke-linejoin="round"/>
<path d="M257.7 400.79C255.63 403.788 252.718 406.104 249.332 407.447C245.946 408.789 242.238 409.098 238.676 408.333C235.115 407.569 231.86 405.765 229.323 403.151C226.786 400.537 225.082 397.229 224.425 393.646C223.768 390.063 224.188 386.366 225.632 383.022C227.076 379.677 229.479 376.836 232.537 374.858C235.596 372.879 239.172 371.852 242.815 371.906C246.457 371.959 250.001 373.092 253 375.16C257.021 377.936 259.775 382.196 260.656 387.002C261.538 391.808 260.474 396.768 257.7 400.79Z" fill="#92E3A9"/>
<mask id="mask0_79_1286" style="mask-type:luminance" maskUnits="userSpaceOnUse" x="224" y="371" width="37" height="38">
<path d="M257.7 400.79C255.63 403.788 252.718 406.104 249.332 407.447C245.946 408.789 242.238 409.098 238.676 408.333C235.115 407.569 231.86 405.765 229.323 403.151C226.786 400.537 225.082 397.229 224.425 393.646C223.768 390.063 224.188 386.366 225.632 383.022C227.076 379.677 229.479 376.836 232.537 374.858C235.596 372.879 239.172 371.852 242.815 371.906C246.457 371.959 250.001 373.092 253 375.16C257.021 377.936 259.775 382.196 260.656 387.002C261.538 391.808 260.474 396.768 257.7 400.79Z" fill="white"/>
</mask>
<g mask="url(#mask0_79_1286)">
<path opacity="0.3" d="M255.3 399.13C253.557 401.651 251.105 403.599 248.255 404.726C245.404 405.854 242.284 406.112 239.287 405.466C236.291 404.821 233.553 403.301 231.42 401.1C229.287 398.899 227.855 396.114 227.304 393.099C226.753 390.084 227.109 386.973 228.326 384.16C229.543 381.346 231.567 378.957 234.141 377.294C236.716 375.631 239.726 374.768 242.791 374.816C245.856 374.863 248.838 375.818 251.36 377.56C254.742 379.899 257.056 383.485 257.795 387.529C258.534 391.574 257.637 395.747 255.3 399.13Z" fill="black" fill-opacity="0.7"/>
<path d="M255.3 399.13C253.557 401.651 251.105 403.599 248.255 404.726C245.404 405.854 242.284 406.112 239.287 405.466C236.291 404.821 233.553 403.301 231.42 401.1C229.287 398.899 227.855 396.114 227.304 393.099C226.753 390.084 227.109 386.973 228.326 384.16C229.543 381.346 231.567 378.957 234.141 377.294C236.716 375.631 239.726 374.768 242.791 374.816C245.856 374.863 248.838 375.818 251.36 377.56C254.742 379.899 257.056 383.485 257.795 387.529C258.534 391.574 257.637 395.747 255.3 399.13Z" stroke="#263238" stroke-linecap="round" stroke-linejoin="round"/>
<path d="M246.52 382.57L247.27 381.5L249.13 382.78L248.38 383.86C249.77 385.31 249.74 387.12 248.38 389.08L248.06 389.54L245.91 388.05L246.33 387.45C247.04 386.45 246.9 385.74 246.18 385.24C245.46 384.74 244.77 384.84 244.05 385.88C243.33 386.92 243.25 387.88 243.94 390.2C244.77 392.98 244.62 394.56 243.48 396.2C242.12 398.2 240.4 398.84 238.56 398.06L237.83 399.11L236 397.84L236.73 396.78C235.32 395.32 235.37 393.49 236.73 391.52L237.41 390.52L239.56 392.01L238.78 393.14C238.06 394.14 238.26 394.86 238.98 395.37C239.7 395.88 240.42 395.81 241.14 394.77C241.86 393.73 241.95 392.71 241.25 390.45C240.4 387.7 240.56 386.1 241.71 384.45C243 382.51 244.69 381.82 246.52 382.57Z" fill="#92E3A9" stroke="#263238" stroke-linecap="round" stroke-linejoin="round"/>
<path opacity="0.2" d="M237.41 375.38C237.412 379.686 236.294 383.919 234.166 387.662C232.037 391.405 228.972 394.53 225.27 396.73C224.392 394.367 224.008 391.85 224.142 389.332C224.276 386.815 224.926 384.353 226.051 382.097C227.176 379.841 228.753 377.841 230.682 376.219C232.612 374.598 234.854 373.39 237.27 372.67C237.367 373.57 237.414 374.475 237.41 375.38Z" fill="black" fill-opacity="0.7"/>
</g>
<path d="M257.7 400.79C255.63 403.788 252.718 406.104 249.332 407.447C245.946 408.789 242.238 409.098 238.676 408.333C235.115 407.569 231.86 405.765 229.323 403.151C226.786 400.537 225.082 397.229 224.425 393.646C223.768 390.063 224.188 386.366 225.632 383.022C227.076 379.677 229.479 376.836 232.537 374.858C235.596 372.879 239.172 371.852 242.815 371.906C246.457 371.959 250.001 373.092 253 375.16C257.021 377.936 259.775 382.196 260.656 387.002C261.538 391.808 260.474 396.768 257.7 400.79Z" stroke="#263238" stroke-linecap="round" stroke-linejoin="round"/>
<path d="M216.24 393.24C226.419 393.24 234.67 384.989 234.67 374.81C234.67 364.631 226.419 356.38 216.24 356.38C206.061 356.38 197.81 364.631 197.81 374.81C197.81 384.989 206.061 393.24 216.24 393.24Z" fill="#92E3A9" stroke="#263238" stroke-linecap="round" stroke-linejoin="round"/>
<path opacity="0.3" d="M216.24 390.31C224.801 390.31 231.74 383.37 231.74 374.81C231.74 366.25 224.801 359.31 216.24 359.31C207.68 359.31 200.74 366.25 200.74 374.81C200.74 383.37 207.68 390.31 216.24 390.31Z" fill="black" fill-opacity="0.7"/>
<path d="M216.24 390.31C224.801 390.31 231.74 383.37 231.74 374.81C231.74 366.25 224.801 359.31 216.24 359.31C207.68 359.31 200.74 366.25 200.74 374.81C200.74 383.37 207.68 390.31 216.24 390.31Z" stroke="#263238" stroke-linecap="round" stroke-linejoin="round"/>
<path d="M215.11 366.18V364.88H217.37V366.18C219.37 366.59 220.37 368.09 220.37 370.48V371H217.75V370.27C217.75 369.01 217.25 368.53 216.37 368.53C215.49 368.53 214.99 369.01 214.99 370.27C214.99 371.53 215.49 372.4 217.35 373.89C219.61 375.7 220.35 377.08 220.35 379.09C220.35 381.48 219.35 383.02 217.35 383.42V384.7H215.09V383.42C213.09 383.02 212.09 381.48 212.09 379.09V377.89H214.7V379.27C214.7 380.53 215.25 380.98 216.13 380.98C217.01 380.98 217.57 380.53 217.57 379.27C217.57 378.01 217.07 377.11 215.2 375.65C212.94 373.86 212.2 372.46 212.2 370.44C212.19 368.12 213.17 366.61 215.11 366.18Z" fill="#92E3A9" stroke="#263238" stroke-linecap="round" stroke-linejoin="round"/>
<path d="M319.675 390.291C325.166 381.721 322.67 370.321 314.1 364.83C305.53 359.338 294.131 361.834 288.639 370.405C283.148 378.975 285.644 390.374 294.214 395.865C302.784 401.357 314.183 398.861 319.675 390.291Z" fill="#92E3A9" stroke="#263238" stroke-linecap="round" stroke-linejoin="round"/>
<path opacity="0.3" d="M315.51 369.81C317.597 372.056 318.971 374.871 319.458 377.898C319.945 380.925 319.524 384.028 318.247 386.815C316.97 389.603 314.895 391.949 312.285 393.557C309.674 395.165 306.646 395.963 303.582 395.85C300.518 395.736 297.557 394.717 295.072 392.92C292.588 391.124 290.692 388.631 289.625 385.757C288.557 382.883 288.366 379.757 289.076 376.774C289.785 373.791 291.363 371.086 293.61 369C295.1 367.613 296.849 366.534 298.757 365.824C300.665 365.114 302.694 364.787 304.728 364.863C306.762 364.938 308.762 365.414 310.612 366.263C312.462 367.111 314.126 368.317 315.51 369.81Z" fill="black" fill-opacity="0.7"/>
<path d="M315.51 369.81C317.597 372.056 318.971 374.871 319.458 377.898C319.945 380.925 319.524 384.028 318.247 386.815C316.97 389.603 314.895 391.949 312.285 393.557C309.674 395.165 306.646 395.963 303.582 395.85C300.518 395.736 297.557 394.717 295.072 392.92C292.588 391.124 290.692 388.631 289.625 385.757C288.557 382.883 288.366 379.757 289.076 376.774C289.785 373.791 291.363 371.086 293.61 369C295.1 367.613 296.849 366.534 298.757 365.824C300.665 365.114 302.694 364.787 304.728 364.863C306.762 364.938 308.762 365.414 310.612 366.263C312.462 367.111 314.126 368.317 315.51 369.81Z" stroke="#263238" stroke-linecap="round" stroke-linejoin="round"/>
<path d="M297.46 374.81L296.57 373.81L298.22 372.27L299.11 373.27C300.83 372.27 302.59 372.65 304.21 374.4L304.59 374.8L302.68 376.58L302.18 376.05C301.32 375.13 300.63 375.12 299.99 375.72C299.35 376.32 299.3 377.01 300.15 377.93C301 378.85 301.98 379.15 304.35 378.98C307.24 378.76 308.75 379.24 310.12 380.72C311.74 382.47 312.03 384.29 310.87 385.92L311.74 386.86L310.08 388.4L309.21 387.46C307.48 388.52 305.7 388.08 304.08 386.33L303.25 385.45L305.17 383.67L306.11 384.67C306.97 385.59 307.68 385.55 308.33 384.95C308.98 384.35 309.07 383.64 308.21 382.72C307.35 381.8 306.37 381.48 304.02 381.72C301.14 381.95 299.61 381.45 298.25 379.97C296.64 378.21 296.33 376.44 297.46 374.81Z" fill="#92E3A9" stroke="#263238" stroke-linecap="round" stroke-linejoin="round"/>
<path opacity="0.2" d="M296.57 300.25C296.57 300.25 296.49 338.49 296.57 340.72C296.65 342.95 299.57 356.38 299.57 356.38L290.28 373.5L298.28 379.94L313.83 364.66C313.83 364.66 327.07 372.83 329.49 384.53C331.91 396.23 346.32 404.75 361.27 437.15C376.22 469.55 393.27 364.66 393.27 364.66L347.14 306.58L296.57 300.25Z" fill="black" fill-opacity="0.7"/>
<path d="M437.59 94.81L423.46 232.69L414.77 317.51L293.33 305.07L269.7 302.65L254.57 301.1L267.98 170.2L277.39 78.4L437.59 94.81Z" fill="white"/>
<mask id="mask1_79_1286" style="mask-type:luminance" maskUnits="userSpaceOnUse" x="254" y="78" width="184" height="240">
<path d="M437.59 94.81L423.46 232.69L414.77 317.51L293.33 305.07L269.7 302.65L254.57 301.1L267.98 170.2L277.39 78.4L437.59 94.81Z" fill="white"/>
</mask>
<g mask="url(#mask1_79_1286)">
<path d="M391.06 100L321.91 92.9101C321.601 92.8785 321.29 92.9081 320.993 92.9971C320.695 93.0861 320.419 93.2327 320.178 93.4286C319.938 93.6246 319.738 93.866 319.591 94.139C319.444 94.4121 319.352 94.7114 319.32 95.02C319.289 95.3287 319.318 95.6404 319.407 95.9376C319.496 96.2348 319.643 96.5115 319.839 96.752C320.035 96.9926 320.276 97.1921 320.549 97.3393C320.822 97.4865 321.121 97.5785 321.43 97.61L390.58 104.7C391.203 104.764 391.826 104.577 392.312 104.181C392.798 103.786 393.106 103.213 393.17 102.59C393.234 101.967 393.047 101.344 392.651 100.858C392.256 100.372 391.683 100.064 391.06 100Z" fill="#263238"/>
<path d="M372.78 107.85L338.21 104.3C337.897 104.269 337.585 104.363 337.342 104.562C337.098 104.761 336.943 105.047 336.91 105.36C336.895 105.514 336.91 105.67 336.955 105.819C337 105.967 337.074 106.105 337.173 106.225C337.271 106.345 337.392 106.444 337.529 106.517C337.666 106.59 337.816 106.635 337.97 106.65L372.54 110.2C372.853 110.231 373.165 110.137 373.409 109.938C373.652 109.739 373.807 109.453 373.84 109.14C373.857 108.985 373.842 108.829 373.798 108.68C373.753 108.531 373.679 108.393 373.581 108.273C373.482 108.153 373.36 108.053 373.223 107.981C373.085 107.908 372.935 107.864 372.78 107.85Z" fill="#263238"/>
<path d="M410.83 209.61L298.59 198.11C298.286 198.076 297.981 198.161 297.738 198.347C297.495 198.534 297.335 198.807 297.29 199.11C297.259 199.423 297.354 199.735 297.552 199.979C297.751 200.222 298.038 200.377 298.35 200.41L410.59 212C410.744 212.015 410.9 212 411.049 211.955C411.197 211.91 411.335 211.836 411.455 211.737C411.575 211.639 411.674 211.518 411.747 211.381C411.82 211.244 411.865 211.094 411.88 210.94C411.902 210.783 411.893 210.623 411.851 210.47C411.81 210.317 411.738 210.174 411.64 210.05C411.542 209.926 411.42 209.823 411.28 209.747C411.141 209.671 410.988 209.625 410.83 209.61Z" fill="#263238"/>
<path d="M410 218.06L279.45 204.69C279.296 204.674 279.141 204.688 278.992 204.731C278.844 204.775 278.706 204.848 278.586 204.946C278.466 205.044 278.367 205.164 278.293 205.3C278.22 205.437 278.175 205.586 278.16 205.74C278.126 206.044 278.211 206.35 278.397 206.592C278.584 206.835 278.857 206.995 279.16 207.04L409.67 220.41C409.824 220.426 409.98 220.411 410.129 220.367C410.277 220.322 410.416 220.249 410.536 220.151C410.656 220.053 410.756 219.932 410.83 219.796C410.903 219.659 410.949 219.509 410.965 219.355C410.981 219.201 410.966 219.045 410.922 218.896C410.877 218.748 410.804 218.609 410.706 218.489C410.608 218.369 410.487 218.269 410.351 218.195C410.214 218.122 410.064 218.076 409.91 218.06H410Z" fill="#263238"/>
<path d="M372.55 222.77L278.55 213.14C278.238 213.107 277.926 213.199 277.683 213.396C277.439 213.593 277.283 213.878 277.25 214.19C277.217 214.502 277.309 214.814 277.506 215.058C277.703 215.301 277.988 215.457 278.3 215.49L372.3 225.12C372.454 225.135 372.61 225.12 372.759 225.075C372.907 225.03 373.045 224.956 373.165 224.857C373.285 224.759 373.384 224.638 373.457 224.501C373.53 224.364 373.575 224.214 373.59 224.06C373.607 223.907 373.593 223.752 373.55 223.605C373.506 223.457 373.434 223.319 373.338 223.199C373.241 223.079 373.122 222.98 372.987 222.906C372.852 222.833 372.703 222.786 372.55 222.77Z" fill="#263238"/>
<path d="M277.109 222.253L273.291 259.518L404.862 272.998L408.68 235.733L277.109 222.253Z" fill="#BFBFBF" stroke="#263238" stroke-miterlimit="10"/>
<path d="M337.444 179.132C349.872 168.777 351.553 150.308 341.198 137.88C330.844 125.452 312.374 123.771 299.946 134.126C287.518 144.48 285.837 162.949 296.192 175.378C306.547 187.806 325.016 189.486 337.444 179.132Z" fill="#92E3A9"/>
<mask id="mask2_79_1286" style="mask-type:luminance" maskUnits="userSpaceOnUse" x="289" y="127" width="59" height="59">
<path d="M337.444 179.132C349.872 168.777 351.553 150.308 341.198 137.88C330.844 125.452 312.374 123.771 299.946 134.126C287.518 144.48 285.837 162.949 296.192 175.377C306.547 187.806 325.016 189.486 337.444 179.132Z" fill="white"/>
</mask>
<g mask="url(#mask2_79_1286)">
<path opacity="0.5" d="M337.444 179.132C349.872 168.777 351.553 150.308 341.198 137.88C330.844 125.452 312.374 123.771 299.946 134.126C287.518 144.48 285.837 162.949 296.192 175.377C306.547 187.806 325.016 189.486 337.444 179.132Z" fill="white"/>
</g>
<path d="M337.444 179.132C349.872 168.777 351.553 150.308 341.198 137.88C330.844 125.452 312.374 123.771 299.946 134.126C287.518 144.48 285.837 162.949 296.192 175.378C306.547 187.806 325.016 189.486 337.444 179.132Z" stroke="#263238" stroke-miterlimit="10"/>
<path d="M319.54 156.56L343.9 168.81C346.173 164.09 347.076 158.827 346.507 153.619C345.938 148.411 343.919 143.468 340.68 139.35L319.54 156.56Z" fill="white"/>
<path d="M319.7 155.24L340.1 138.64C337.054 135.011 333.134 132.216 328.71 130.52L325 140.62L319.7 155.24Z" fill="#92E3A9"/>
<path d="M322 128.88L319.54 153L327.84 130.19C325.946 129.545 323.988 129.105 322 128.88Z" fill="#757575"/>
<path d="M318.27 156.34L321.1 128.78C316.278 128.375 311.434 129.226 307.04 131.251C302.645 133.276 298.851 136.405 296.025 140.333C293.2 144.261 291.441 148.854 290.92 153.664C290.398 158.474 291.132 163.338 293.05 167.78L318.27 156.34Z" fill="#999999"/>
<path d="M315.85 184.48C321.412 185.046 327.015 183.934 331.94 181.287C336.864 178.641 340.883 174.581 343.48 169.63L318.69 157.16L293.42 168.64C295.484 172.984 298.631 176.724 302.56 179.498C306.489 182.273 311.066 183.988 315.85 184.48Z" fill="#BFBFBF"/>
<path d="M365.697 137.625L362.365 137.283C362.019 137.248 361.709 137.499 361.674 137.846L361.332 141.178C361.297 141.524 361.549 141.834 361.895 141.869L365.227 142.211C365.573 142.246 365.883 141.994 365.918 141.648L366.26 138.315C366.295 137.969 366.043 137.66 365.697 137.625Z" fill="#92E3A9" stroke="#263238" stroke-miterlimit="10"/>
<path d="M412.13 144.08L369.07 139.67C368.969 139.624 368.885 139.546 368.83 139.45C368.775 139.353 368.752 139.241 368.764 139.13C368.776 139.02 368.823 138.916 368.898 138.833C368.972 138.75 369.071 138.693 369.18 138.67L412.24 143C412.37 143.026 412.486 143.099 412.564 143.205C412.643 143.312 412.679 143.444 412.665 143.575C412.651 143.707 412.589 143.829 412.49 143.917C412.391 144.004 412.262 144.052 412.13 144.05V144.08Z" fill="#263238"/>
<path d="M407.68 145.94L368.84 141.94C368.701 141.925 368.574 141.856 368.486 141.747C368.398 141.638 368.356 141.499 368.37 141.36C368.376 141.291 368.396 141.223 368.429 141.162C368.462 141.1 368.507 141.046 368.561 141.002C368.615 140.959 368.677 140.926 368.744 140.907C368.811 140.887 368.881 140.882 368.95 140.89L407.79 144.89C407.92 144.916 408.036 144.989 408.114 145.095C408.193 145.202 408.229 145.334 408.215 145.465C408.201 145.597 408.139 145.719 408.04 145.807C407.941 145.894 407.812 145.942 407.68 145.94Z" fill="#263238"/>
<path d="M364.646 147.894L361.313 147.553C360.967 147.517 360.658 147.769 360.622 148.115L360.281 151.448C360.246 151.794 360.497 152.103 360.843 152.139L364.176 152.48C364.522 152.516 364.832 152.264 364.867 151.918L365.208 148.585C365.244 148.239 364.992 147.93 364.646 147.894Z" fill="#757575" stroke="#263238" stroke-linecap="round" stroke-linejoin="round"/>
<path d="M411.08 154.35L368 149.94C367.87 149.915 367.755 149.841 367.676 149.735C367.597 149.628 367.561 149.496 367.575 149.365C367.589 149.233 367.651 149.111 367.75 149.024C367.849 148.936 367.978 148.888 368.11 148.89L411.16 153.3C411.3 153.315 411.428 153.384 411.518 153.493C411.607 153.601 411.651 153.74 411.64 153.88C411.625 154.015 411.558 154.14 411.454 154.227C411.35 154.315 411.216 154.359 411.08 154.35Z" fill="#263238"/>
<path d="M406.62 156.22L367.79 152.22C367.65 152.207 367.52 152.138 367.43 152.029C367.34 151.921 367.297 151.781 367.31 151.64C367.323 151.5 367.392 151.37 367.501 151.28C367.609 151.19 367.75 151.147 367.89 151.16L406.73 155.16C406.8 155.167 406.867 155.188 406.929 155.221C406.99 155.255 407.045 155.3 407.089 155.354C407.133 155.409 407.166 155.471 407.186 155.538C407.206 155.605 407.212 155.675 407.205 155.745C407.198 155.815 407.177 155.882 407.144 155.944C407.11 156.005 407.065 156.06 407.011 156.104C406.957 156.148 406.894 156.181 406.827 156.201C406.76 156.221 406.69 156.227 406.62 156.22Z" fill="#263238"/>
<path d="M363.595 158.174L360.262 157.832C359.916 157.797 359.607 158.048 359.571 158.395L359.23 161.727C359.194 162.073 359.446 162.383 359.792 162.418L363.125 162.76C363.471 162.795 363.78 162.543 363.816 162.197L364.157 158.864C364.193 158.518 363.941 158.209 363.595 158.174Z" fill="#999999" stroke="#263238" stroke-linecap="round" stroke-linejoin="round"/>
<path d="M410 164.63L367 160.21C366.926 160.209 366.854 160.193 366.787 160.162C366.72 160.131 366.66 160.087 366.611 160.032C366.563 159.977 366.526 159.912 366.503 159.842C366.481 159.772 366.473 159.698 366.481 159.625C366.488 159.552 366.511 159.481 366.548 159.417C366.584 159.353 366.634 159.298 366.693 159.254C366.752 159.21 366.82 159.179 366.892 159.163C366.963 159.147 367.038 159.146 367.11 159.16L410.16 163.57C410.23 163.577 410.297 163.598 410.359 163.631C410.42 163.665 410.475 163.71 410.519 163.764C410.563 163.819 410.596 163.881 410.616 163.948C410.636 164.015 410.642 164.085 410.635 164.155C410.628 164.225 410.607 164.292 410.574 164.354C410.54 164.415 410.495 164.47 410.441 164.514C410.387 164.558 410.324 164.591 410.257 164.611C410.19 164.631 410.12 164.637 410.05 164.63H410Z" fill="#263238"/>
<path d="M405.57 166.49L366.73 162.49C366.591 162.475 366.464 162.406 366.376 162.297C366.288 162.188 366.246 162.049 366.26 161.91C366.275 161.77 366.344 161.642 366.453 161.552C366.561 161.463 366.7 161.419 366.84 161.43L405.68 165.43C405.821 165.445 405.95 165.515 406.039 165.624C406.128 165.734 406.17 165.875 406.155 166.015C406.141 166.156 406.071 166.285 405.961 166.374C405.851 166.463 405.711 166.505 405.57 166.49Z" fill="#263238"/>
<path d="M362.542 168.452L359.21 168.11C358.864 168.075 358.554 168.327 358.519 168.673L358.177 172.006C358.142 172.352 358.394 172.661 358.74 172.696L362.073 173.038C362.419 173.073 362.728 172.822 362.763 172.475L363.105 169.143C363.14 168.797 362.889 168.487 362.542 168.452Z" fill="#BFBFBF" stroke="#263238" stroke-miterlimit="10"/>
<path d="M409 174.9L365.95 170.49C365.88 170.484 365.813 170.464 365.751 170.431C365.689 170.399 365.634 170.354 365.589 170.3C365.545 170.246 365.511 170.184 365.491 170.117C365.47 170.05 365.463 169.98 365.47 169.91C365.485 169.77 365.554 169.642 365.663 169.552C365.771 169.463 365.91 169.419 366.05 169.43L409.11 173.85C409.184 173.851 409.256 173.868 409.323 173.898C409.39 173.929 409.45 173.973 409.499 174.028C409.548 174.083 409.584 174.148 409.607 174.218C409.629 174.288 409.637 174.362 409.629 174.435C409.622 174.508 409.599 174.579 409.562 174.643C409.526 174.707 409.476 174.763 409.417 174.806C409.358 174.85 409.29 174.881 409.219 174.897C409.147 174.913 409.072 174.914 409 174.9Z" fill="#263238"/>
<path d="M404.52 176.76L365.68 172.76C365.55 172.734 365.435 172.661 365.356 172.555C365.277 172.448 365.241 172.316 365.255 172.185C365.269 172.053 365.331 171.931 365.43 171.844C365.529 171.756 365.658 171.708 365.79 171.71L404.63 175.71C404.712 175.692 404.797 175.695 404.878 175.716C404.959 175.738 405.034 175.779 405.096 175.835C405.159 175.891 405.207 175.961 405.236 176.04C405.266 176.118 405.277 176.203 405.268 176.286C405.259 176.37 405.23 176.45 405.184 176.52C405.137 176.59 405.075 176.648 405.002 176.689C404.929 176.731 404.848 176.754 404.764 176.758C404.68 176.761 404.596 176.745 404.52 176.71V176.76Z" fill="#263238"/>
<path d="M361.491 178.721L358.158 178.38C357.812 178.345 357.503 178.596 357.468 178.943L357.126 182.275C357.091 182.621 357.342 182.931 357.689 182.966L361.021 183.307C361.367 183.343 361.677 183.091 361.712 182.745L362.054 179.412C362.089 179.066 361.837 178.757 361.491 178.721Z" fill="white" stroke="#263238" stroke-linecap="round" stroke-linejoin="round"/>
<path d="M407.92 185.17L364.86 180.76C364.759 180.714 364.675 180.636 364.62 180.54C364.565 180.443 364.542 180.331 364.554 180.22C364.566 180.11 364.613 180.006 364.688 179.923C364.762 179.84 364.861 179.783 364.97 179.76L408 184.12C408.082 184.102 408.167 184.105 408.248 184.126C408.329 184.148 408.404 184.189 408.466 184.245C408.529 184.301 408.577 184.372 408.606 184.45C408.636 184.528 408.647 184.613 408.638 184.696C408.629 184.78 408.6 184.86 408.554 184.93C408.507 185 408.445 185.058 408.372 185.099C408.299 185.141 408.218 185.164 408.134 185.168C408.05 185.171 407.966 185.155 407.89 185.12L407.92 185.17Z" fill="#263238"/>
<path d="M403.47 187L364.63 183C364.556 182.999 364.484 182.983 364.417 182.952C364.35 182.921 364.29 182.877 364.242 182.822C364.193 182.767 364.156 182.702 364.133 182.632C364.111 182.562 364.103 182.488 364.111 182.415C364.118 182.342 364.141 182.271 364.178 182.207C364.214 182.143 364.264 182.087 364.323 182.044C364.382 182 364.45 181.969 364.522 181.953C364.593 181.937 364.668 181.936 364.74 181.95L403.57 185.95C403.644 185.95 403.717 185.965 403.785 185.995C403.853 186.024 403.914 186.068 403.964 186.123C404.014 186.177 404.052 186.242 404.075 186.312C404.099 186.382 404.107 186.457 404.1 186.53C404.093 186.604 404.071 186.675 404.034 186.74C403.998 186.804 403.949 186.861 403.889 186.905C403.83 186.949 403.762 186.98 403.69 186.997C403.618 187.013 403.543 187.014 403.47 187Z" fill="#263238"/>
<path d="M388.761 260.434L391.218 260.686L392.658 246.63L390.201 246.378L388.761 260.434Z" fill="#757575" stroke="#263238" stroke-linecap="round" stroke-linejoin="round"/>
<path d="M388.984 258.308L391.441 258.56L392.119 251.945L389.662 251.693L388.984 258.308Z" fill="#92E3A9" stroke="#263238" stroke-miterlimit="10"/>
<path d="M394.668 257.447L397.125 257.699L398.565 243.643L396.108 243.391L394.668 257.447Z" fill="#757575" stroke="#263238" stroke-linecap="round" stroke-linejoin="round"/>
<path d="M395.715 247.105L395.037 253.72L397.495 253.972L398.172 247.356L395.715 247.105Z" fill="#92E3A9" stroke="#263238" stroke-miterlimit="10"/>
<path d="M399.918 260.698L402.375 260.95L403.816 246.894L401.358 246.642L399.918 260.698Z" fill="#757575" stroke="#263238" stroke-linecap="round" stroke-linejoin="round"/>
<path d="M400.459 255.423L402.916 255.675L403.594 249.06L401.137 248.808L400.459 255.423Z" fill="#92E3A9" stroke="#263238" stroke-miterlimit="10"/>
<path d="M383.513 257.092L385.97 257.344L387.41 243.287L384.953 243.036L383.513 257.092Z" fill="#757575" stroke="#263238" stroke-linecap="round" stroke-linejoin="round"/>
<path d="M383.736 254.956L386.193 255.208L386.871 248.592L384.414 248.341L383.736 254.956Z" fill="#92E3A9" stroke="#263238" stroke-miterlimit="10"/>
<path d="M377.558 260.668L380.015 260.92L381.455 246.864L378.998 246.612L377.558 260.668Z" fill="#757575" stroke="#263238" stroke-linecap="round" stroke-linejoin="round"/>
<path d="M377.715 259.091L380.172 259.343L380.85 252.728L378.393 252.476L377.715 259.091Z" fill="#92E3A9" stroke="#263238" stroke-miterlimit="10"/>
<path d="M372.393 256.472L374.85 256.724L376.29 242.667L373.833 242.416L372.393 256.472Z" fill="#757575" stroke="#263238" stroke-linecap="round" stroke-linejoin="round"/>
<path d="M372.447 255.962L374.904 256.214L375.582 249.598L373.125 249.347L372.447 255.962Z" fill="#92E3A9" stroke="#263238" stroke-miterlimit="10"/>
<path d="M366.102 263.259L368.559 263.51L369.999 249.454L367.542 249.202L366.102 263.259Z" fill="#757575" stroke="#263238" stroke-linecap="round" stroke-linejoin="round"/>
<path d="M366.146 262.737L368.603 262.989L369.281 256.374L366.823 256.122L366.146 262.737Z" fill="#92E3A9" stroke="#263238" stroke-miterlimit="10"/>
<path d="M361.478 253.831L363.935 254.082L365.375 240.026L362.918 239.774L361.478 253.831Z" fill="#757575" stroke="#263238" stroke-linecap="round" stroke-linejoin="round"/>
<path d="M361.701 251.716L364.158 251.967L364.836 245.352L362.379 245.1L361.701 251.716Z" fill="#92E3A9" stroke="#263238" stroke-miterlimit="10"/>
<path d="M356.018 252.459L358.475 252.71L359.915 238.654L357.458 238.402L356.018 252.459Z" fill="#757575" stroke="#263238" stroke-linecap="round" stroke-linejoin="round"/>
<path d="M356.57 247.144L359.027 247.396L359.705 240.78L357.248 240.528L356.57 247.144Z" fill="#92E3A9" stroke="#263238" stroke-miterlimit="10"/>
<path d="M349.595 260.708L352.052 260.96L353.492 246.903L351.035 246.652L349.595 260.708Z" fill="#757575" stroke="#263238" stroke-linecap="round" stroke-linejoin="round"/>
<path d="M350.193 254.875L352.651 255.127L353.328 248.512L350.871 248.26L350.193 254.875Z" fill="#92E3A9" stroke="#263238" stroke-miterlimit="10"/>
<path d="M344.693 253.952L347.15 254.204L348.59 240.148L346.133 239.896L344.693 253.952Z" fill="#757575" stroke="#263238" stroke-linecap="round" stroke-linejoin="round"/>
<path d="M344.962 251.309L347.419 251.56L348.097 244.945L345.64 244.693L344.962 251.309Z" fill="#92E3A9" stroke="#263238" stroke-miterlimit="10"/>
<path d="M338.768 257.071L341.225 257.323L342.665 243.266L340.208 243.014L338.768 257.071Z" fill="#757575" stroke="#263238" stroke-linecap="round" stroke-linejoin="round"/>
<path d="M339.001 254.936L341.458 255.188L342.136 248.572L339.679 248.321L339.001 254.936Z" fill="#92E3A9" stroke="#263238" stroke-miterlimit="10"/>
<path d="M332.591 262.811L335.048 263.062L336.488 249.006L334.031 248.754L332.591 262.811Z" fill="#757575" stroke="#263238" stroke-linecap="round" stroke-linejoin="round"/>
<path d="M332.609 262.799L335.066 263.051L335.744 256.436L333.287 256.184L332.609 262.799Z" fill="#92E3A9" stroke="#263238" stroke-miterlimit="10"/>
<path d="M327.981 253.333L330.438 253.585L331.879 239.529L329.422 239.277L327.981 253.333Z" fill="#757575" stroke="#263238" stroke-linecap="round" stroke-linejoin="round"/>
<path d="M328.14 251.735L330.597 251.987L331.274 245.372L328.817 245.12L328.14 251.735Z" fill="#92E3A9" stroke="#263238" stroke-miterlimit="10"/>
<path d="M323.069 246.598L325.526 246.849L326.966 232.793L324.509 232.541L323.069 246.598Z" fill="#757575" stroke="#263238" stroke-linecap="round" stroke-linejoin="round"/>
<path d="M323.246 245.001L325.703 245.252L326.381 238.637L323.924 238.385L323.246 245.001Z" fill="#92E3A9" stroke="#263238" stroke-miterlimit="10"/>
<path d="M316.776 253.465L319.233 253.716L320.674 239.66L318.216 239.408L316.776 253.465Z" fill="#757575" stroke="#263238" stroke-linecap="round" stroke-linejoin="round"/>
<path d="M317.318 248.18L319.775 248.431L320.453 241.816L317.996 241.564L317.318 248.18Z" fill="#92E3A9" stroke="#263238" stroke-miterlimit="10"/>
<path d="M310.435 260.84L312.893 261.092L314.333 247.036L311.876 246.784L310.435 260.84Z" fill="#757575" stroke="#263238" stroke-linecap="round" stroke-linejoin="round"/>
<path d="M311.08 254.478L313.537 254.73L314.215 248.115L311.758 247.863L311.08 254.478Z" fill="#92E3A9" stroke="#263238" stroke-miterlimit="10"/>
<path d="M305.714 252.327L308.171 252.579L309.611 238.522L307.154 238.27L305.714 252.327Z" fill="#757575" stroke="#263238" stroke-linecap="round" stroke-linejoin="round"/>
<path d="M305.927 250.222L308.384 250.474L309.062 243.858L306.605 243.607L305.927 250.222Z" fill="#92E3A9" stroke="#263238" stroke-miterlimit="10"/>
<path d="M300.419 249.432L302.876 249.684L304.317 235.627L301.86 235.376L300.419 249.432Z" fill="#757575" stroke="#263238" stroke-linecap="round" stroke-linejoin="round"/>
<path d="M301.018 243.598L303.475 243.85L304.153 237.234L301.695 236.983L301.018 243.598Z" fill="#92E3A9" stroke="#263238" stroke-miterlimit="10"/>
<path d="M294.428 253.251L296.885 253.503L298.325 239.447L295.868 239.195L294.428 253.251Z" fill="#757575" stroke="#263238" stroke-linecap="round" stroke-linejoin="round"/>
<path d="M294.436 253.239L296.893 253.491L297.571 246.875L295.114 246.624L294.436 253.239Z" fill="#92E3A9" stroke="#263238" stroke-miterlimit="10"/>
<path d="M289.347 248.283L291.804 248.535L293.244 234.479L290.787 234.227L289.347 248.283Z" fill="#757575" stroke="#263238" stroke-linecap="round" stroke-linejoin="round"/>
<path d="M289.457 247.235L291.915 247.487L292.592 240.872L290.135 240.62L289.457 247.235Z" fill="#92E3A9" stroke="#263238" stroke-miterlimit="10"/>
<path d="M283.622 249.614L286.079 249.866L287.52 235.81L285.062 235.558L283.622 249.614Z" fill="#757575" stroke="#263238" stroke-linecap="round" stroke-linejoin="round"/>
<path d="M283.677 249.084L286.134 249.336L286.812 242.72L284.355 242.469L283.677 249.084Z" fill="#92E3A9" stroke="#263238" stroke-miterlimit="10"/>
<path d="M278.273 247.237L280.73 247.489L282.17 233.433L279.713 233.181L278.273 247.237Z" fill="#757575" stroke="#263238" stroke-linecap="round" stroke-linejoin="round"/>
<path d="M278.983 240.368L281.44 240.619L282.117 234.004L279.66 233.752L278.983 240.368Z" fill="#92E3A9" stroke="#263238" stroke-miterlimit="10"/>
<path d="M403.85 277.68L291.62 266.17C291.307 266.139 290.995 266.233 290.752 266.432C290.508 266.631 290.353 266.917 290.32 267.23C290.304 267.384 290.318 267.539 290.361 267.688C290.405 267.836 290.478 267.974 290.576 268.094C290.674 268.214 290.794 268.313 290.93 268.387C291.067 268.46 291.216 268.505 291.37 268.52L403.61 280C403.923 280.031 404.235 279.937 404.479 279.738C404.722 279.539 404.877 279.253 404.91 278.94C404.932 278.633 404.834 278.33 404.636 278.095C404.438 277.859 404.156 277.71 403.85 277.68Z" fill="#263238"/>
<path d="M403 286.13L272.48 272.75C272.167 272.719 271.855 272.814 271.611 273.012C271.368 273.211 271.213 273.498 271.18 273.81C271.163 273.965 271.178 274.121 271.222 274.27C271.267 274.419 271.341 274.557 271.439 274.677C271.538 274.798 271.66 274.897 271.797 274.969C271.935 275.042 272.085 275.086 272.24 275.1L402.75 288.48C403.061 288.508 403.371 288.413 403.612 288.214C403.853 288.016 404.007 287.731 404.04 287.42C404.057 287.267 404.043 287.112 404 286.965C403.956 286.817 403.884 286.679 403.788 286.559C403.691 286.439 403.572 286.34 403.437 286.266C403.301 286.193 403.153 286.146 403 286.13Z" fill="#263238"/>
<path d="M347.3 289L271.61 281.24C271.297 281.209 270.985 281.304 270.742 281.502C270.498 281.701 270.343 281.988 270.31 282.3C270.295 282.454 270.31 282.61 270.355 282.759C270.4 282.907 270.474 283.045 270.573 283.165C270.671 283.285 270.792 283.384 270.929 283.457C271.066 283.53 271.216 283.575 271.37 283.59L347.06 291.35C347.214 291.366 347.37 291.351 347.519 291.307C347.668 291.262 347.806 291.189 347.926 291.091C348.046 290.993 348.146 290.872 348.22 290.736C348.293 290.599 348.339 290.449 348.355 290.295C348.371 290.141 348.356 289.985 348.312 289.836C348.267 289.688 348.194 289.549 348.096 289.429C347.998 289.309 347.877 289.209 347.741 289.135C347.604 289.062 347.454 289.016 347.3 289Z" fill="#263238"/>
<path opacity="0.2" d="M416.23 213.49C412.36 213.18 411.02 219.35 411.02 219.35C411.02 219.35 404.9 211.35 405.87 192.47C405.87 192.47 402.87 184.11 394.87 189.16C386.87 194.21 378.56 212 380.54 231.4L365 179.71C359.62 180.85 348.69 188.08 351.57 222.99L334.57 204.99C334.57 204.99 329.97 203.51 327.37 207.58C324.77 211.65 326.01 240.8 328.16 251.7C330.31 262.6 324.83 284.5 324.83 284.5C324.83 284.5 318.97 259.7 308.37 253.42L268 170.2L254.57 301.1L269.7 302.65L294 290.82C293.86 296.29 293.73 301.32 293.33 305.07L414.77 317.51L423.46 232.69C420.51 222.12 417.69 213.6 416.23 213.49Z" fill="black" fill-opacity="0.7"/>
</g>
<path d="M437.59 94.81L423.46 232.69L414.77 317.51L293.33 305.07L269.7 302.65L254.57 301.1L267.98 170.2L277.39 78.4L437.59 94.81Z" stroke="#263238" stroke-linecap="round" stroke-linejoin="round"/>
<path d="M435.59 449.77L364.59 461.85C364.59 461.85 352.23 396.2 344.86 385.85C337.49 375.5 338.86 371.25 335.26 364.28C333.1 360.07 322.26 352.22 313.77 344.47C313.03 343.8 312.31 343.13 311.62 342.47C311.32 342.2 311.04 341.91 310.76 341.64C309.63 340.52 308.58 339.43 307.65 338.36C307.31 337.98 306.977 337.6 306.65 337.22C305.074 335.465 303.9 333.386 303.21 331.13C303.18 331.029 303.159 330.925 303.15 330.82C303.121 330.698 303.101 330.575 303.09 330.45C302.9 328.9 302.7 327.13 302.5 325.21C302.5 324.83 302.42 324.43 302.37 324.03L302.31 323.55C302.14 321.95 301.95 320.25 301.73 318.5C301.51 316.75 301.27 314.77 300.99 312.86C300.9 312.2 300.81 311.54 300.7 310.86C300.59 310.12 300.47 309.38 300.35 308.63L300 306.7C300 306.59 299.95 306.49 299.94 306.4L299.52 304.18C299.493 304.099 299.476 304.015 299.47 303.93C299.33 303.28 299.2 302.64 299.05 301.99C298.74 300.54 298.39 299.12 298.05 297.74C297.362 295.143 296.476 292.602 295.4 290.14C290.28 278.71 296.94 282.84 292.93 253.43C292.93 253.43 295.88 246.61 304.29 252.06C304.94 252.484 305.567 252.941 306.17 253.43C307.874 254.808 309.379 256.417 310.64 258.21C312.35 260.651 313.653 263.353 314.5 266.21C315.875 270.845 316.263 275.716 315.64 280.51C315.64 280.51 321.96 302.17 325.29 307.1C328.62 312.03 342.39 283.71 341.5 280.41C341.188 278.93 340.951 277.434 340.79 275.93C340.73 275.44 340.67 274.93 340.6 274.37C340.53 273.81 340.47 273.25 340.41 272.66C340.41 272.38 340.34 272.08 340.3 271.79C340.3 271.67 340.3 271.55 340.3 271.44C340.18 270.31 340.04 269.11 339.91 267.87C339.91 267.52 339.84 267.19 339.8 266.87C339.74 266.28 339.68 265.67 339.62 265.07C339.614 264.97 339.614 264.87 339.62 264.77C339.62 264.43 339.54 264.08 339.51 263.77C339.43 263.07 339.36 262.36 339.29 261.65C339.22 260.94 339.17 260.43 339.11 259.82C338.99 258.67 338.88 257.52 338.77 256.41C338.69 255.58 338.61 254.76 338.54 253.96C338.54 253.78 338.54 253.6 338.49 253.43C338.07 249.03 337.74 245.43 337.62 243.87C337.62 243.87 327.62 229.05 326.62 222.07C325.62 215.09 325.68 207.74 329.87 204.75C339.79 197.69 336.87 209.07 341.33 213.75C345.79 218.43 352.58 226.18 356.44 228.59C360 230.85 363.18 239.59 363.63 240.91C363.12 238.99 358.03 220.11 357.92 216.31C357.79 212.31 354.73 191.15 359.92 183.56C365.11 175.97 372.03 181.86 372.67 183.36C373.31 184.86 373.5 205.36 375.33 211.06C377.16 216.76 384.82 240.53 384.82 240.53C384.82 240.53 385.14 217.41 386.82 207.06C388.5 196.71 393.04 188.62 397.44 188.16C401.84 187.7 405.91 192.55 405.91 192.55C405.91 192.55 404.17 209.05 404.67 212.86C405.17 216.67 403.95 230.43 406.04 237.86C406.04 237.86 405.8 218.15 408.86 215.63C411.92 213.11 414.55 211.9 416.27 213.63C417.99 215.36 418.36 227 420.11 234.02C421.86 241.04 421.64 250.58 422.79 261.53C423.94 272.48 428.47 287.68 427.57 296.37C426.67 305.06 423.9 326.61 421.67 339.26C419.44 351.91 413.75 369.26 413.75 369.26C413.75 369.26 416.34 378.51 415.84 386.76C415.34 395.01 435.59 449.77 435.59 449.77Z" fill="white"/>
<path opacity="0.4" d="M375.24 211C376.6 215.22 381.15 229.34 383.41 236.39C383.41 236.39 373.49 243.68 373.73 250.46C373.97 257.24 371.92 270.93 367.46 270.53C363 270.13 363.46 241.68 361.95 236.89C362.86 238.95 363.44 240.62 363.56 240.95C363.23 239.72 357.93 220.13 357.82 216.25C357.82 215.34 357.61 213.52 357.4 211.17C357.4 211.17 367.27 201.72 374.51 207.5C374.674 208.682 374.918 209.851 375.24 211Z" fill="#92E3A9"/>
<path opacity="0.4" d="M404.73 219.12C400.11 223.5 393.14 231.24 392.26 238.71C392.26 238.71 394.83 259.57 393.73 268.71L384.73 240.5C384.73 240.5 385.05 217.38 386.73 207.03C386.73 206.75 386.83 206.46 386.88 206.18C392.498 203.321 398.697 201.792 405 201.71C404.614 205.387 404.483 209.085 404.61 212.78C404.761 214.89 404.801 217.006 404.73 219.12Z" fill="#92E3A9"/>
<path opacity="0.4" d="M408.82 215.52C408.71 215.59 408.44 215.81 408.05 216.14C408.282 215.69 408.542 215.256 408.83 214.84L408.82 215.52Z" fill="#92E3A9"/>
<path opacity="0.4" d="M411.17 273.19C411.17 273.19 405.23 250.91 405.17 232.97C405.12 226.33 405.89 220.28 408.04 216.19C408.272 215.74 408.532 215.306 408.82 214.89V215.53C409.895 214.602 411.085 213.816 412.36 213.19C410.69 215.79 408.77 220.88 410.99 229.19C414.48 242.1 411.44 257.93 411.17 273.19Z" fill="#92E3A9"/>
<path opacity="0.4" d="M329.24 315.65C329.24 315.65 330.83 336.88 313.77 344.48C313.03 343.81 312.31 343.14 311.62 342.48C311.32 342.21 311.04 341.92 310.76 341.65C309.63 340.53 308.58 339.44 307.65 338.37C307.3 337.98 306.99 337.6 306.65 337.23C305.074 335.475 303.9 333.396 303.21 331.14C303.18 331.039 303.159 330.935 303.15 330.83C303.121 330.708 303.101 330.585 303.09 330.46C302.9 328.91 302.7 327.14 302.5 325.22C302.5 324.84 302.42 324.44 302.37 324.04L302.31 323.56C302.14 321.96 301.95 320.26 301.73 318.51C301.51 316.76 301.27 314.78 300.99 312.87C300.89 312.21 300.8 311.54 300.7 310.87C300.59 310.13 300.47 309.39 300.35 308.64L300 306.7C300 306.59 299.95 306.49 299.94 306.4L299.52 304.18C299.493 304.099 299.476 304.015 299.47 303.93C299.33 303.28 299.2 302.64 299.05 301.99C298.73 300.55 298.38 299.13 298.05 297.74C304.8 291.25 320.38 295.32 312.84 280.27C312.84 280.27 316.64 267.39 306.17 253.43C313.33 259.2 317 269.35 315.64 280.43C315.64 280.43 321.96 302.09 325.29 307.02C328.62 311.95 342.39 283.63 341.5 280.33C341.188 278.85 340.951 277.355 340.79 275.85C340.73 275.36 340.67 274.85 340.6 274.29C340.53 273.73 340.47 273.17 340.41 272.58C340.41 272.3 340.34 272 340.3 271.71C340.3 271.59 340.3 271.47 340.3 271.36C340.18 270.22 340.05 269.03 339.91 267.79C339.91 267.44 339.84 267.11 339.8 266.79C339.74 266.2 339.68 265.59 339.62 264.99C339.614 264.89 339.614 264.79 339.62 264.69C339.62 264.35 339.54 264 339.51 263.69C339.43 262.99 339.36 262.28 339.29 261.57C339.22 260.86 339.17 260.35 339.11 259.74C338.99 258.59 338.88 257.44 338.77 256.33C338.69 255.5 338.62 254.67 338.54 253.88C338.54 253.7 338.54 253.52 338.49 253.35C338.76 254.66 343.83 278.8 346.73 284.42C349.64 290.18 337 320.65 329.24 315.65Z" fill="#92E3A9"/>
<path opacity="0.4" d="M421.63 339.12C419.4 351.78 413.71 369.12 413.71 369.12C413.71 369.12 416.3 378.37 415.8 386.62C415.66 388.84 417.04 394.45 419.1 401.45C418.5 399.91 412.1 383.39 412.23 377.63C412.36 371.58 410.64 369.91 407.23 362.48C403.82 355.05 398.72 355.87 398.72 355.87C398.72 355.87 396.72 374.4 392.08 362.22C387.44 350.04 386.53 335.87 398.26 286.67C398.26 286.67 400.03 292.84 398.55 311.17C397.07 329.5 401.45 335.05 401.45 335.05C408.033 323.576 413.265 311.378 417.04 298.7C417.04 298.7 415.52 320.09 414.17 329.83C412.82 339.57 418.98 318.54 423.28 305.55C427.28 293.36 427.47 288.72 425.93 280.04C427.07 286.15 427.93 292.04 427.49 296.25C426.63 304.9 423.86 326.47 421.63 339.12Z" fill="#92E3A9"/>
<path opacity="0.4" d="M341.4 380.36C344.86 385.86 353.33 393.13 358.4 413.24C363.47 433.35 360.27 455.36 360.27 455.36L341.4 380.36Z" fill="#92E3A9"/>
<path opacity="0.2" d="M314.51 266.17C314.51 266.17 296.8 275.17 295.4 290.17C290.28 278.74 296.94 282.87 292.93 253.46C292.93 253.46 295.88 246.64 304.29 252.09C304.94 252.514 305.567 252.971 306.17 253.46C307.874 254.838 309.379 256.447 310.64 258.24L314.51 266.17Z" fill="black" fill-opacity="0.7"/>
<path d="M364.59 461.85C364.59 461.85 352.23 396.2 344.86 385.85C337.49 375.5 338.86 371.25 335.26 364.28C331.66 357.31 304.33 340.35 303.12 330.44C301.91 320.53 300.52 301.57 295.4 290.13C290.28 278.69 296.94 282.83 292.92 253.42C292.92 253.42 295.92 246.6 304.29 252.05C312.66 257.5 317.12 268.4 315.65 280.47C315.65 280.47 321.97 302.11 325.31 307.05C328.65 311.99 342.39 283.66 341.5 280.35C340.61 277.04 337.97 248.89 337.56 243.75C337.56 243.75 327.56 228.92 326.56 221.94C325.56 214.96 325.62 207.61 329.81 204.63C339.73 197.57 336.81 208.95 341.27 213.63C345.73 218.31 352.52 226.05 356.37 228.47C360.22 230.89 363.58 241 363.58 241C363.58 241 357.93 220.26 357.82 216.25C357.71 212.24 354.63 191.09 359.82 183.51C365.01 175.93 371.94 181.8 372.58 183.3C373.22 184.8 373.41 205.3 375.25 211L384.72 240.47C384.72 240.47 385.05 217.35 386.78 207C388.51 196.65 393 188.56 397.4 188.1C401.8 187.64 405.87 192.49 405.87 192.49C405.87 192.49 404.13 208.99 404.62 212.8C405.11 216.61 403.91 230.36 406 237.8C406 237.8 405.76 218.09 408.82 215.57C411.88 213.05 414.51 211.84 416.23 213.57C417.95 215.3 418.32 226.94 420.07 233.96C421.82 240.98 421.6 250.52 422.75 261.47C423.9 272.42 428.43 287.62 427.53 296.3C426.63 304.98 423.86 326.55 421.62 339.21C419.38 351.87 413.72 369.21 413.72 369.21C413.72 369.21 416.3 378.46 415.8 386.71C415.3 394.96 435.58 449.88 435.58 449.88" stroke="#263238" stroke-linecap="round" stroke-linejoin="round"/>
<path d="M384.72 240.45C386.79 245.31 391.9 265.83 393.72 268.67C394.647 270.245 395.999 271.527 397.62 272.37" stroke="#263238" stroke-linecap="round" stroke-linejoin="round"/>
<path d="M406 237.75C406 237.75 405.56 241.96 407.83 255.36C410.1 268.76 411.21 274.47 412.48 277.46" stroke="#263238" stroke-linecap="round" stroke-linejoin="round"/>
<path d="M363.58 241C366.35 249.17 367.92 262.19 369.5 266.11C371.08 270.03 372.5 270.84 372.5 270.84" stroke="#263238" stroke-linecap="round" stroke-linejoin="round"/>
<path d="M368.07 260.58C369.738 261.847 371.059 263.516 371.91 265.43" stroke="#263238" stroke-linecap="round" stroke-linejoin="round"/>
<path d="M325.31 307.06C325.31 307.06 326.82 317.89 333.61 317.06" stroke="#263238" stroke-linecap="round" stroke-linejoin="round"/>
<path d="M341.5 280.36C341.5 280.36 343.26 293.24 340.38 298.7" stroke="#263238" stroke-linecap="round" stroke-linejoin="round"/>
<path d="M395.74 280.48C395.74 280.48 400.3 283.27 397.25 291.48C394.2 299.69 388.89 332.71 388.89 332.71" stroke="#263238" stroke-linecap="round" stroke-linejoin="round"/>
<path d="M415.59 289.12C417.5 296.52 417.67 296.71 414.59 305.8C411.51 314.89 406.48 337.16 406.48 337.16" stroke="#263238" stroke-linecap="round" stroke-linejoin="round"/>
<path d="M413.72 369.1C413.72 369.1 410.72 363.1 413.2 358.1" stroke="#263238" stroke-linecap="round" stroke-linejoin="round"/>
<path d="M344.86 385.86C344.86 385.86 352.4 396.45 355.68 408.3" stroke="#263238" stroke-linecap="round" stroke-linejoin="round"/>
<path d="M400.34 200.23L402.38 198.22L403.3 197.95L403.24 198.95L401.37 201.34L400.34 200.23Z" fill="#757575" stroke="#263238" stroke-linecap="round" stroke-linejoin="round"/>
<path d="M402 201.35L398.68 208.87L309.48 327.81L299.55 321.47L313 304.55L393.12 204.05L400.19 199.56C400.623 199.672 401.019 199.896 401.337 200.211C401.655 200.525 401.883 200.918 402 201.35Z" fill="#92E3A9"/>
<mask id="mask3_79_1286" style="mask-type:luminance" maskUnits="userSpaceOnUse" x="299" y="199" width="103" height="129">
<path d="M402 201.35L398.68 208.87L309.48 327.81L299.55 321.47L313 304.55L393.12 204.05L400.19 199.56C400.623 199.672 401.019 199.896 401.337 200.211C401.655 200.525 401.883 200.918 402 201.35Z" fill="white"/>
</mask>
<g mask="url(#mask3_79_1286)">
<path opacity="0.3" d="M402 201.35L398.68 208.87L309.48 327.81L299.55 321.47L313 304.55C319.2 303.91 320.24 307.55 320.24 307.55L397.09 207.25C396.33 204.55 393.09 204.03 393.09 204.03L400.16 199.54C400.601 199.649 401.004 199.874 401.328 200.193C401.652 200.511 401.884 200.911 402 201.35Z" fill="black" fill-opacity="0.7"/>
</g>
<path d="M402 201.35L398.68 208.87L309.48 327.81L299.55 321.47L313 304.55L393.12 204.05L400.19 199.56C400.623 199.672 401.019 199.896 401.337 200.211C401.655 200.525 401.883 200.918 402 201.35Z" stroke="#263238" stroke-linecap="round" stroke-linejoin="round"/>
<path d="M338.57 292.59C338.57 292.59 328.57 312.35 319.03 326.33L312.19 328.1C312.19 328.1 296.49 343.7 286.91 351.49C285.171 350.41 283.595 349.086 282.23 347.56C282.23 347.56 295.83 321.44 310.88 304.91C312.643 305.536 314.305 306.419 315.81 307.53C317.763 308.915 319.501 310.579 320.97 312.47L337.74 291.37L338.57 292.59Z" fill="#92E3A9"/>
<mask id="mask4_79_1286" style="mask-type:luminance" maskUnits="userSpaceOnUse" x="282" y="291" width="57" height="61">
<path d="M338.57 292.59C338.57 292.59 328.57 312.35 319.03 326.33L312.19 328.1C312.19 328.1 296.49 343.7 286.91 351.49C285.171 350.41 283.595 349.086 282.23 347.56C282.23 347.56 295.83 321.44 310.88 304.91C312.643 305.536 314.305 306.419 315.81 307.53C317.763 308.915 319.501 310.579 320.97 312.47L337.74 291.37L338.57 292.59Z" fill="white"/>
</mask>
<g mask="url(#mask4_79_1286)">
<path opacity="0.3" d="M338.57 292.59C338.57 292.59 328.57 312.35 319.03 326.33L312.19 328.1C312.19 328.1 296.49 343.7 286.91 351.49L287.17 347.25C297.56 331.38 310.76 314.07 315.81 307.53C317.763 308.915 319.501 310.579 320.97 312.47L311.65 324.91L316.99 323.91L337.74 291.33L338.57 292.59Z" fill="black" fill-opacity="0.7"/>
</g>
<path d="M338.57 292.59C338.57 292.59 328.57 312.35 319.03 326.33L312.19 328.1C312.19 328.1 296.49 343.7 286.91 351.49C285.171 350.41 283.595 349.086 282.23 347.56C282.23 347.56 295.83 321.44 310.88 304.91C312.643 305.536 314.305 306.419 315.81 307.53C317.763 308.915 319.501 310.579 320.97 312.47L337.74 291.37L338.57 292.59Z" stroke="#263238" stroke-linecap="round" stroke-linejoin="round"/>
<path d="M372.48 270.82L344.62 297.82L340.17 302.14C343.22 294.3 341.74 282.14 341.55 280.71C341.55 280.63 341.55 280.58 341.55 280.58C341.55 280.58 341.55 280.42 341.55 280.37C341.237 278.89 341.001 277.394 340.84 275.89C340.78 275.4 340.72 274.89 340.65 274.33C340.58 273.77 340.52 273.21 340.46 272.62C340.46 272.34 340.39 272.04 340.35 271.75C340.35 271.63 340.35 271.51 340.35 271.4C340.23 270.27 340.09 269.07 339.96 267.83C339.96 267.48 339.89 267.15 339.85 266.83C339.79 266.24 339.73 265.63 339.67 265.03C339.664 264.93 339.664 264.83 339.67 264.73C339.67 264.39 339.59 264.04 339.56 263.73C339.48 263.03 339.41 262.32 339.34 261.61C339.27 260.9 339.22 260.39 339.16 259.78C339.04 258.63 338.93 257.48 338.82 256.37C338.74 255.54 338.66 254.72 338.59 253.92C338.59 253.74 338.59 253.56 338.54 253.39C338.12 248.99 337.79 245.39 337.67 243.83C337.67 243.83 327.67 229.01 326.67 222.03C325.67 215.05 325.73 207.7 329.92 204.71C339.84 197.65 336.92 209.03 341.38 213.71C345.84 218.39 352.63 226.14 356.49 228.55C360.35 230.96 363.58 241 363.58 241C366.35 249.16 367.92 262.18 369.5 266.1C371.08 270.02 372.48 270.82 372.48 270.82Z" fill="white"/>
<path d="M368.07 260.58C369.738 261.847 371.059 263.516 371.91 265.43" stroke="#263238" stroke-linecap="round" stroke-linejoin="round"/>
<path opacity="0.4" d="M341.23 213.67C345.65 218.39 352.44 226.05 356.3 228.49C355.76 228.22 348.65 224.76 344.68 228.61C340.55 232.61 337.56 243.76 337.56 243.76C337.56 243.76 327.56 228.94 326.56 221.96C325.56 214.98 325.62 207.63 329.81 204.64C339.69 197.58 336.79 209 341.23 213.67Z" fill="#92E3A9"/>
<path opacity="0.4" d="M344.62 297.84L340.17 302.16C343.22 294.32 341.74 282.16 341.55 280.73C341.563 280.617 341.563 280.503 341.55 280.39C341.238 278.91 341.001 277.414 340.84 275.91C340.78 275.42 340.72 274.91 340.65 274.35C340.58 273.79 340.52 273.23 340.46 272.64C340.46 272.36 340.39 272.06 340.35 271.77C340.35 271.65 340.35 271.53 340.35 271.42C340.23 270.28 340.1 269.09 339.96 267.85C339.96 267.5 339.89 267.17 339.85 266.85C339.79 266.26 339.73 265.65 339.67 265.05C339.664 264.95 339.664 264.85 339.67 264.75C339.67 264.41 339.59 264.06 339.56 263.75C339.48 263.05 339.41 262.34 339.34 261.63C339.27 260.92 339.22 260.41 339.16 259.8C339.04 258.65 338.93 257.5 338.82 256.39C338.74 255.56 338.67 254.73 338.59 253.94C338.59 253.76 338.59 253.58 338.54 253.41C338.81 254.72 343.88 278.86 346.78 284.48C347.76 286.52 346.74 292 344.62 297.84Z" fill="#92E3A9"/>
<path d="M372.49 270.82C372.49 270.82 371.08 270.01 369.49 266.09C367.9 262.17 366.34 249.15 363.57 240.98C363.57 240.98 360.18 230.98 356.32 228.52C352.46 226.06 345.66 218.4 341.22 213.68C336.78 208.96 339.68 197.58 329.76 204.68C325.57 207.68 325.48 215.02 326.51 221.99C327.54 228.96 337.51 243.8 337.51 243.8C337.92 248.94 340.56 277.1 341.45 280.4" stroke="#263238" stroke-linecap="round" stroke-linejoin="round"/>
<path d="M341.5 280.36C341.5 280.36 343.26 293.24 340.38 298.7" stroke="#263238" stroke-linecap="round" stroke-linejoin="round"/>
<path opacity="0.2" d="M170.47 296.11C170.47 296.11 176.8 325.51 163.09 346.89C149.38 368.27 138.82 373.98 134.09 380.36C129.36 386.74 110.77 422.41 110.77 422.41L89.0699 358.14L110.77 278.63L170.47 296.11Z" fill="black" fill-opacity="0.7"/>
<path d="M298.37 273.64L163.81 330.27L149.94 336.11L123.8 274L63.1 129.77L211.53 67.3L298.37 273.64Z" fill="white"/>
<mask id="mask5_79_1286" style="mask-type:luminance" maskUnits="userSpaceOnUse" x="63" y="67" width="236" height="270">
<path d="M298.37 273.64L163.81 330.27L149.94 336.11L123.8 274L63.1 129.77L211.53 67.3L298.37 273.64Z" fill="white"/>
</mask>
<g mask="url(#mask5_79_1286)">
<path d="M173.18 94.15L109.11 121.15C108.532 121.393 108.074 121.855 107.837 122.435C107.599 123.016 107.602 123.667 107.845 124.245C108.088 124.823 108.55 125.281 109.131 125.518C109.711 125.756 110.362 125.753 110.94 125.51L175 98.5C175.291 98.3835 175.556 98.2103 175.779 97.9904C176.003 97.7705 176.18 97.5083 176.301 97.2192C176.422 96.93 176.484 96.6196 176.484 96.3062C176.483 95.9927 176.42 95.6825 176.299 95.3936C176.177 95.1047 175.999 94.8429 175.776 94.6234C175.552 94.404 175.287 94.2314 174.995 94.1156C174.704 93.9998 174.393 93.9433 174.079 93.9491C173.766 93.955 173.457 94.0233 173.17 94.15H173.18Z" fill="#263238"/>
<path d="M160.93 109.84L128.93 123.32C128.641 123.442 128.412 123.674 128.294 123.964C128.176 124.255 128.178 124.581 128.3 124.87C128.422 125.159 128.654 125.388 128.945 125.506C129.235 125.624 129.561 125.622 129.85 125.5L161.85 112.01C162 111.955 162.138 111.87 162.254 111.76C162.371 111.651 162.464 111.518 162.527 111.372C162.591 111.225 162.624 111.067 162.625 110.907C162.626 110.747 162.594 110.588 162.531 110.441C162.469 110.294 162.377 110.161 162.262 110.05C162.146 109.939 162.009 109.853 161.86 109.797C161.71 109.741 161.55 109.715 161.39 109.723C161.231 109.73 161.074 109.77 160.93 109.84Z" fill="#263238"/>
<path d="M213.64 192C213.64 192 214.99 202.61 211.04 204.27C207.43 205.79 202.68 200.1 198.53 201.84C194.38 203.58 197.65 218.64 193.65 220.32C189.65 222 184.83 215.82 181.37 217.32C177.91 218.82 180.01 226.52 176.45 228.02C173.51 229.25 169.31 223.1 165.95 221.75C165.641 221.599 165.304 221.513 164.96 221.495C164.616 221.478 164.273 221.531 163.95 221.65C160.43 223.13 162.18 239.3 159.14 240.57C158.29 240.936 157.363 241.091 156.44 241.02C155.309 240.807 154.161 240.696 153.01 240.69C152.569 240.735 152.138 240.846 151.73 241.02C149.14 242.11 149.49 250.62 147.12 251.62C144.75 252.62 142.41 251.38 139.88 252.44C137.35 253.5 137.39 257.93 133.61 259.52L135.21 263.31L227.32 224.55" fill="#BFBFBF"/>
<path d="M213.64 192C213.64 192 214.99 202.61 211.04 204.27C207.43 205.79 202.68 200.1 198.53 201.84C194.38 203.58 197.65 218.64 193.65 220.32C189.65 222 184.83 215.82 181.37 217.32C177.91 218.82 180.01 226.52 176.45 228.02C173.51 229.25 169.31 223.1 165.95 221.75C165.641 221.599 165.304 221.513 164.96 221.495C164.616 221.478 164.273 221.531 163.95 221.65C160.43 223.13 162.18 239.3 159.14 240.57C158.29 240.936 157.363 241.091 156.44 241.02C155.309 240.807 154.161 240.696 153.01 240.69C152.569 240.735 152.138 240.846 151.73 241.02C149.14 242.11 149.49 250.62 147.12 251.62C144.75 252.62 142.41 251.38 139.88 252.44C137.35 253.5 137.39 257.93 133.61 259.52L135.21 263.31L227.32 224.55" stroke="#263238" stroke-miterlimit="10"/>
<path d="M116.56 218.92L135.21 263.23L231.65 222.65" stroke="#263238" stroke-linecap="round" stroke-linejoin="round"/>
<path d="M221.05 209.58C221.05 209.58 220.59 209.02 219.91 208.35C218.72 207.2 216.83 205.74 215.39 206.35C213.95 206.96 213.86 209.27 213.89 211.77C213.89 214.77 214.19 218.07 212.66 218.71C211.36 219.26 210.2 218.44 209 217.54C207.63 216.54 206.23 215.4 204.54 216.11C201.7 217.31 202.54 221.01 201.54 224.18C201.268 225.092 200.788 225.928 200.137 226.623C199.486 227.317 198.683 227.85 197.79 228.18C195.34 229.18 192.85 228.18 190.5 226.6C186.5 223.9 182.98 219.52 180.68 220.49C177.01 222.04 181.05 231.96 177.11 233.62C174.91 234.55 170.35 227.62 165.92 221.62C162.42 216.89 159 212.77 156.92 213.62C152.17 215.62 160 239.35 156.55 240.8L156.44 240.85C155.885 241.079 155.282 241.169 154.684 241.111C154.086 241.054 153.511 240.851 153.01 240.52C151.77 239.82 150.75 238.81 149.38 239.39C146.83 240.47 148.32 249.77 145.52 250.95C142.72 252.13 141.03 250.42 137.87 251.75C135.2 252.88 133.61 259.35 133.61 259.35L135.21 263.14L227.32 224.38" fill="#757575"/>
<path d="M221.05 209.58C221.05 209.58 220.59 209.02 219.91 208.35C218.72 207.2 216.83 205.74 215.39 206.35C213.95 206.96 213.86 209.27 213.89 211.77C213.89 214.77 214.19 218.07 212.66 218.71C211.36 219.26 210.2 218.44 209 217.54C207.63 216.54 206.23 215.4 204.54 216.11C201.7 217.31 202.54 221.01 201.54 224.18C201.268 225.092 200.788 225.928 200.137 226.623C199.486 227.317 198.683 227.85 197.79 228.18C195.34 229.18 192.85 228.18 190.5 226.6C186.5 223.9 182.98 219.52 180.68 220.49C177.01 222.04 181.05 231.96 177.11 233.62C174.91 234.55 170.35 227.62 165.92 221.62C162.42 216.89 159 212.77 156.92 213.62C152.17 215.62 160 239.35 156.55 240.8L156.44 240.85C155.885 241.079 155.282 241.169 154.684 241.111C154.086 241.054 153.511 240.851 153.01 240.52C151.77 239.82 150.75 238.81 149.38 239.39C146.83 240.47 148.32 249.77 145.52 250.95C142.72 252.13 141.03 250.42 137.87 251.75C135.2 252.88 133.61 259.35 133.61 259.35L135.21 263.14L227.32 224.38" stroke="#263238" stroke-linecap="round" stroke-linejoin="round"/>
<path d="M201.55 241.21L169.55 254.69C169.261 254.812 169.032 255.044 168.914 255.334C168.796 255.625 168.798 255.951 168.92 256.24C169.042 256.529 169.274 256.758 169.565 256.876C169.855 256.994 170.181 256.992 170.47 256.87L202.47 243.39C202.759 243.268 202.988 243.036 203.106 242.745C203.224 242.455 203.222 242.129 203.1 241.84C202.978 241.551 202.746 241.322 202.455 241.204C202.165 241.086 201.839 241.088 201.55 241.21Z" fill="#263238"/>
<path d="M226.92 188.141L223.832 189.44C223.512 189.575 223.361 189.945 223.496 190.265L224.795 193.353C224.93 193.674 225.3 193.824 225.62 193.69L228.708 192.39C229.029 192.255 229.179 191.886 229.044 191.565L227.745 188.477C227.61 188.157 227.241 188.006 226.92 188.141Z" fill="#BFBFBF" stroke="#263238" stroke-miterlimit="10"/>
<path d="M243.67 182.9L230.87 188.29C230.738 188.341 230.592 188.339 230.462 188.285C230.332 188.231 230.227 188.129 230.17 188C230.117 187.871 230.116 187.727 230.168 187.598C230.221 187.468 230.322 187.365 230.45 187.31L243.26 181.92C243.389 181.867 243.533 181.866 243.662 181.918C243.792 181.971 243.895 182.072 243.95 182.2C243.978 182.264 243.993 182.333 243.994 182.404C243.995 182.474 243.982 182.543 243.956 182.608C243.93 182.674 243.891 182.733 243.842 182.783C243.793 182.833 243.735 182.873 243.67 182.9Z" fill="#263238"/>
<path d="M240.66 186.67L231.76 190.41C231.631 190.463 231.487 190.464 231.358 190.411C231.228 190.359 231.125 190.258 231.07 190.13C231.042 190.066 231.027 189.996 231.026 189.926C231.025 189.856 231.038 189.787 231.064 189.721C231.09 189.656 231.129 189.597 231.178 189.547C231.227 189.497 231.285 189.457 231.35 189.43L240.25 185.69C240.379 185.636 240.523 185.636 240.652 185.688C240.782 185.741 240.885 185.842 240.94 185.97C240.994 186.1 240.995 186.246 240.942 186.377C240.89 186.508 240.789 186.613 240.66 186.67Z" fill="#263238"/>
<path d="M230.928 197.661L227.841 198.96C227.52 199.095 227.369 199.464 227.504 199.785L228.803 202.873C228.938 203.194 229.308 203.344 229.629 203.209L232.716 201.91C233.037 201.775 233.188 201.406 233.053 201.085L231.753 197.997C231.618 197.676 231.249 197.526 230.928 197.661Z" fill="#757575" stroke="#263238" stroke-linecap="round" stroke-linejoin="round"/>
<path d="M247.67 192.42L234.87 197.8C234.804 197.827 234.734 197.841 234.663 197.84C234.592 197.84 234.522 197.826 234.456 197.799C234.391 197.771 234.331 197.731 234.281 197.681C234.231 197.63 234.192 197.571 234.165 197.505C234.138 197.439 234.124 197.369 234.125 197.298C234.125 197.227 234.139 197.157 234.166 197.091C234.194 197.026 234.234 196.967 234.284 196.917C234.335 196.867 234.394 196.827 234.46 196.8L247.26 191.41C247.326 191.383 247.396 191.369 247.467 191.37C247.538 191.37 247.608 191.384 247.674 191.412C247.739 191.439 247.798 191.479 247.848 191.529C247.898 191.58 247.938 191.639 247.965 191.705C247.992 191.771 248.006 191.841 248.005 191.912C248.005 191.983 247.991 192.053 247.963 192.119C247.936 192.184 247.896 192.244 247.846 192.294C247.795 192.344 247.736 192.383 247.67 192.41V192.42Z" fill="#263238"/>
<path d="M244.66 196.18L235.77 199.93C235.637 199.986 235.488 199.986 235.355 199.932C235.222 199.878 235.116 199.773 235.06 199.64C235.004 199.507 235.003 199.358 235.058 199.225C235.112 199.092 235.217 198.986 235.35 198.93L244.25 195.19C244.316 195.163 244.386 195.149 244.457 195.15C244.528 195.15 244.598 195.164 244.663 195.191C244.729 195.219 244.788 195.259 244.838 195.309C244.888 195.36 244.928 195.419 244.955 195.485C244.982 195.551 244.996 195.621 244.995 195.692C244.995 195.763 244.981 195.833 244.953 195.899C244.926 195.964 244.886 196.023 244.836 196.073C244.785 196.123 244.726 196.163 244.66 196.19V196.18Z" fill="#263238"/>
<path d="M264.51 231.66L160.51 275.42C160.221 275.542 159.992 275.774 159.874 276.064C159.756 276.355 159.758 276.681 159.88 276.97C160.002 277.259 160.234 277.488 160.524 277.606C160.815 277.724 161.141 277.722 161.43 277.6L265.43 233.83C265.58 233.775 265.718 233.69 265.834 233.58C265.951 233.471 266.044 233.338 266.107 233.192C266.171 233.045 266.204 232.887 266.205 232.727C266.206 232.567 266.174 232.408 266.111 232.261C266.049 232.114 265.957 231.981 265.842 231.87C265.726 231.759 265.589 231.673 265.44 231.617C265.29 231.561 265.13 231.535 264.97 231.543C264.811 231.55 264.654 231.59 264.51 231.66Z" fill="#263238"/>
<path d="M267.81 239.49L146.88 290.38C146.73 290.435 146.592 290.52 146.476 290.629C146.359 290.739 146.266 290.871 146.203 291.018C146.139 291.165 146.106 291.323 146.105 291.483C146.104 291.643 146.136 291.802 146.198 291.949C146.261 292.096 146.353 292.229 146.468 292.34C146.584 292.451 146.72 292.537 146.87 292.593C147.02 292.649 147.18 292.674 147.339 292.667C147.499 292.66 147.656 292.62 147.8 292.55L268.72 241.66C268.874 241.609 269.016 241.526 269.137 241.417C269.258 241.309 269.355 241.176 269.422 241.028C269.49 240.88 269.526 240.72 269.528 240.557C269.53 240.395 269.499 240.234 269.436 240.084C269.373 239.934 269.28 239.798 269.163 239.686C269.045 239.574 268.906 239.487 268.753 239.432C268.6 239.376 268.438 239.352 268.275 239.362C268.113 239.372 267.955 239.416 267.81 239.49Z" fill="#263238"/>
<path d="M271.1 247.32L150.18 298.21C150.03 298.265 149.892 298.35 149.776 298.46C149.659 298.569 149.566 298.701 149.503 298.848C149.439 298.995 149.406 299.153 149.405 299.313C149.404 299.473 149.436 299.632 149.499 299.779C149.561 299.926 149.653 300.059 149.768 300.17C149.884 300.281 150.02 300.367 150.17 300.423C150.32 300.479 150.48 300.504 150.64 300.497C150.799 300.49 150.956 300.45 151.1 300.38L272 249.49C272.15 249.435 272.288 249.35 272.404 249.24C272.521 249.131 272.614 248.998 272.677 248.852C272.741 248.705 272.774 248.547 272.775 248.387C272.776 248.227 272.744 248.068 272.681 247.921C272.619 247.774 272.527 247.641 272.412 247.53C272.296 247.419 272.159 247.333 272.01 247.277C271.86 247.221 271.7 247.196 271.54 247.203C271.381 247.21 271.224 247.25 271.08 247.32H271.1Z" fill="#263238"/>
<path d="M274.4 255.15L153.48 306C153.326 306.051 153.184 306.134 153.063 306.242C152.942 306.351 152.845 306.484 152.778 306.632C152.71 306.78 152.674 306.94 152.672 307.102C152.669 307.265 152.701 307.426 152.764 307.576C152.826 307.726 152.92 307.861 153.037 307.974C153.155 308.086 153.294 308.173 153.447 308.228C153.6 308.284 153.762 308.308 153.925 308.298C154.087 308.288 154.245 308.244 154.39 308.17L275.31 257.28C275.464 257.229 275.606 257.146 275.727 257.037C275.848 256.929 275.945 256.796 276.012 256.648C276.08 256.5 276.116 256.34 276.118 256.177C276.121 256.015 276.089 255.854 276.026 255.704C275.964 255.554 275.87 255.418 275.753 255.306C275.635 255.194 275.496 255.107 275.343 255.052C275.19 254.996 275.028 254.972 274.865 254.982C274.703 254.992 274.545 255.036 274.4 255.11V255.15Z" fill="#263238"/>
<path d="M226.9 284.35L156.77 313.87C156.62 313.925 156.482 314.01 156.366 314.119C156.249 314.229 156.156 314.361 156.093 314.508C156.029 314.655 155.996 314.813 155.995 314.973C155.994 315.133 156.026 315.292 156.088 315.439C156.151 315.586 156.243 315.719 156.358 315.83C156.474 315.941 156.61 316.027 156.76 316.083C156.91 316.139 157.07 316.164 157.23 316.157C157.389 316.15 157.546 316.11 157.69 316.04L227.82 286.53C227.963 286.47 228.093 286.382 228.202 286.271C228.311 286.16 228.397 286.029 228.456 285.885C228.514 285.741 228.544 285.587 228.543 285.432C228.542 285.277 228.51 285.123 228.45 284.98C228.39 284.837 228.301 284.707 228.191 284.598C228.08 284.489 227.949 284.402 227.805 284.344C227.661 284.285 227.507 284.256 227.352 284.257C227.197 284.258 227.043 284.29 226.9 284.35Z" fill="#263238"/>
<path d="M188.28 131.7C188.28 131.7 189.63 142.32 185.68 143.98C182.07 145.5 177.31 139.81 173.17 141.55C169.03 143.29 172.29 158.34 168.29 160.03C164.29 161.72 159.46 155.53 156.01 156.98C152.56 158.43 154.65 166.18 151.09 167.67C148.15 168.91 143.95 162.76 140.59 161.41C140.281 161.259 139.944 161.173 139.6 161.155C139.257 161.138 138.913 161.191 138.59 161.31C135.07 162.79 136.82 178.95 133.78 180.23C132.93 180.598 132.003 180.75 131.08 180.67C129.948 180.466 128.8 180.359 127.65 180.35C127.209 180.394 126.777 180.505 126.37 180.68C123.78 181.77 124.13 190.28 121.76 191.27C119.39 192.26 117.05 191.04 114.52 192.1C111.99 193.16 112.03 197.59 108.25 199.18L109.85 202.97L202 164.21" fill="#BFBFBF"/>
<path d="M188.28 131.7C188.28 131.7 189.63 142.32 185.68 143.98C182.07 145.5 177.31 139.81 173.17 141.55C169.03 143.29 172.29 158.34 168.29 160.03C164.29 161.72 159.46 155.53 156.01 156.98C152.56 158.43 154.65 166.18 151.09 167.67C148.15 168.91 143.95 162.76 140.59 161.41C140.281 161.259 139.944 161.173 139.6 161.155C139.256 161.138 138.913 161.191 138.59 161.31C135.07 162.79 136.82 178.95 133.78 180.23C132.93 180.598 132.003 180.75 131.08 180.67C129.948 180.466 128.8 180.359 127.65 180.35C127.209 180.394 126.777 180.505 126.37 180.68C123.78 181.77 124.13 190.28 121.76 191.27C119.39 192.26 117.05 191.04 114.52 192.1C111.99 193.16 112.03 197.59 108.25 199.18L109.85 202.97L202 164.21" stroke="#263238" stroke-miterlimit="10"/>
<path d="M194.23 145.85C194.23 145.85 195.07 150.99 193.04 151.85C191.35 152.56 190.31 151.57 188.53 151.51C187.661 151.484 186.796 151.651 186 152C184.37 152.68 184 154.88 183.69 157.24C183.33 160.15 183.15 163.31 181.02 164.24C179.53 164.87 177.92 164.5 176.26 163.92C173.61 163 170.83 161.54 168.14 162.67C166.84 163.22 165.93 164.67 165.22 166.38C163.55 170.51 163.03 176.49 161.22 177.25C158.65 178.34 153.94 173.92 151.66 174.88C149.38 175.84 150.31 179.8 148.46 180.58C146.61 181.36 145.55 179.06 142.29 180.43C139.03 181.8 140.62 186.62 136.02 188.56C131.42 190.5 129.4 186.93 124.96 188.8C120.52 190.67 121.32 194.05 118.18 195.37C115.04 196.69 113.72 194.37 111.48 195.37C109.24 196.37 108.7 199.86 108.67 200.08L109.9 203L202 164.21" fill="#92E3A9"/>
<path d="M194.23 145.85C194.23 145.85 195.07 150.99 193.04 151.85C191.35 152.56 190.31 151.57 188.53 151.51C187.661 151.484 186.796 151.651 186 152C184.37 152.68 184 154.88 183.69 157.24C183.33 160.15 183.15 163.31 181.02 164.24C179.53 164.87 177.92 164.5 176.26 163.92C173.61 163 170.83 161.54 168.14 162.67C166.84 163.22 165.93 164.67 165.22 166.38C163.55 170.51 163.03 176.49 161.22 177.25C158.65 178.34 153.94 173.92 151.66 174.88C149.38 175.84 150.31 179.8 148.46 180.58C146.61 181.36 145.55 179.06 142.29 180.43C139.03 181.8 140.62 186.62 136.02 188.56C131.42 190.5 129.4 186.93 124.96 188.8C120.52 190.67 121.32 194.05 118.18 195.37C115.04 196.69 113.72 194.37 111.48 195.37C109.24 196.37 108.7 199.86 108.67 200.08L109.9 203L202 164.21" stroke="#263238" stroke-miterlimit="10"/>
<path d="M91.2 158.66L109.85 202.97L206.28 162.38" stroke="#263238" stroke-linecap="round" stroke-linejoin="round"/>
<path d="M175.9 180.26L143.9 193.74C143.611 193.861 143.382 194.091 143.263 194.381C143.143 194.671 143.144 194.996 143.265 195.285C143.386 195.574 143.616 195.803 143.906 195.922C144.196 196.042 144.521 196.041 144.81 195.92L176.81 182.44C176.953 182.38 177.083 182.292 177.192 182.181C177.301 182.07 177.387 181.939 177.446 181.795C177.504 181.652 177.534 181.497 177.533 181.342C177.532 181.187 177.5 181.033 177.44 180.89C177.38 180.747 177.292 180.617 177.181 180.508C177.07 180.399 176.939 180.312 176.795 180.254C176.652 180.195 176.497 180.166 176.342 180.167C176.187 180.168 176.033 180.2 175.89 180.26H175.9Z" fill="#263238"/>
<path d="M199.938 124.033L196.85 125.332C196.529 125.467 196.379 125.837 196.514 126.157L197.813 129.245C197.948 129.566 198.317 129.716 198.638 129.581L201.726 128.282C202.046 128.147 202.197 127.778 202.062 127.457L200.763 124.369C200.628 124.049 200.258 123.898 199.938 124.033Z" fill="#BFBFBF" stroke="#263238" stroke-miterlimit="10"/>
<path d="M216.69 118.79L203.89 124.18C203.758 124.231 203.612 124.229 203.482 124.175C203.352 124.121 203.247 124.019 203.19 123.89C203.137 123.76 203.138 123.614 203.192 123.485C203.247 123.356 203.35 123.253 203.48 123.2L216.28 117.81C216.41 117.757 216.555 117.758 216.685 117.812C216.814 117.867 216.917 117.97 216.97 118.1C216.998 118.164 217.013 118.232 217.013 118.301C217.014 118.371 217.001 118.44 216.975 118.504C216.949 118.568 216.911 118.627 216.862 118.676C216.813 118.725 216.754 118.764 216.69 118.79Z" fill="#263238"/>
<path d="M213.68 122.56L204.78 126.3C204.647 126.354 204.499 126.354 204.366 126.298C204.234 126.243 204.129 126.138 204.075 126.005C204.021 125.872 204.021 125.724 204.076 125.591C204.132 125.459 204.237 125.354 204.37 125.3L213.27 121.55C213.399 121.497 213.543 121.496 213.672 121.548C213.802 121.601 213.905 121.702 213.96 121.83C213.991 121.896 214.009 121.968 214.012 122.041C214.015 122.114 214.002 122.187 213.976 122.255C213.95 122.323 213.91 122.385 213.859 122.438C213.808 122.49 213.747 122.532 213.68 122.56Z" fill="#263238"/>
<path d="M203.956 133.553L200.868 134.852C200.547 134.987 200.397 135.356 200.532 135.677L201.831 138.765C201.966 139.085 202.335 139.236 202.656 139.101L205.744 137.802C206.065 137.667 206.215 137.297 206.08 136.977L204.781 133.889C204.646 133.568 204.277 133.418 203.956 133.553Z" fill="#92E3A9" stroke="#263238" stroke-miterlimit="10"/>
<path d="M220.69 128.31L207.89 133.7C207.76 133.753 207.614 133.752 207.485 133.698C207.356 133.643 207.253 133.54 207.2 133.41C207.172 133.346 207.157 133.278 207.156 133.208C207.155 133.139 207.168 133.07 207.195 133.006C207.221 132.942 207.259 132.883 207.308 132.834C207.357 132.785 207.416 132.746 207.48 132.72L220.28 127.33C220.346 127.303 220.416 127.289 220.487 127.29C220.558 127.29 220.628 127.304 220.694 127.331C220.759 127.359 220.818 127.399 220.868 127.449C220.918 127.5 220.958 127.559 220.985 127.625C221.012 127.691 221.026 127.761 221.025 127.832C221.025 127.903 221.011 127.973 220.984 128.039C220.956 128.104 220.916 128.163 220.866 128.213C220.815 128.263 220.756 128.303 220.69 128.33V128.31Z" fill="#263238"/>
<path d="M217.68 132.08L208.79 135.82C208.657 135.876 208.508 135.876 208.375 135.822C208.242 135.768 208.136 135.663 208.08 135.53C208.024 135.397 208.023 135.248 208.078 135.115C208.132 134.982 208.237 134.876 208.37 134.82L217.27 131.08C217.336 131.053 217.406 131.039 217.477 131.04C217.548 131.04 217.618 131.054 217.683 131.081C217.749 131.109 217.808 131.149 217.858 131.199C217.908 131.25 217.948 131.309 217.975 131.375C218.002 131.441 218.016 131.511 218.015 131.582C218.015 131.653 218.001 131.723 217.973 131.789C217.946 131.854 217.906 131.913 217.856 131.963C217.805 132.013 217.746 132.053 217.68 132.08Z" fill="#263238"/>
<path opacity="0.2" d="M163.81 330.27L149.94 336.11L123.8 274C126.135 271.684 127.666 268.68 128.17 265.43C129.73 257.11 128.63 230.36 149.46 227.6C170.29 224.84 152.72 271.68 153.68 280.6C154.56 288.74 166.43 312.37 163.81 330.27Z" fill="black" fill-opacity="0.7"/>
</g>
<path d="M298.37 273.64L163.81 330.27L149.94 336.11L123.8 274L63.1 129.77L211.53 67.3L298.37 273.64Z" stroke="#263238" stroke-linecap="round" stroke-linejoin="round"/>
<path d="M155.43 284C157.77 276 166.89 250.38 165.69 239.05C165.592 238.107 165.377 237.18 165.05 236.29C161.85 227.83 148.77 228.65 143.74 235.66C138.23 243.37 133.74 257.25 133.34 265.66C132.986 269.879 131.614 273.949 129.34 277.52C128.554 278.839 127.668 280.097 126.69 281.28L96.87 210.53C93.8573 213.039 91.2263 215.973 89.06 219.24C87.8419 221.062 87.0553 223.138 86.76 225.31C86.15 232.29 78.25 261 75 273C74.93 273.26 74.86 273.51 74.8 273.75C71.64 285.37 79.9799 328.53 77.59 341.07C75.2 353.61 73.7299 353.32 73.38 362.23C73.13 368.73 63.83 388.49 53.38 408.78C47.38 420.41 41.06 432.19 35.83 441.78L112.15 438.61C113.47 429.34 114.83 419.55 116.07 410.07C116.609 406.127 117.37 402.217 118.35 398.36C120.03 391.56 122.08 385.41 123.35 381.81C124.972 376.523 126.307 371.151 127.35 365.72C136.23 356.32 147.87 341.55 151.24 331.55V331.48C152.065 329.426 152.328 327.189 152 325C151.628 323.203 151.424 321.375 151.39 319.54C151 308.68 153.47 290.65 155.43 284Z" fill="white"/>
<path opacity="0.4" d="M129.36 277.59C126.99 282.34 124.14 286.95 122.36 292.27C120.58 297.59 118.59 298.35 113.25 302.52C107.91 306.69 104.01 299.82 104.01 299.82C104.01 299.82 111.08 292.48 108.73 288.39C106.38 284.3 97.58 274.13 98.1 268.52C98.62 262.91 92.77 250.33 92.77 250.33C92.77 250.33 106.1 242.5 103.51 233.33C102.1 228.33 95.12 223 89.1 219.21C91.2664 215.943 93.8974 213.009 96.91 210.5L126.75 281.32C127.713 280.145 128.586 278.898 129.36 277.59Z" fill="#92E3A9"/>
<path opacity="0.4" d="M80.9999 321C81.1799 321.6 85.5199 335.93 81.8599 341.9C78.1999 347.87 74.4399 355.79 76.2299 363.9C77.6499 370.38 65.6499 393.78 53.4199 408.8C63.8399 388.51 73.1399 368.75 73.4199 362.25C73.7699 353.34 75.2399 353.61 77.6299 341.09C80.0199 328.57 71.6299 285.39 74.8399 273.77C74.8999 273.53 74.9699 273.28 75.0399 273.02C77.3699 286.19 82.7899 312.42 84.2799 320.85C86.1099 331.61 81.1599 321.45 80.9999 321Z" fill="#92E3A9"/>
<path opacity="0.4" d="M108.44 407.5C117.31 369.31 147.16 340.03 151.2 331.55C147.83 341.55 136.2 356.32 127.31 365.72C126.267 371.151 124.932 376.523 123.31 381.81C122.06 385.41 120.01 391.56 118.31 398.36C109.68 408.59 108.44 407.5 108.44 407.5Z" fill="#92E3A9"/>
<path opacity="0.4" d="M155.43 284C153.43 290.65 151 308.68 151.38 319.51C149.81 312.71 146.79 304.07 146.29 292.04C145.44 271.64 157 279 153 268.91C149 258.82 137.48 271.74 143.14 250.47C147.27 234.94 159.04 235.08 165.08 236.29C165.407 237.18 165.622 238.107 165.72 239.05C166.89 250.38 157.77 276 155.43 284Z" fill="#92E3A9"/>
<path d="M47.4399 420.73C56.9999 403.24 66.3099 385.25 72.9999 365.85C73.7999 363.06 72.7299 359.42 73.5399 356.63C82.5999 331.44 72.3199 305.21 74.0099 279.4C75.4399 269.23 78.6899 259 81.9999 248.73C83.5299 241.32 84.0999 233.02 86.5499 225.56C89.0699 219.94 91.5499 213.41 96.9199 210.56C107.12 233.93 117.28 257.41 126.76 281.38C131.05 278.9 131.76 273.38 132.46 268.73C134.76 257.6 137.09 247.4 141.3 238.03C145.58 230.5 156.48 227.29 163.17 233.44C165.088 235.362 166.185 237.954 166.23 240.67C164.93 253.59 160.87 266.67 156.78 278.75C155.17 284.33 153.53 289 152.84 294.54C152.91 296.38 152.95 297.29 153.03 299.13C150.66 308.42 152.84 316.6 152.3 325.82C150.23 342.45 136.92 354.03 127.3 366.38C124.92 375.67 122.55 384.96 119.3 394.29C115.3 408.29 114.02 422.09 112.65 435.54" stroke="#263238" stroke-linecap="round" stroke-linejoin="round"/>
<path d="M126.72 281.35C124.91 284.842 123.436 288.498 122.32 292.27C121.07 297.17 114.74 296.47 111.47 299.51" stroke="#263238" stroke-linecap="round" stroke-linejoin="round"/>
<path d="M102.84 272.72C102.84 272.72 111.45 275.72 116.47 279.67C121.49 283.62 125.19 284.54 125.19 284.54" stroke="#263238" stroke-linecap="round" stroke-linejoin="round"/>
<path d="M97.35 251.37C97.35 251.37 104.35 253.32 109.45 250.87C109.683 248.375 110.121 245.903 110.76 243.48" stroke="#263238" stroke-linecap="round" stroke-linejoin="round"/>
<path d="M111.11 251.88C111.11 251.88 111.18 252.88 114.72 252.88" stroke="#263238" stroke-linecap="round" stroke-linejoin="round"/>
<path d="M127.31 365.72C122.458 370.618 118.732 376.515 116.39 383" stroke="#263238" stroke-linecap="round" stroke-linejoin="round"/>
<path d="M74.3599 275.92C74.0399 281.92 81.0799 303.2 83.2099 313.78C85.3399 324.36 86.1499 331.84 86.1499 331.84" stroke="#263238" stroke-linecap="round" stroke-linejoin="round"/>
</svg>
