<svg width="526" height="500" viewBox="0 0 526 500" fill="none" xmlns="http://www.w3.org/2000/svg">
<path d="M497.876 297.25C503.115 247.34 498.578 196.83 476.752 153.73C451.736 104.4 412.11 69.54 369.988 59.65C362.484 57.8762 354.893 56.9434 347.286 56.86C329.13 56.6839 311.077 60.7858 293.859 69C264.788 83 239.8 107.39 217.203 136.5C207.167 149.42 197.369 166 184.079 172C170.284 178.28 155.443 170.2 141.999 165.26C116.8 156 79.8116 136 54.7039 155C21.7412 180 11.9226 235 24.5466 278C37.1706 321 75.7439 324 79.9519 357C84.1599 390 104.499 439 148.683 434C192.867 429 209.699 375 237.752 391C247.62 396.63 255.369 407 263.764 415.91C275.456 428.35 288.136 436.82 302.527 440.72C323.104 446.3 345.575 443.35 366.348 441.93C390.194 440.29 415.849 441.54 439 429.66C463.855 416.89 479.551 388.91 487.974 353.83C492.466 335.435 495.78 316.498 497.876 297.25Z" fill="#92E3A9"/>
<path opacity="0.7" d="M497.876 297.25C503.115 247.34 498.578 196.83 476.752 153.73C451.736 104.4 412.11 69.54 369.988 59.65C362.484 57.8762 354.893 56.9434 347.286 56.86C329.13 56.6839 311.077 60.7858 293.859 69C264.788 83 239.8 107.39 217.203 136.5C207.167 149.42 197.369 166 184.079 172C170.284 178.28 155.443 170.2 141.999 165.26C116.8 156 79.8116 136 54.7039 155C21.7412 180 11.9226 235 24.5466 278C37.1706 321 75.7439 324 79.9519 357C84.1599 390 104.499 439 148.683 434C192.867 429 209.699 375 237.752 391C247.62 396.63 255.369 407 263.764 415.91C275.456 428.35 288.136 436.82 302.527 440.72C323.104 446.3 345.575 443.35 366.348 441.93C390.194 440.29 415.849 441.54 439 429.66C463.855 416.89 479.551 388.91 487.974 353.83C492.466 335.435 495.78 316.498 497.876 297.25Z" fill="white"/>
<path d="M318.405 396H440.087C442.412 396 444.642 394.683 446.286 392.339C447.93 389.995 448.853 386.815 448.853 383.5V62.5C448.853 59.1848 447.93 56.0054 446.286 53.6612C444.642 51.317 442.412 50 440.087 50H88.0174C85.6923 50 83.4625 51.317 81.8184 53.6612C80.1744 56.0054 79.2507 59.1848 79.2507 62.5V383.5C79.2507 386.815 80.1744 389.995 81.8184 392.339C83.4625 394.683 85.6923 396 88.0174 396H209.699" stroke="black" stroke-linecap="round" stroke-linejoin="round"/>
<path d="M440.437 64H86.9653V359H440.437V64Z" stroke="black" stroke-linecap="round" stroke-linejoin="round"/>
<path d="M318.405 396H209.699V430.95H318.405V396Z" stroke="black" stroke-linecap="round" stroke-linejoin="round"/>
<path d="M318.405 430.95H337.341V444.29H190.763V430.95H209.699" stroke="black" stroke-linecap="round" stroke-linejoin="round"/>
<path d="M139.825 157.5H112.298V105.17H133.927L139.825 113.39V157.5Z" fill="white" stroke="#263238" stroke-linecap="round" stroke-linejoin="round"/>
<path d="M134.67 112.53V114.67L139.825 113.4L134.67 112.53Z" fill="#263238" stroke="#263238" stroke-linecap="round" stroke-linejoin="round"/>
<path d="M133.927 105.17V113.4H139.825L133.927 105.17Z" fill="white" stroke="#263238" stroke-linecap="round" stroke-linejoin="round"/>
<path d="M115.797 116.54H136.985" stroke="#263238" stroke-linecap="round" stroke-linejoin="round"/>
<path d="M115.797 124.02H136.985" stroke="#263238" stroke-linecap="round" stroke-linejoin="round"/>
<path d="M115.797 131.49H136.985" stroke="#263238" stroke-linecap="round" stroke-linejoin="round"/>
<path d="M115.797 138.97H136.985" stroke="#263238" stroke-linecap="round" stroke-linejoin="round"/>
<path d="M115.797 146.44H136.985" stroke="#263238" stroke-linecap="round" stroke-linejoin="round"/>
<path d="M62.0891 220.74H71.9499" stroke="#263238" stroke-linecap="round" stroke-linejoin="round"/>
<path d="M51.1904 220.74H60.3078" stroke="#263238" stroke-linecap="round" stroke-linejoin="round"/>
<path d="M68.1348 225.18H71.95" stroke="#263238" stroke-linecap="round" stroke-linejoin="round"/>
<path d="M51.1904 225.18H66.3533" stroke="#263238" stroke-linecap="round" stroke-linejoin="round"/>
<path d="M70.449 229.62H71.9498" stroke="#263238" stroke-linecap="round" stroke-linejoin="round"/>
<path d="M62.2644 229.62H67.9592" stroke="#263238" stroke-linecap="round" stroke-linejoin="round"/>
<path d="M51.1904 229.62H60.6654" stroke="#263238" stroke-linecap="round" stroke-linejoin="round"/>
<path d="M51.1904 234.06H71.9499" stroke="#263238" stroke-linecap="round" stroke-linejoin="round"/>
<path d="M68.4924 238.5H71.95" stroke="#263238" stroke-linecap="round" stroke-linejoin="round"/>
<path d="M56.5767 238.5H64.9366" stroke="#263238" stroke-linecap="round" stroke-linejoin="round"/>
<path d="M51.1904 238.5H54.0869" stroke="#263238" stroke-linecap="round" stroke-linejoin="round"/>
<path d="M60.6655 242.94H71.95" stroke="#263238" stroke-linecap="round" stroke-linejoin="round"/>
<path d="M51.1904 242.94H58.7087" stroke="#263238" stroke-linecap="round" stroke-linejoin="round"/>
<path d="M66.3533 247.38H71.9499" stroke="#263238" stroke-linecap="round" stroke-linejoin="round"/>
<path d="M60.8408 247.38H64.7543" stroke="#263238" stroke-linecap="round" stroke-linejoin="round"/>
<path d="M51.1904 247.38H58.7087" stroke="#263238" stroke-linecap="round" stroke-linejoin="round"/>
<path d="M125.3 280.42H102.598V237.26H120.433L125.3 244.03V280.42Z" fill="#92E3A9" stroke="#263238" stroke-linecap="round" stroke-linejoin="round"/>
<path d="M121.043 243.33V245.09L125.3 244.04L121.043 243.33Z" fill="#263238" stroke="#263238" stroke-linecap="round" stroke-linejoin="round"/>
<path d="M120.433 237.26V244.04H125.3L120.433 237.26Z" fill="white" stroke="#263238" stroke-linecap="round" stroke-linejoin="round"/>
<path d="M105.481 246.63H122.958" stroke="#263238" stroke-linecap="round" stroke-linejoin="round"/>
<path d="M105.481 252.8H122.958" stroke="#263238" stroke-linecap="round" stroke-linejoin="round"/>
<path d="M105.481 258.97H122.958" stroke="#263238" stroke-linecap="round" stroke-linejoin="round"/>
<path d="M105.481 265.13H122.958" stroke="#263238" stroke-linecap="round" stroke-linejoin="round"/>
<path d="M105.481 271.3H122.958" stroke="#263238" stroke-linecap="round" stroke-linejoin="round"/>
<path d="M101.434 162.34H73.9067V110.01H95.5359L101.434 118.22V162.34Z" fill="#92E3A9" stroke="#263238" stroke-linecap="round" stroke-linejoin="round"/>
<path d="M96.2722 117.37V119.51L101.434 118.23L96.2722 117.37Z" fill="#263238" stroke="#263238" stroke-linecap="round" stroke-linejoin="round"/>
<path d="M95.5356 110.01V118.23H101.434L95.5356 110.01Z" fill="white" stroke="#263238" stroke-linecap="round" stroke-linejoin="round"/>
<path d="M77.3992 121.38H98.5935" stroke="#263238" stroke-linecap="round" stroke-linejoin="round"/>
<path d="M77.3992 128.85H98.5935" stroke="#263238" stroke-linecap="round" stroke-linejoin="round"/>
<path d="M77.3992 136.33H98.5935" stroke="#263238" stroke-linecap="round" stroke-linejoin="round"/>
<path d="M77.3992 143.81H98.5935" stroke="#263238" stroke-linecap="round" stroke-linejoin="round"/>
<path d="M77.3992 151.28H98.5935" stroke="#263238" stroke-linecap="round" stroke-linejoin="round"/>
<path d="M160.388 186.28H132.861V133.94H154.49L160.388 142.16V186.28Z" fill="#92E3A9" stroke="#263238" stroke-linecap="round" stroke-linejoin="round"/>
<path d="M155.233 141.3V143.45L160.388 142.17L155.233 141.3Z" fill="#263238" stroke="#263238" stroke-linecap="round" stroke-linejoin="round"/>
<path d="M154.49 133.94V142.17H160.388L154.49 133.94Z" fill="white" stroke="#263238" stroke-linecap="round" stroke-linejoin="round"/>
<path d="M136.36 145.32H157.548" stroke="#263238" stroke-linecap="round" stroke-linejoin="round"/>
<path d="M136.36 152.79H157.548" stroke="#263238" stroke-linecap="round" stroke-linejoin="round"/>
<path d="M136.36 160.27H157.548" stroke="#263238" stroke-linecap="round" stroke-linejoin="round"/>
<path d="M136.36 167.74H157.548" stroke="#263238" stroke-linecap="round" stroke-linejoin="round"/>
<path d="M136.36 175.22H157.548" stroke="#263238" stroke-linecap="round" stroke-linejoin="round"/>
<path d="M197.32 244.28H169.793V191.94H191.422L197.32 200.16V244.28Z" fill="white" stroke="#263238" stroke-linecap="round" stroke-linejoin="round"/>
<path d="M192.158 199.3V201.45L197.32 200.17L192.158 199.3Z" fill="#263238" stroke="#263238" stroke-linecap="round" stroke-linejoin="round"/>
<path d="M191.422 191.94V200.17H197.32L191.422 191.94Z" fill="white" stroke="#263238" stroke-linecap="round" stroke-linejoin="round"/>
<path d="M173.286 203.32H194.48" stroke="#263238" stroke-linecap="round" stroke-linejoin="round"/>
<path d="M173.286 210.79H194.48" stroke="#263238" stroke-linecap="round" stroke-linejoin="round"/>
<path d="M173.286 218.27H194.48" stroke="#263238" stroke-linecap="round" stroke-linejoin="round"/>
<path d="M173.286 225.74H194.48" stroke="#263238" stroke-linecap="round" stroke-linejoin="round"/>
<path d="M173.286 233.22H194.48" stroke="#263238" stroke-linecap="round" stroke-linejoin="round"/>
<path d="M120.503 148.84H90.2126C86.8776 148.84 84.1741 152.695 84.1741 157.45V208.79C84.1741 213.545 86.8776 217.4 90.2126 217.4H120.503C123.838 217.4 126.542 213.545 126.542 208.79V157.45C126.542 152.695 123.838 148.84 120.503 148.84Z" fill="white" stroke="#263238" stroke-linecap="round" stroke-linejoin="round"/>
<path d="M121.829 148.84H88.8661C87.618 148.84 86.421 149.547 85.5385 150.805C84.656 152.064 84.1602 153.77 84.1602 155.55V157H126.521V155.56C126.523 153.782 126.029 152.076 125.15 150.816C124.27 149.556 123.076 148.845 121.829 148.84Z" fill="#263238" stroke="#263238" stroke-linecap="round" stroke-linejoin="round"/>
<path d="M90.2197 168.98H120.482" stroke="#263238" stroke-linecap="round" stroke-linejoin="round"/>
<path d="M90.2197 179.52H120.482" stroke="#263238" stroke-linecap="round" stroke-linejoin="round"/>
<path d="M90.2197 190.07H120.482" stroke="#263238" stroke-linecap="round" stroke-linejoin="round"/>
<path d="M90.2197 200.62H120.482" stroke="#263238" stroke-linecap="round" stroke-linejoin="round"/>
<path d="M115.72 152.68C115.72 152.3 115.641 151.929 115.493 151.613C115.345 151.298 115.135 151.051 114.889 150.906C114.643 150.761 114.372 150.723 114.111 150.797C113.85 150.871 113.61 151.054 113.421 151.322C113.233 151.591 113.105 151.933 113.053 152.305C113.001 152.678 113.028 153.064 113.13 153.415C113.232 153.766 113.404 154.065 113.626 154.276C113.847 154.487 114.107 154.6 114.374 154.6C114.731 154.6 115.073 154.398 115.326 154.038C115.578 153.678 115.72 153.189 115.72 152.68Z" fill="white"/>
<path d="M120.181 152.68C120.181 152.3 120.102 151.929 119.954 151.613C119.806 151.298 119.595 151.051 119.349 150.906C119.103 150.761 118.833 150.723 118.571 150.797C118.31 150.871 118.07 151.054 117.882 151.322C117.694 151.591 117.565 151.933 117.513 152.305C117.461 152.678 117.488 153.064 117.59 153.415C117.692 153.766 117.865 154.065 118.086 154.276C118.307 154.487 118.568 154.6 118.834 154.6C119.191 154.6 119.534 154.398 119.786 154.038C120.039 153.678 120.181 153.189 120.181 152.68Z" fill="white"/>
<path d="M124.606 152.68C124.606 152.3 124.527 151.928 124.379 151.612C124.23 151.296 124.02 151.05 123.773 150.905C123.527 150.76 123.256 150.723 122.994 150.798C122.733 150.873 122.493 151.056 122.305 151.326C122.117 151.595 121.989 151.938 121.938 152.312C121.887 152.685 121.914 153.071 122.017 153.422C122.12 153.772 122.294 154.072 122.516 154.281C122.739 154.491 123 154.602 123.266 154.6C123.443 154.6 123.618 154.55 123.781 154.454C123.944 154.357 124.092 154.215 124.216 154.037C124.341 153.859 124.439 153.647 124.506 153.414C124.573 153.181 124.607 152.932 124.606 152.68Z" fill="white"/>
<path d="M91.4681 204.98H74.1662C70.8312 204.98 68.1277 208.835 68.1277 213.59V243.91C68.1277 248.665 70.8312 252.52 74.1662 252.52H91.4681C94.803 252.52 97.5065 248.665 97.5065 243.91V213.59C97.5065 208.835 94.803 204.98 91.4681 204.98Z" fill="white" stroke="#263238" stroke-linecap="round" stroke-linejoin="round"/>
<path d="M94.2383 205H71.3889C70.524 205 69.6945 205.49 69.0829 206.362C68.4713 207.234 68.1277 208.417 68.1277 209.65V210.65H97.4855V209.65C97.4855 208.42 97.1438 207.24 96.5353 206.369C95.9267 205.498 95.1008 205.005 94.2383 205Z" fill="#263238" stroke="#263238" stroke-linecap="round" stroke-linejoin="round"/>
<path d="M72.3215 218.94H93.3054" stroke="#263238" stroke-linecap="round" stroke-linejoin="round"/>
<path d="M72.3215 226.25H93.3054" stroke="#263238" stroke-linecap="round" stroke-linejoin="round"/>
<path d="M72.3215 233.57H93.3054" stroke="#263238" stroke-linecap="round" stroke-linejoin="round"/>
<path d="M72.3215 240.88H93.3054" stroke="#263238" stroke-linecap="round" stroke-linejoin="round"/>
<path d="M89.0905 208.96C89.6056 208.96 90.0233 208.365 90.0233 207.63C90.0233 206.896 89.6056 206.3 89.0905 206.3C88.5753 206.3 88.1577 206.896 88.1577 207.63C88.1577 208.365 88.5753 208.96 89.0905 208.96Z" fill="white"/>
<path d="M92.1623 208.96C92.6774 208.96 93.095 208.365 93.095 207.63C93.095 206.896 92.6774 206.3 92.1623 206.3C91.6471 206.3 91.2295 206.896 91.2295 207.63C91.2295 208.365 91.6471 208.96 92.1623 208.96Z" fill="white"/>
<path d="M96.1668 207.63C96.1668 207.367 96.1121 207.11 96.0096 206.891C95.9071 206.672 95.7614 206.502 95.591 206.401C95.4206 206.301 95.233 206.274 95.0521 206.326C94.8711 206.377 94.7049 206.504 94.5745 206.69C94.444 206.876 94.3552 207.113 94.3192 207.371C94.2832 207.629 94.3017 207.896 94.3723 208.139C94.4429 208.382 94.5624 208.59 94.7158 208.736C94.8692 208.882 95.0496 208.96 95.234 208.96C95.3565 208.96 95.4778 208.926 95.591 208.859C95.7042 208.792 95.807 208.694 95.8936 208.57C95.9802 208.447 96.0489 208.3 96.0958 208.139C96.1427 207.978 96.1668 207.805 96.1668 207.63Z" fill="white"/>
<path d="M82.6592 266.83H92.5199" stroke="#263238" stroke-linecap="round" stroke-linejoin="round"/>
<path d="M71.7534 266.83H80.8778" stroke="#263238" stroke-linecap="round" stroke-linejoin="round"/>
<path d="M88.7048 271.27H92.5201" stroke="#263238" stroke-linecap="round" stroke-linejoin="round"/>
<path d="M71.7534 271.27H86.9233" stroke="#263238" stroke-linecap="round" stroke-linejoin="round"/>
<path d="M91.0122 275.71H92.5201" stroke="#263238" stroke-linecap="round" stroke-linejoin="round"/>
<path d="M82.8345 275.71H88.5223" stroke="#263238" stroke-linecap="round" stroke-linejoin="round"/>
<path d="M71.7534 275.71H81.2354" stroke="#263238" stroke-linecap="round" stroke-linejoin="round"/>
<path d="M71.7534 280.15H92.5199" stroke="#263238" stroke-linecap="round" stroke-linejoin="round"/>
<path d="M89.0625 284.59H92.5201" stroke="#263238" stroke-linecap="round" stroke-linejoin="round"/>
<path d="M77.1467 284.59H85.4996" stroke="#263238" stroke-linecap="round" stroke-linejoin="round"/>
<path d="M71.7534 284.59H74.6569" stroke="#263238" stroke-linecap="round" stroke-linejoin="round"/>
<path d="M81.2356 289.03H92.52" stroke="#263238" stroke-linecap="round" stroke-linejoin="round"/>
<path d="M71.7534 289.03H79.2787" stroke="#263238" stroke-linecap="round" stroke-linejoin="round"/>
<path d="M86.9233 293.47H92.52" stroke="#263238" stroke-linecap="round" stroke-linejoin="round"/>
<path d="M81.4109 293.47H85.3243" stroke="#263238" stroke-linecap="round" stroke-linejoin="round"/>
<path d="M71.7534 293.47H79.2787" stroke="#263238" stroke-linecap="round" stroke-linejoin="round"/>
<path d="M152.365 260.86H162.233" stroke="#263238" stroke-linecap="round" stroke-linejoin="round"/>
<path d="M141.466 260.86H150.59" stroke="#263238" stroke-linecap="round" stroke-linejoin="round"/>
<path d="M158.41 265.31H162.232" stroke="#263238" stroke-linecap="round" stroke-linejoin="round"/>
<path d="M141.466 265.31H156.636" stroke="#263238" stroke-linecap="round" stroke-linejoin="round"/>
<path d="M160.725 269.75H162.232" stroke="#263238" stroke-linecap="round" stroke-linejoin="round"/>
<path d="M152.547 269.75H158.235" stroke="#263238" stroke-linecap="round" stroke-linejoin="round"/>
<path d="M141.466 269.75H150.948" stroke="#263238" stroke-linecap="round" stroke-linejoin="round"/>
<path d="M141.466 274.19H162.233" stroke="#263238" stroke-linecap="round" stroke-linejoin="round"/>
<path d="M158.768 278.63H162.233" stroke="#263238" stroke-linecap="round" stroke-linejoin="round"/>
<path d="M146.852 278.63H155.212" stroke="#263238" stroke-linecap="round" stroke-linejoin="round"/>
<path d="M141.466 278.63H144.363" stroke="#263238" stroke-linecap="round" stroke-linejoin="round"/>
<path d="M150.948 283.07H162.232" stroke="#263238" stroke-linecap="round" stroke-linejoin="round"/>
<path d="M141.466 283.07H148.991" stroke="#263238" stroke-linecap="round" stroke-linejoin="round"/>
<path d="M156.636 287.51H162.233" stroke="#263238" stroke-linecap="round" stroke-linejoin="round"/>
<path d="M151.124 287.51H155.037" stroke="#263238" stroke-linecap="round" stroke-linejoin="round"/>
<path d="M141.466 287.51H148.991" stroke="#263238" stroke-linecap="round" stroke-linejoin="round"/>
<path d="M175.439 160.14H185.299" stroke="#263238" stroke-linecap="round" stroke-linejoin="round"/>
<path d="M164.533 160.14H173.657" stroke="#263238" stroke-linecap="round" stroke-linejoin="round"/>
<path d="M181.484 164.58H185.299" stroke="#263238" stroke-linecap="round" stroke-linejoin="round"/>
<path d="M164.533 164.58H179.703" stroke="#263238" stroke-linecap="round" stroke-linejoin="round"/>
<path d="M183.792 169.02H185.299" stroke="#263238" stroke-linecap="round" stroke-linejoin="round"/>
<path d="M175.614 169.02H181.302" stroke="#263238" stroke-linecap="round" stroke-linejoin="round"/>
<path d="M164.533 169.02H174.015" stroke="#263238" stroke-linecap="round" stroke-linejoin="round"/>
<path d="M164.533 173.46H185.299" stroke="#263238" stroke-linecap="round" stroke-linejoin="round"/>
<path d="M181.842 177.9H185.299" stroke="#263238" stroke-linecap="round" stroke-linejoin="round"/>
<path d="M169.926 177.9H178.279" stroke="#263238" stroke-linecap="round" stroke-linejoin="round"/>
<path d="M164.533 177.9H167.436" stroke="#263238" stroke-linecap="round" stroke-linejoin="round"/>
<path d="M174.015 182.34H185.299" stroke="#263238" stroke-linecap="round" stroke-linejoin="round"/>
<path d="M164.533 182.34H172.058" stroke="#263238" stroke-linecap="round" stroke-linejoin="round"/>
<path d="M179.703 186.78H185.3" stroke="#263238" stroke-linecap="round" stroke-linejoin="round"/>
<path d="M174.19 186.78H178.104" stroke="#263238" stroke-linecap="round" stroke-linejoin="round"/>
<path d="M164.533 186.78H172.058" stroke="#263238" stroke-linecap="round" stroke-linejoin="round"/>
<path d="M67.251 170.17H77.1117" stroke="#263238" stroke-linecap="round" stroke-linejoin="round"/>
<path d="M56.3452 170.17H65.4696" stroke="#263238" stroke-linecap="round" stroke-linejoin="round"/>
<path d="M73.2964 174.61H77.1116" stroke="#263238" stroke-linecap="round" stroke-linejoin="round"/>
<path d="M56.3452 174.61H71.5151" stroke="#263238" stroke-linecap="round" stroke-linejoin="round"/>
<path d="M75.6108 179.05H77.1117" stroke="#263238" stroke-linecap="round" stroke-linejoin="round"/>
<path d="M67.4263 179.05H73.1211" stroke="#263238" stroke-linecap="round" stroke-linejoin="round"/>
<path d="M56.3452 179.05H65.8272" stroke="#263238" stroke-linecap="round" stroke-linejoin="round"/>
<path d="M56.3452 183.49H77.1117" stroke="#263238" stroke-linecap="round" stroke-linejoin="round"/>
<path d="M73.6541 187.93H77.1116" stroke="#263238" stroke-linecap="round" stroke-linejoin="round"/>
<path d="M61.7385 187.93H70.0984" stroke="#263238" stroke-linecap="round" stroke-linejoin="round"/>
<path d="M56.3452 187.93H59.2487" stroke="#263238" stroke-linecap="round" stroke-linejoin="round"/>
<path d="M65.8271 192.37H77.1116" stroke="#263238" stroke-linecap="round" stroke-linejoin="round"/>
<path d="M56.3452 192.37H63.8705" stroke="#263238" stroke-linecap="round" stroke-linejoin="round"/>
<path d="M71.5151 196.81H77.1118" stroke="#263238" stroke-linecap="round" stroke-linejoin="round"/>
<path d="M66.0027 196.81H69.9161" stroke="#263238" stroke-linecap="round" stroke-linejoin="round"/>
<path d="M56.3452 196.81H63.8705" stroke="#263238" stroke-linecap="round" stroke-linejoin="round"/>
<path d="M128.919 205.35V249.47H156.447V197.14H134.824L128.919 205.35Z" fill="white" stroke="#263238" stroke-linecap="round" stroke-linejoin="round"/>
<path d="M134.081 204.5V206.64L128.919 205.37L134.081 204.5Z" fill="#263238" stroke="#263238" stroke-linecap="round" stroke-linejoin="round"/>
<path d="M134.817 197.14V205.37H128.919L134.817 197.14Z" fill="white" stroke="#263238" stroke-linecap="round" stroke-linejoin="round"/>
<path d="M152.954 208.51H131.76" stroke="#263238" stroke-linecap="round" stroke-linejoin="round"/>
<path d="M152.954 215.98H131.76" stroke="#263238" stroke-linecap="round" stroke-linejoin="round"/>
<path d="M152.954 223.46H131.76" stroke="#263238" stroke-linecap="round" stroke-linejoin="round"/>
<path d="M152.954 230.94H131.76" stroke="#263238" stroke-linecap="round" stroke-linejoin="round"/>
<path d="M156.447 237.26H128.919V249.48H156.447V237.26Z" fill="#263238" stroke="#263238" stroke-linecap="round" stroke-linejoin="round"/>
<path d="M160.697 208.78H141.648V221.86H160.697V208.78Z" fill="#263238" stroke="#263238" stroke-linecap="round" stroke-linejoin="round"/>
<path d="M149.468 210.63C150.443 210.63 150.871 211.45 150.871 212.78V213.84C150.902 214.118 150.888 214.403 150.83 214.672C150.771 214.941 150.671 215.187 150.535 215.392C150.4 215.597 150.233 215.754 150.048 215.853C149.863 215.951 149.665 215.988 149.468 215.96H148.858V219.44H148.157V210.63H149.468ZM149.419 215.08C149.931 215.08 150.177 214.74 150.177 213.9V212.73C150.177 211.93 149.973 211.52 149.475 211.52H148.816V215.08H149.419Z" fill="white"/>
<path d="M152.891 210.63C153.852 210.63 154.293 211.46 154.293 212.82V217.26C154.293 218.61 153.852 219.44 152.891 219.44H151.418V210.63H152.891ZM152.891 218.54C153.382 218.54 153.592 218.1 153.592 217.3V212.77C153.592 211.96 153.354 211.52 152.856 211.52H152.112V218.52L152.891 218.54Z" fill="white"/>
<path d="M157.015 214.73V215.62H155.612V219.44H154.911V210.63H157.365V211.52H155.598V214.73H157.015Z" fill="white"/>
<path opacity="0.2" d="M486.08 246.2L481.227 246.03L481.157 249.97C479.963 250.148 478.786 250.517 477.65 251.07L476.283 247.5L471.997 250.82L473.316 254.27C472.339 255.292 471.443 256.462 470.644 257.76L468.21 255.63L465.685 261.54L468.035 263.54C467.546 265.121 467.181 266.774 466.948 268.47L464.093 268.36L463.974 275.29L466.737 275.39C466.862 277.093 467.121 278.77 467.509 280.39L464.984 282.42L467.305 288.51L469.732 286.63C470.444 288.022 471.263 289.296 472.173 290.43L470.686 293.91L474.831 297.52L476.269 294.17C477.375 294.866 478.532 295.386 479.719 295.72L479.649 299.79L484.509 299.96L484.621 296C485.815 295.822 486.992 295.453 488.128 294.9L489.489 298.47L493.76 295.16L492.434 291.7C493.412 290.684 494.309 289.517 495.106 288.22L497.54 290.34L500.079 284.43L497.722 282.38C498.214 280.801 498.579 279.147 498.809 277.45L501.664 277.56L501.79 270.63L499.027 270.53C498.898 268.828 498.64 267.152 498.255 265.53L500.752 263.59L498.431 257.5L496.004 259.39C495.296 257.991 494.477 256.712 493.563 255.58L495.057 252.1L490.933 248.47L489.496 251.83C488.391 251.124 487.233 250.6 486.045 250.27L486.08 246.2ZM482.573 289.67C480.261 289.588 478.017 288.53 476.125 286.629C474.234 284.729 472.781 282.071 471.949 278.993C471.117 275.915 470.944 272.554 471.452 269.335C471.959 266.116 473.125 263.185 474.801 260.911C476.477 258.637 478.589 257.123 480.869 256.56C483.148 255.997 485.494 256.411 487.609 257.748C489.724 259.086 491.513 261.288 492.75 264.076C493.987 266.864 494.617 270.112 494.559 273.41C494.48 277.832 493.174 282.028 490.926 285.077C488.679 288.125 485.675 289.777 482.573 289.67Z" stroke="black" stroke-linecap="round" stroke-linejoin="round"/>
<path opacity="0.2" d="M472.355 194.44L467.502 194.27L467.432 198.2C466.238 198.385 465.062 198.758 463.925 199.31L462.522 195.74L458.258 199.05L459.577 202.51C458.6 203.528 457.704 204.695 456.905 205.99L454.464 203.87L451.932 209.78L454.282 211.83C453.793 213.408 453.428 215.058 453.195 216.75L450.34 216.65L450.221 223.58L452.977 223.67C453.105 225.389 453.366 227.083 453.756 228.72L451.252 230.66L453.573 236.74L456 234.86C456.712 236.255 457.531 237.533 458.441 238.67L456.954 242.14L461.099 245.76L462.501 242.4C463.607 243.102 464.764 243.622 465.952 243.95L465.882 248.02L470.742 248.2L470.812 244.26C472.006 244.078 473.183 243.706 474.319 243.15L475.679 246.72L479.943 243.41L478.702 240C479.68 238.985 480.577 237.818 481.374 236.52L483.808 238.64L486.347 232.73L483.99 230.68C484.483 229.105 484.848 227.454 485.077 225.76L487.932 225.86L488.058 218.94L485.295 218.84C485.169 217.137 484.907 215.459 484.516 213.84L487.02 211.89L484.698 205.81L482.272 207.69C481.56 206.295 480.741 205.017 479.831 203.88L481.318 200.41L477.173 196.8L475.771 200.15C474.664 199.451 473.507 198.931 472.32 198.6L472.355 194.44ZM468.848 237.9C466.535 237.818 464.291 236.759 462.4 234.858C460.508 232.957 459.055 230.299 458.223 227.22C457.391 224.141 457.219 220.78 457.727 217.561C458.235 214.342 459.402 211.411 461.079 209.137C462.756 206.864 464.868 205.35 467.148 204.789C469.428 204.227 471.774 204.642 473.889 205.981C476.003 207.321 477.792 209.525 479.028 212.314C480.265 215.103 480.893 218.352 480.834 221.65C480.755 226.071 479.448 230.266 477.201 233.313C474.953 236.36 471.949 238.01 468.848 237.9Z" stroke="black" stroke-linecap="round" stroke-linejoin="round"/>
<path opacity="0.2" d="M235.957 130V123H233.193C233.037 121.293 232.748 119.616 232.331 118L234.799 116L232.366 110L229.974 112C229.237 110.634 228.397 109.387 227.471 108.28L228.873 104.76L224.665 101.29L223.263 104.7C222.134 104.042 220.958 103.562 219.756 103.27V99.15H214.896V103.09C213.698 103.312 212.522 103.725 211.389 104.32L209.986 100.8L205.778 104.27L207.181 107.68C206.224 108.734 205.35 109.931 204.572 111.25L202.103 109.25L199.677 115.25L202.061 117.25C201.6 118.859 201.263 120.536 201.058 122.25H198.204V129.18H200.967C201.123 130.887 201.412 132.564 201.83 134.18L199.361 136.18L201.795 142.18L204.186 140.18C204.925 141.544 205.765 142.791 206.69 143.9L205.287 147.42L209.495 150.88L210.898 147.48C212.027 148.138 213.203 148.618 214.405 148.91V153H219.265V149C220.462 148.778 221.639 148.365 222.772 147.77L224.174 151.29L228.382 147.82L226.98 144.41C227.938 143.359 228.812 142.162 229.589 140.84L232.057 142.84L234.491 136.84L232.099 134.84C232.561 133.231 232.897 131.554 233.102 129.84L235.957 130ZM205.393 126.09C205.393 122.791 206.079 119.566 207.364 116.823C208.649 114.08 210.476 111.942 212.614 110.68C214.752 109.417 217.104 109.087 219.373 109.73C221.642 110.374 223.727 111.963 225.363 114.295C226.999 116.628 228.113 119.6 228.564 122.836C229.016 126.071 228.784 129.425 227.899 132.473C227.013 135.521 225.514 138.126 223.59 139.959C221.666 141.792 219.404 142.77 217.091 142.77C215.552 142.77 214.029 142.337 212.608 141.496C211.186 140.656 209.896 139.423 208.809 137.87C207.722 136.317 206.861 134.474 206.275 132.445C205.689 130.417 205.389 128.244 205.393 126.05V126.09Z" stroke="black" stroke-linecap="round" stroke-linejoin="round"/>
<path opacity="0.2" d="M271.9 109.09V102.16H269.144C268.988 100.453 268.699 98.7756 268.281 97.16L270.743 95.16L268.316 89.16L265.925 91.16C265.189 89.7891 264.346 88.5411 263.414 87.44L264.817 83.91L260.609 80.45L259.206 83.85C258.079 83.1877 256.902 82.7113 255.699 82.43V78.29H250.846V82.23C249.648 82.4494 248.472 82.8621 247.339 83.46L245.937 79.94L241.729 83.4L243.131 86.81C242.182 87.8622 241.319 89.0631 240.557 90.39L238.089 88.39L235.655 94.39L238.047 96.39C237.577 97.9951 237.24 99.6732 237.044 101.39H234.175V108.32H236.939C237.096 110.027 237.385 111.704 237.801 113.32L235.332 115.32L237.759 121.32L240.158 119.32C240.893 120.677 241.733 121.911 242.661 123L241.259 126.52L245.467 129.99L246.869 126.58C247.996 127.249 249.172 127.729 250.376 128.01V132.08H255.236V128.14C256.434 127.922 257.611 127.51 258.743 126.91L260.146 130.43L264.354 126.97L262.951 123.56C263.911 122.508 264.786 121.307 265.56 119.98L268.036 121.98L270.462 115.98L268.078 113.98C268.542 112.373 268.876 110.695 269.074 108.98L271.9 109.09ZM241.343 105.18C241.343 101.881 242.029 98.6561 243.314 95.9131C244.6 93.1701 246.427 91.0321 248.564 89.7697C250.702 88.5072 253.054 88.1769 255.323 88.8205C257.593 89.4641 259.677 91.0527 261.313 93.3854C262.949 95.7182 264.063 98.6903 264.515 101.926C264.966 105.161 264.734 108.515 263.849 111.563C262.964 114.611 261.464 117.216 259.54 119.049C257.617 120.882 255.355 121.86 253.041 121.86C251.505 121.861 249.983 121.431 248.563 120.593C247.144 119.755 245.854 118.527 244.767 116.977C243.681 115.428 242.819 113.589 242.232 111.565C241.644 109.54 241.342 107.371 241.343 105.18Z" stroke="black" stroke-linecap="round" stroke-linejoin="round"/>
<g opacity="0.2">
<path d="M127.096 330.81C133.952 330.81 139.509 322.885 139.509 313.11C139.509 303.334 133.952 295.41 127.096 295.41C120.24 295.41 114.682 303.334 114.682 313.11C114.682 322.885 120.24 330.81 127.096 330.81Z" stroke="black" stroke-linecap="round" stroke-linejoin="round"/>
<path d="M136.413 315.596C137.381 308.257 133.993 301.19 128.846 299.81C123.7 298.43 118.743 303.26 117.775 310.599C116.808 317.937 120.195 325.004 125.342 326.384C130.488 327.764 135.445 322.934 136.413 315.596Z" stroke="black" stroke-linecap="round" stroke-linejoin="round"/>
<path d="M145.274 325.25L138.577 320.07L137.461 323L144.166 328.17C144.019 328.559 143.986 329.015 144.074 329.438C144.162 329.862 144.364 330.218 144.636 330.43L157.407 340.29C157.68 340.5 158 340.547 158.297 340.422C158.594 340.296 158.844 340.008 158.992 339.62L160.107 336.69C160.252 336.299 160.283 335.843 160.194 335.42C160.105 334.997 159.902 334.642 159.631 334.43L146.859 324.57C146.585 324.363 146.266 324.319 145.969 324.446C145.672 324.574 145.423 324.862 145.274 325.25Z" stroke="black" stroke-miterlimit="10"/>
</g>
<path opacity="0.2" d="M335.939 110C335.94 113.826 335.146 117.566 333.656 120.747C332.167 123.929 330.049 126.41 327.571 127.875C325.092 129.34 322.365 129.725 319.733 128.98C317.102 128.234 314.684 126.393 312.787 123.689C310.889 120.985 309.596 117.539 309.072 113.787C308.548 110.035 308.817 106.146 309.843 102.611C310.87 99.0767 312.608 96.0556 314.839 93.9301C317.069 91.8045 319.692 90.67 322.375 90.67" stroke="black" stroke-linecap="round" stroke-linejoin="round"/>
<path opacity="0.2" d="M335.939 110H322.375V90.67C325.971 90.67 329.42 92.7062 331.964 96.331C334.507 99.9558 335.937 104.872 335.939 110Z" stroke="black" stroke-linecap="round" stroke-linejoin="round"/>
<path opacity="0.2" d="M334.536 96.67L341.549 88.67H351.368" stroke="black" stroke-linecap="round" stroke-linejoin="round"/>
<path opacity="0.2" d="M356.979 88.67H370.066" stroke="black" stroke-linecap="round" stroke-linejoin="round"/>
<path opacity="0.2" d="M356.979 94.67H370.066" stroke="black" stroke-linecap="round" stroke-linejoin="round"/>
<path opacity="0.2" d="M356.979 100.67H370.066" stroke="black" stroke-linecap="round" stroke-linejoin="round"/>
<path opacity="0.2" d="M356.979 106.67H370.066" stroke="black" stroke-linecap="round" stroke-linejoin="round"/>
<g opacity="0.2">
<path d="M185.306 316.11L184.801 312.59H175.923L176.428 316.11L176.883 319.25L179.899 340.25H203.604L200.14 316.11H185.306Z" stroke="black" stroke-linecap="round" stroke-linejoin="round"/>
<path d="M203.604 340.25L207.974 317.74H200.504" stroke="black" stroke-linecap="round" stroke-linejoin="round"/>
</g>
<g opacity="0.2">
<path d="M218.592 316.11L218.08 312.59H209.208L209.713 316.11L210.169 319.25L213.184 340.25H236.889L233.418 316.11H218.592Z" stroke="black" stroke-linecap="round" stroke-linejoin="round"/>
<path d="M236.889 340.25L241.259 317.74H233.79" stroke="black" stroke-linecap="round" stroke-linejoin="round"/>
</g>
<path d="M268.933 259.93C269.101 259.927 269.268 259.972 269.424 260.062C269.58 260.152 269.722 260.284 269.842 260.452C269.962 260.621 270.058 260.821 270.123 261.042C270.189 261.263 270.223 261.5 270.224 261.74V273.18C270.2 273.646 270.053 274.082 269.813 274.399C269.573 274.717 269.257 274.894 268.93 274.894C268.602 274.894 268.287 274.717 268.047 274.399C267.807 274.082 267.66 273.646 267.636 273.18V261.74C267.638 261.5 267.673 261.262 267.739 261.041C267.805 260.82 267.901 260.62 268.022 260.452C268.142 260.284 268.285 260.151 268.441 260.062C268.597 259.972 268.765 259.927 268.933 259.93Z" fill="#263238"/>
<path d="M265.805 259.93C265.974 259.927 266.141 259.972 266.298 260.062C266.454 260.151 266.597 260.284 266.717 260.452C266.837 260.62 266.934 260.82 267 261.041C267.066 261.262 267.101 261.5 267.103 261.74V273.18C267.079 273.646 266.932 274.082 266.692 274.399C266.452 274.717 266.136 274.894 265.809 274.894C265.481 274.894 265.166 274.717 264.926 274.399C264.686 274.082 264.539 273.646 264.515 273.18V261.74C264.519 261.256 264.656 260.795 264.898 260.455C265.14 260.116 265.466 259.927 265.805 259.93Z" fill="#263238"/>
<path d="M262.726 259.93C262.895 259.927 263.062 259.972 263.218 260.062C263.374 260.152 263.516 260.284 263.636 260.452C263.756 260.621 263.851 260.821 263.916 261.042C263.982 261.263 264.016 261.5 264.017 261.74V273.18C264.016 273.42 263.982 273.657 263.916 273.878C263.851 274.099 263.756 274.299 263.636 274.468C263.516 274.636 263.374 274.769 263.218 274.858C263.062 274.948 262.895 274.993 262.726 274.99C262.558 274.993 262.391 274.948 262.235 274.858C262.079 274.769 261.937 274.636 261.817 274.468C261.697 274.299 261.602 274.099 261.537 273.878C261.471 273.657 261.437 273.42 261.436 273.18V261.74C261.437 261.5 261.471 261.263 261.537 261.042C261.602 260.821 261.697 260.621 261.817 260.452C261.937 260.284 262.079 260.152 262.235 260.062C262.391 259.972 262.558 259.927 262.726 259.93Z" fill="#263238"/>
<path d="M259.62 259.93C259.788 259.927 259.955 259.972 260.112 260.062C260.268 260.151 260.411 260.284 260.531 260.452C260.652 260.62 260.748 260.82 260.814 261.041C260.88 261.262 260.915 261.5 260.917 261.74V273.18C260.893 273.646 260.746 274.082 260.506 274.399C260.266 274.717 259.951 274.894 259.623 274.894C259.295 274.894 258.98 274.717 258.74 274.399C258.5 274.082 258.353 273.646 258.329 273.18V261.74C258.333 261.256 258.471 260.795 258.712 260.455C258.954 260.116 259.28 259.927 259.62 259.93Z" fill="#263238"/>
<path d="M256.52 259.93C256.688 259.927 256.855 259.972 257.011 260.062C257.167 260.152 257.309 260.284 257.429 260.452C257.549 260.621 257.644 260.821 257.71 261.042C257.775 261.263 257.809 261.5 257.81 261.74V273.18C257.81 273.668 257.674 274.136 257.432 274.481C257.19 274.826 256.862 275.02 256.52 275.02C256.177 275.02 255.849 274.826 255.607 274.481C255.365 274.136 255.229 273.668 255.229 273.18V261.74C255.23 261.5 255.264 261.263 255.33 261.042C255.395 260.821 255.491 260.621 255.611 260.452C255.73 260.284 255.873 260.152 256.029 260.062C256.185 259.972 256.351 259.927 256.52 259.93Z" fill="#263238"/>
<path d="M253.413 259.93C253.581 259.927 253.749 259.972 253.905 260.062C254.061 260.151 254.204 260.284 254.324 260.452C254.445 260.62 254.541 260.82 254.607 261.041C254.673 261.262 254.708 261.5 254.71 261.74V273.18C254.708 273.42 254.673 273.658 254.607 273.879C254.541 274.1 254.445 274.3 254.324 274.468C254.204 274.636 254.061 274.769 253.905 274.858C253.749 274.948 253.581 274.993 253.413 274.99C253.074 274.993 252.747 274.804 252.506 274.465C252.264 274.126 252.126 273.664 252.122 273.18V261.74C252.126 261.256 252.264 260.795 252.506 260.455C252.747 260.116 253.074 259.927 253.413 259.93Z" fill="#263238"/>
<path d="M250.313 259.93C250.481 259.927 250.648 259.972 250.804 260.062C250.96 260.152 251.102 260.284 251.222 260.452C251.342 260.621 251.437 260.821 251.503 261.042C251.568 261.263 251.602 261.5 251.603 261.74V273.18C251.603 273.668 251.467 274.136 251.225 274.481C250.983 274.826 250.655 275.02 250.313 275.02C249.971 275.02 249.642 274.826 249.4 274.481C249.158 274.136 249.022 273.668 249.022 273.18V261.74C249.023 261.5 249.058 261.263 249.123 261.042C249.188 260.821 249.284 260.621 249.404 260.452C249.524 260.284 249.666 260.152 249.822 260.062C249.978 259.972 250.145 259.927 250.313 259.93Z" fill="#263238"/>
<path d="M247.213 259.93C247.552 259.927 247.878 260.116 248.12 260.455C248.362 260.795 248.5 261.256 248.503 261.74V273.18C248.479 273.646 248.333 274.082 248.093 274.399C247.853 274.717 247.537 274.894 247.209 274.894C246.882 274.894 246.566 274.717 246.326 274.399C246.086 274.082 245.94 273.646 245.916 273.18V261.74C245.917 261.5 245.952 261.262 246.019 261.041C246.085 260.82 246.181 260.62 246.301 260.452C246.422 260.284 246.564 260.151 246.721 260.062C246.877 259.972 247.044 259.927 247.213 259.93Z" fill="#263238"/>
<path d="M244.106 259.93C244.274 259.927 244.441 259.972 244.597 260.062C244.753 260.152 244.895 260.284 245.015 260.452C245.135 260.621 245.231 260.821 245.296 261.042C245.362 261.263 245.396 261.5 245.397 261.74V273.18C245.397 273.668 245.261 274.136 245.019 274.481C244.777 274.826 244.448 275.02 244.106 275.02C243.764 275.02 243.436 274.826 243.194 274.481C242.952 274.136 242.816 273.668 242.816 273.18V261.74C242.817 261.5 242.851 261.263 242.916 261.042C242.982 260.821 243.077 260.621 243.197 260.452C243.317 260.284 243.459 260.152 243.615 260.062C243.771 259.972 243.938 259.927 244.106 259.93Z" fill="#263238"/>
<path d="M241.006 259.93C241.345 259.927 241.672 260.116 241.913 260.455C242.155 260.795 242.293 261.256 242.297 261.74V273.18C242.273 273.646 242.126 274.082 241.886 274.399C241.646 274.717 241.33 274.894 241.003 274.894C240.675 274.894 240.36 274.717 240.12 274.399C239.88 274.082 239.733 273.646 239.709 273.18V261.74C239.711 261.5 239.746 261.262 239.812 261.041C239.878 260.82 239.974 260.62 240.095 260.452C240.215 260.284 240.358 260.151 240.514 260.062C240.67 259.972 240.838 259.927 241.006 259.93Z" fill="#263238"/>
<path d="M237.899 259.93C238.068 259.927 238.234 259.972 238.39 260.062C238.547 260.152 238.689 260.284 238.809 260.452C238.928 260.621 239.024 260.821 239.089 261.042C239.155 261.263 239.189 261.5 239.19 261.74V273.18C239.19 273.668 239.054 274.136 238.812 274.481C238.57 274.826 238.242 275.02 237.899 275.02C237.557 275.02 237.229 274.826 236.987 274.481C236.745 274.136 236.609 273.668 236.609 273.18V261.74C236.61 261.5 236.644 261.263 236.709 261.042C236.775 260.821 236.87 260.621 236.99 260.452C237.11 260.284 237.252 260.152 237.408 260.062C237.564 259.972 237.731 259.927 237.899 259.93Z" fill="#263238"/>
<path d="M235.683 259.93C235.65 260.103 235.65 260.286 235.683 260.46C235.802 260.627 235.897 260.826 235.962 261.046C236.027 261.266 236.061 261.502 236.062 261.74V273.18C236.061 273.418 236.027 273.654 235.962 273.874C235.897 274.093 235.802 274.293 235.683 274.46C235.123 274.838 234.507 275.02 233.888 274.99C232.429 274.99 231.503 274.18 231.819 273.18L235.129 261.74C235.345 261.157 235.53 260.552 235.683 259.93Z" fill="#263238"/>
<path d="M235.683 259.93C235.435 260.51 235.217 261.115 235.031 261.74L230.942 273.18C230.612 274.18 229.168 274.99 227.709 274.99C226.25 274.99 225.654 274.18 226.39 273.18L234.414 261.74L235.332 260.46C235.564 260.13 235.683 259.93 235.683 259.93Z" fill="#263238"/>
<path d="M235.683 259.93C235.552 260.081 235.428 260.245 235.311 260.42L234.414 261.74L226.391 273.18C225.689 274.18 225.121 273.35 225.121 271.18C225.121 269.01 225.689 266.96 226.391 266.51L234.414 260.79C234.852 260.55 235.276 260.262 235.683 259.93Z" fill="#263238"/>
<path d="M235.683 259.93C235.249 260.126 234.824 260.367 234.414 260.65L226.391 265.22C225.689 265.66 225.121 264.3 225.121 262.17C225.12 261.677 225.153 261.184 225.219 260.7C225.25 260.483 225.29 260.27 225.339 260.06C225.35 259.983 225.374 259.911 225.409 259.85L225.493 259.72C225.609 259.547 225.748 259.409 225.902 259.315C226.057 259.22 226.223 259.171 226.391 259.17H234.414C234.582 259.171 234.748 259.22 234.902 259.315C235.056 259.409 235.195 259.547 235.311 259.72L235.389 259.85C235.389 259.91 235.438 259.95 235.466 259.94H235.683V259.93Z" fill="#263238"/>
<path d="M235.683 256.53C235.687 256.772 235.657 257.014 235.595 257.24C235.533 257.465 235.441 257.672 235.323 257.846C235.205 258.021 235.064 258.161 234.908 258.258C234.752 258.354 234.584 258.406 234.414 258.41H226.391C226.057 258.375 225.744 258.162 225.516 257.812C225.288 257.462 225.161 257.002 225.161 256.525C225.161 256.048 225.288 255.588 225.516 255.238C225.744 254.888 226.057 254.675 226.391 254.64H234.414C234.584 254.645 234.752 254.698 234.908 254.796C235.064 254.894 235.205 255.035 235.323 255.21C235.441 255.386 235.533 255.592 235.595 255.819C235.657 256.045 235.687 256.287 235.683 256.53Z" fill="#263238"/>
<path d="M235.683 252C235.687 252.243 235.657 252.485 235.595 252.711C235.533 252.938 235.441 253.144 235.323 253.32C235.205 253.496 235.064 253.636 234.908 253.734C234.752 253.832 234.584 253.885 234.414 253.89H226.391C226.057 253.855 225.744 253.642 225.516 253.292C225.288 252.942 225.161 252.482 225.161 252.005C225.161 251.528 225.288 251.068 225.516 250.718C225.744 250.368 226.057 250.155 226.391 250.12H234.414C234.584 250.124 234.752 250.176 234.908 250.272C235.064 250.369 235.205 250.509 235.323 250.684C235.441 250.858 235.533 251.065 235.595 251.29C235.657 251.516 235.687 251.758 235.683 252Z" fill="#263238"/>
<path d="M235.683 247.48C235.687 247.723 235.657 247.965 235.595 248.191C235.533 248.418 235.441 248.624 235.323 248.8C235.205 248.975 235.064 249.116 234.908 249.214C234.752 249.312 234.584 249.365 234.414 249.37H226.391C226.057 249.335 225.744 249.122 225.516 248.772C225.288 248.422 225.161 247.962 225.161 247.485C225.161 247.007 225.288 246.548 225.516 246.198C225.744 245.848 226.057 245.635 226.391 245.6H234.414C234.584 245.604 234.752 245.656 234.908 245.752C235.064 245.849 235.205 245.989 235.323 246.164C235.441 246.338 235.533 246.545 235.595 246.77C235.657 246.996 235.687 247.237 235.683 247.48Z" fill="#263238"/>
<path d="M235.683 243C235.687 243.242 235.657 243.484 235.595 243.71C235.533 243.935 235.441 244.142 235.323 244.316C235.205 244.491 235.064 244.631 234.908 244.728C234.752 244.824 234.584 244.876 234.414 244.88H226.391C226.057 244.845 225.744 244.632 225.516 244.282C225.288 243.932 225.161 243.472 225.161 242.995C225.161 242.518 225.288 242.058 225.516 241.708C225.744 241.358 226.057 241.145 226.391 241.11H234.414C234.584 241.115 234.752 241.168 234.908 241.266C235.064 241.364 235.205 241.504 235.323 241.68C235.441 241.856 235.533 242.062 235.595 242.289C235.657 242.515 235.687 242.757 235.683 243Z" fill="#263238"/>
<path d="M235.683 238.43C235.687 238.673 235.657 238.915 235.595 239.141C235.533 239.368 235.441 239.575 235.323 239.75C235.205 239.926 235.064 240.066 234.908 240.164C234.752 240.262 234.584 240.315 234.414 240.32H226.391C226.057 240.285 225.744 240.072 225.516 239.722C225.288 239.372 225.161 238.913 225.161 238.435C225.161 237.958 225.288 237.498 225.516 237.148C225.744 236.798 226.057 236.585 226.391 236.55H234.414C234.584 236.554 234.752 236.606 234.908 236.702C235.064 236.799 235.205 236.939 235.323 237.114C235.441 237.288 235.533 237.495 235.595 237.721C235.657 237.946 235.687 238.188 235.683 238.43Z" fill="#263238"/>
<path d="M235.683 233.91C235.687 234.152 235.657 234.394 235.595 234.62C235.533 234.845 235.441 235.052 235.323 235.226C235.205 235.401 235.064 235.541 234.908 235.638C234.752 235.734 234.584 235.786 234.414 235.79H226.391C226.057 235.755 225.744 235.542 225.516 235.192C225.288 234.842 225.161 234.382 225.161 233.905C225.161 233.428 225.288 232.968 225.516 232.618C225.744 232.268 226.057 232.055 226.391 232.02H234.414C234.584 232.025 234.752 232.078 234.908 232.176C235.064 232.274 235.205 232.415 235.323 232.59C235.441 232.766 235.533 232.972 235.595 233.199C235.657 233.425 235.687 233.667 235.683 233.91Z" fill="#263238"/>
<path d="M235.683 228.27C235.682 228.764 235.647 229.256 235.578 229.74C235.55 229.956 235.512 230.17 235.466 230.38C235.453 230.455 235.426 230.524 235.388 230.58C235.367 230.631 235.341 230.678 235.311 230.72C235.195 230.893 235.056 231.031 234.902 231.125C234.747 231.22 234.581 231.269 234.414 231.27H226.39C226.222 231.269 226.056 231.22 225.902 231.125C225.748 231.031 225.609 230.893 225.493 230.72L225.408 230.58C225.408 230.53 225.359 230.49 225.338 230.5H225.128C225.565 230.315 225.99 230.074 226.397 229.78L234.421 225.22C235.115 224.77 235.683 226.14 235.683 228.27Z" fill="#263238"/>
<path d="M235.683 219.22C235.683 221.35 235.115 223.44 234.414 223.89L226.391 229.6C225.955 229.863 225.531 230.163 225.121 230.5C225.121 230.5 225.261 230.34 225.493 230.01L226.391 228.7L234.414 217.26C235.115 216.21 235.683 217.09 235.683 219.22Z" fill="#263238"/>
<path d="M233.179 215.45C234.582 215.45 235.143 216.26 234.414 217.26L226.391 228.7L225.465 230C225.343 230.164 225.229 230.338 225.121 230.52C225.372 229.942 225.594 229.341 225.787 228.72L229.995 217.28C230.353 216.26 231.777 215.45 233.179 215.45Z" fill="#263238"/>
<path d="M227.19 215.45C228.592 215.45 229.469 216.26 229.14 217.26L225.633 228.7C225.423 229.282 225.24 229.884 225.086 230.5C225.096 230.327 225.096 230.153 225.086 229.98V229.71C225.039 229.612 224.999 229.508 224.967 229.4C224.901 229.179 224.868 228.94 224.868 228.7V217.26C224.868 217.016 224.902 216.775 224.967 216.55C224.998 216.444 225.038 216.343 225.086 216.25C225.176 216.144 225.275 216.054 225.38 215.98C225.946 215.601 226.566 215.42 227.19 215.45Z" fill="#263238"/>
<path d="M223.157 215.45C223.491 215.455 223.809 215.649 224.043 215.988C224.277 216.327 224.408 216.784 224.406 217.26V228.7C224.406 229.172 224.274 229.625 224.04 229.959C223.806 230.292 223.488 230.48 223.157 230.48C222.826 230.48 222.509 230.292 222.275 229.959C222.04 229.625 221.909 229.172 221.909 228.7V217.26C221.907 216.784 222.037 216.327 222.271 215.988C222.505 215.649 222.824 215.455 223.157 215.45Z" fill="#263238"/>
<path d="M220.163 215.45C220.496 215.455 220.815 215.649 221.049 215.988C221.282 216.327 221.413 216.784 221.411 217.26V228.7C221.411 229.172 221.279 229.625 221.045 229.959C220.811 230.292 220.494 230.48 220.163 230.48C219.831 230.48 219.514 230.292 219.28 229.959C219.046 229.625 218.914 229.172 218.914 228.7V217.26C218.912 217.024 218.943 216.79 219.005 216.571C219.067 216.352 219.158 216.153 219.274 215.985C219.39 215.817 219.529 215.683 219.681 215.591C219.833 215.499 219.997 215.451 220.163 215.45Z" fill="#263238"/>
<path d="M217.168 215.45C217.502 215.455 217.82 215.649 218.054 215.988C218.288 216.327 218.418 216.784 218.416 217.26V228.7C218.417 228.935 218.386 229.168 218.324 229.386C218.261 229.603 218.17 229.801 218.054 229.969C217.938 230.136 217.8 230.269 217.648 230.36C217.496 230.451 217.333 230.499 217.168 230.5C217.003 230.5 216.839 230.453 216.686 230.363C216.533 230.272 216.395 230.139 216.278 229.972C216.161 229.805 216.069 229.606 216.006 229.388C215.943 229.17 215.912 228.936 215.913 228.7V217.26C215.912 217.024 215.943 216.789 216.006 216.57C216.069 216.351 216.161 216.152 216.277 215.984C216.394 215.816 216.533 215.682 216.685 215.591C216.838 215.499 217.002 215.451 217.168 215.45Z" fill="#263238"/>
<path d="M215.043 237.47V208.74C217.121 208.74 219.113 209.917 220.582 212.012C222.052 214.106 222.877 216.948 222.877 219.91V226.3C222.877 227.767 222.674 229.219 222.281 230.575C221.887 231.93 221.31 233.161 220.582 234.198C219.855 235.236 218.991 236.058 218.041 236.62C217.09 237.181 216.072 237.47 215.043 237.47Z" fill="white" stroke="#263238" stroke-linecap="round" stroke-linejoin="round"/>
<path d="M194.894 265.18L215.849 250.43C216.839 249.734 217.672 248.657 218.254 247.321C218.837 245.985 219.146 244.443 219.146 242.87V203.87C219.146 202.297 218.837 200.755 218.254 199.419C217.672 198.083 216.839 197.006 215.849 196.31L194.894 181.56V265.18Z" fill="white" stroke="#263238" stroke-linecap="round" stroke-linejoin="round"/>
<path d="M234.077 281.59H249.563" stroke="#263238" stroke-linecap="round" stroke-linejoin="round"/>
<path d="M230.984 285.46H237.177" stroke="#263238" stroke-linecap="round" stroke-linejoin="round"/>
<path d="M240.656 224.43V245.96" stroke="#263238" stroke-linecap="round" stroke-linejoin="round"/>
<path d="M237.948 232.16V218.92" stroke="#263238" stroke-linecap="round" stroke-linejoin="round"/>
<path d="M220.142 259.2V270.24" stroke="#263238" stroke-linecap="round" stroke-linejoin="round"/>
<path d="M222.856 255.34V265.28" stroke="#263238" stroke-linecap="round" stroke-linejoin="round"/>
<path d="M356.025 181.51H360.051" stroke="#263238" stroke-width="9" stroke-linecap="round" stroke-linejoin="round"/>
<path d="M325.131 250.46H341.248V181.51H356.025" stroke="#263238" stroke-width="4" stroke-linecap="round" stroke-linejoin="round"/>
<path d="M356.025 320.69H360.948" stroke="#263238" stroke-width="9" stroke-linecap="round" stroke-linejoin="round"/>
<path d="M321.996 271.53H340.799V320.69H356.025" stroke="#263238" stroke-width="4" stroke-linecap="round" stroke-linejoin="round"/>
<path d="M263.954 185.19H259.935V237.1" stroke="#263238" stroke-width="4" stroke-linecap="round" stroke-linejoin="round"/>
<path d="M267.082 185.19H263.954" stroke="#263238" stroke-width="7" stroke-linecap="round" stroke-linejoin="round"/>
<path d="M303.011 204.67H284.643V232.73H303.011V204.67Z" fill="#263238" stroke="#263238" stroke-linecap="round" stroke-linejoin="round"/>
<path d="M319.941 165.86H301.903V191.12H319.941V165.86Z" fill="#263238" stroke="#263238" stroke-linecap="round" stroke-linejoin="round"/>
<path d="M312.732 191.11H320.72C318.818 198.301 315.517 204.57 311.205 209.182C306.893 213.793 301.747 216.555 296.373 217.144C290.999 217.733 285.618 216.124 280.862 212.506C276.106 208.889 272.173 203.413 269.522 196.72C267.024 190.455 265.759 183.345 265.861 176.14C265.861 175.51 265.861 174.87 265.897 174.24C266.338 164.555 269.207 155.418 273.981 148.499C278.754 141.579 285.114 137.338 291.898 136.548C298.683 135.759 305.44 138.474 310.937 144.198C316.434 149.923 320.305 158.275 321.842 167.73H312.725C311.648 167.73 310.582 168.032 309.587 168.62C308.592 169.207 307.689 170.068 306.927 171.154C306.166 172.239 305.562 173.528 305.15 174.946C304.738 176.365 304.526 177.885 304.526 179.42C304.526 180.955 304.738 182.475 305.15 183.894C305.562 185.312 306.166 186.601 306.927 187.686C307.689 188.772 308.592 189.633 309.587 190.22C310.582 190.808 311.648 191.11 312.725 191.11H312.732Z" fill="white" stroke="#263238" stroke-linecap="round" stroke-linejoin="round"/>
<path d="M296.327 178.48H304.533" stroke="#263238" stroke-linecap="round" stroke-linejoin="round"/>
<path d="M289.77 138.26V215.43" stroke="#263238" stroke-linecap="round" stroke-linejoin="round"/>
<path d="M289.111 188.77C293.096 188.77 296.327 184.163 296.327 178.48C296.327 172.797 293.096 168.19 289.111 168.19C285.125 168.19 281.894 172.797 281.894 178.48C281.894 184.163 285.125 188.77 289.111 188.77Z" fill="#263238" stroke="#263238" stroke-linecap="round" stroke-linejoin="round"/>
<path d="M292.723 178.48C292.723 177.461 292.511 176.465 292.113 175.618C291.716 174.771 291.152 174.111 290.491 173.721C289.831 173.332 289.104 173.23 288.403 173.43C287.703 173.629 287.059 174.121 286.554 174.842C286.049 175.563 285.706 176.482 285.567 177.481C285.429 178.481 285.501 179.517 285.776 180.458C286.05 181.399 286.514 182.202 287.109 182.767C287.704 183.332 288.403 183.632 289.118 183.63C289.592 183.63 290.061 183.497 290.499 183.238C290.937 182.979 291.334 182.599 291.669 182.121C292.004 181.643 292.269 181.075 292.45 180.45C292.631 179.825 292.723 179.156 292.723 178.48Z" fill="white" stroke="#263238" stroke-linecap="round" stroke-linejoin="round"/>
<path d="M313.384 183.62C315.375 183.62 316.989 181.319 316.989 178.48C316.989 175.641 315.375 173.34 313.384 173.34C311.393 173.34 309.779 175.641 309.779 178.48C309.779 181.319 311.393 183.62 313.384 183.62Z" fill="#92E3A9"/>
<path d="M275.007 176.14V196.72H269.501C267.003 190.455 265.738 183.345 265.84 176.14H275.007Z" fill="#263238" stroke="#263238" stroke-linecap="round" stroke-linejoin="round"/>
<path d="M293.831 313.5V374.25" stroke="#263238" stroke-width="3" stroke-linecap="round" stroke-linejoin="round"/>
<path d="M293.831 355.51C299.881 355.51 304.785 348.517 304.785 339.89C304.785 331.263 299.881 324.27 293.831 324.27C287.78 324.27 282.876 331.263 282.876 339.89C282.876 348.517 287.78 355.51 293.831 355.51Z" fill="white" stroke="#263238" stroke-linecap="round" stroke-linejoin="round"/>
<path d="M293.831 378.63C296.736 378.63 299.091 375.272 299.091 371.13C299.091 366.988 296.736 363.63 293.831 363.63C290.926 363.63 288.571 366.988 288.571 371.13C288.571 375.272 290.926 378.63 293.831 378.63Z" fill="white" stroke="#263238" stroke-linecap="round" stroke-linejoin="round"/>
<path d="M333.07 243.28L320.972 294.69C317.599 309.01 307.373 318.79 295.78 318.79H291.874C280.281 318.79 270.055 309.01 266.689 294.69L254.584 243.28C252.746 235.47 257.277 227.59 263.596 227.59H324.058C330.384 227.59 334.908 235.47 333.07 243.28Z" fill="white" stroke="#263238" stroke-linecap="round" stroke-linejoin="round"/>
<path d="M328.014 248.1C326.548 247.531 324.986 247.779 323.644 248.793C322.302 249.807 321.282 251.511 320.79 253.56L311.013 294.28C310.537 296.264 310.592 298.429 311.166 300.36C311.741 302.29 312.795 303.85 314.127 304.74L316.231 306.17C318.335 302.84 319.941 298.934 320.951 294.69L331.583 249.5L328.014 248.1Z" fill="white" stroke="#263238" stroke-linecap="round" stroke-linejoin="round"/>
<path d="M266.57 253.56C266.078 251.511 265.057 249.807 263.715 248.793C262.374 247.779 260.811 247.531 259.346 248.1L256.022 249.39L266.689 294.69C267.68 298.876 269.255 302.733 271.318 306.03L273.232 304.74C274.559 303.843 275.608 302.281 276.179 300.351C276.749 298.422 276.801 296.261 276.325 294.28L266.57 253.56Z" fill="white" stroke="#263238" stroke-linecap="round" stroke-linejoin="round"/>
<path d="M312.795 227.59C312.651 229.489 312.02 231.245 311.023 232.521C310.026 233.796 308.734 234.501 307.395 234.5H279.341C278.002 234.501 276.709 233.796 275.712 232.521C274.715 231.245 274.085 229.489 273.941 227.59H312.795Z" fill="white" stroke="#263238" stroke-linecap="round" stroke-linejoin="round"/>
<path d="M293.859 318.5V234.5" stroke="#263238" stroke-linecap="round" stroke-linejoin="round"/>
<path d="M309.793 244.5H277.868C275.908 244.5 274.32 246.765 274.32 249.56V270.3C274.32 273.095 275.908 275.36 277.868 275.36H309.793C311.753 275.36 313.342 273.095 313.342 270.3V249.56C313.342 246.765 311.753 244.5 309.793 244.5Z" fill="#92E3A9" stroke="#263238" stroke-linecap="round" stroke-linejoin="round"/>
<path d="M288.816 248.42C289.791 248.42 290.219 249.26 290.219 250.64V255.14C290.219 256.51 289.777 257.35 288.816 257.35H287.343V248.42H288.816ZM288.816 256.42C289.321 256.42 289.559 255.97 289.559 255.15V250.56C289.559 249.74 289.321 249.3 288.809 249.3H288.059V256.42H288.816Z" fill="#263238"/>
<path d="M291.586 255.55L291.341 257.35H290.703L291.902 248.42H292.912L294.111 257.35H293.41L293.171 255.55H291.586ZM291.678 254.7H293.08L292.379 249.54L291.678 254.7Z" fill="#263238"/>
<path d="M295.219 257.35V249.35H294.062V248.44H297.064V249.35H295.907V257.35H295.219Z" fill="#263238"/>
<path d="M297.905 255.55L297.66 257.35H297.015L298.214 248.42H299.231L300.43 257.35H299.729L299.49 255.55H297.905ZM297.997 254.7H299.399L298.698 249.54L297.997 254.7Z" fill="#263238"/>
<path d="M279.986 264.66V265.55H278.429V268.73H280.309V269.63H277.728V260.7H280.309V261.61H278.429V264.66H279.986Z" fill="#263238"/>
<path d="M282.532 265.78L281.487 269.63H280.828L282.09 265.03L280.905 260.7H281.606L282.567 264.27L283.542 260.7H284.201L283.051 265L284.306 269.6H283.57L282.532 265.78Z" fill="#263238"/>
<path d="M285.772 269.63V261.63H284.622V260.72H287.617V261.63H286.467V269.63H285.772Z" fill="#263238"/>
<path d="M289.489 260.7C290.471 260.7 290.892 261.42 290.892 262.7V263.43C290.934 263.818 290.878 264.215 290.736 264.551C290.594 264.887 290.374 265.141 290.114 265.27C290.689 265.51 290.899 266.17 290.899 267.13V268.52C290.877 268.886 290.92 269.254 291.025 269.59H290.324C290.229 269.247 290.19 268.877 290.212 268.51V267.1C290.212 266.1 289.875 265.78 289.293 265.78H288.802V269.59H288.101V260.7H289.489ZM289.307 264.91C289.861 264.91 290.198 264.66 290.198 263.69V262.83C290.198 262.03 289.987 261.61 289.496 261.61H288.795V264.91H289.307Z" fill="#263238"/>
<path d="M292.323 267.83L292.084 269.63H291.439L292.639 260.7H293.648L294.848 269.63H294.146L293.901 267.83H292.323ZM292.414 266.98H293.817L293.115 261.82L292.414 266.98Z" fill="#263238"/>
<path d="M298.151 262.86V263.66H297.485V262.81C297.485 262 297.267 261.52 296.783 261.52C296.299 261.52 296.047 262 296.047 262.81V267.53C296.047 268.33 296.278 268.82 296.783 268.82C297.288 268.82 297.485 268.33 297.485 267.53V266.37H298.151V267.48C298.151 268.83 297.702 269.72 296.748 269.72C295.794 269.72 295.345 268.83 295.345 267.48V262.86C295.345 261.5 295.794 260.61 296.748 260.61C297.702 260.61 298.151 261.5 298.151 262.86Z" fill="#263238"/>
<path d="M299.687 269.63V261.63H298.537V260.72H301.531V261.63H300.381V269.63H299.687Z" fill="#263238"/>
<path d="M302.703 260.7V269.63H302.001V260.7H302.703Z" fill="#263238"/>
<path d="M303.369 262.86C303.369 261.49 303.839 260.61 304.771 260.61C305.704 260.61 306.174 261.49 306.174 262.86V267.48C306.174 268.83 305.704 269.72 304.771 269.72C303.839 269.72 303.369 268.83 303.369 267.48V262.86ZM304.07 267.53C304.07 268.34 304.308 268.82 304.813 268.82C305.318 268.82 305.557 268.34 305.557 267.53V262.81C305.557 262 305.325 261.52 304.813 261.52C304.301 261.52 304.07 262 304.07 262.81V267.53Z" fill="#263238"/>
<path d="M307.521 269.63H306.889V260.7H307.78L309.225 267.16V260.7H309.842V269.63H309.141L307.542 262.41L307.521 269.63Z" fill="#263238"/>
<path d="M293.831 291C296.155 291 298.039 288.314 298.039 285C298.039 281.686 296.155 279 293.831 279C291.507 279 289.623 281.686 289.623 285C289.623 288.314 291.507 291 293.831 291Z" fill="#263238" stroke="#263238" stroke-linecap="round" stroke-linejoin="round"/>
<path d="M293.831 287.5C294.799 287.5 295.584 286.381 295.584 285C295.584 283.619 294.799 282.5 293.831 282.5C292.862 282.5 292.077 283.619 292.077 285C292.077 286.381 292.862 287.5 293.831 287.5Z" fill="#92E3A9"/>
<path d="M464.486 120.27H367.471C362.435 120.27 358.353 126.09 358.353 133.27V228.69C358.353 235.87 362.435 241.69 367.471 241.69H464.486C469.521 241.69 473.603 235.87 473.603 228.69V133.27C473.603 126.09 469.521 120.27 464.486 120.27Z" fill="#263238" stroke="#263238" stroke-linecap="round" stroke-linejoin="round"/>
<path d="M462.256 127.68H369.701C366.114 127.68 363.207 131.826 363.207 136.94V225.01C363.207 230.124 366.114 234.27 369.701 234.27H462.256C465.843 234.27 468.75 230.124 468.75 225.01V136.94C468.75 131.826 465.843 127.68 462.256 127.68Z" fill="white" stroke="#263238" stroke-linecap="round" stroke-linejoin="round"/>
<path d="M460.544 145.49H376.861V149.84H460.544V145.49Z" fill="#E0E0E0"/>
<path d="M460.544 155.73H376.861V160.08H460.544V155.73Z" fill="#E0E0E0"/>
<path d="M460.544 165.97H376.861V170.32H460.544V165.97Z" fill="#E0E0E0"/>
<path d="M460.544 176.22H376.861V180.57H460.544V176.22Z" fill="#E0E0E0"/>
<path d="M460.544 186.46H376.861V190.81H460.544V186.46Z" fill="#E0E0E0"/>
<path d="M460.544 196.7H376.861V201.05H460.544V196.7Z" fill="#E0E0E0"/>
<path d="M460.544 206.94H376.861V211.29H460.544V206.94Z" fill="#E0E0E0"/>
<path d="M385.551 171.02H377.401V219.02H385.551V171.02Z" fill="#263238"/>
<path d="M398.014 184.48H389.864V219.02H398.014V184.48Z" fill="#92E3A9"/>
<path d="M410.476 176.11H402.327V219.02H410.476V176.11Z" fill="#263238"/>
<path d="M422.946 193.46H414.797V219.03H422.946V193.46Z" fill="#92E3A9"/>
<path d="M435.409 177.01H427.259V219.03H435.409V177.01Z" fill="#263238"/>
<path d="M447.878 165.94H439.729V219.02H447.878V165.94Z" fill="#92E3A9"/>
<path d="M460.341 159.06H452.192V219.02H460.341V159.06Z" fill="#263238"/>
<path d="M370.69 146.3H373.474" stroke="#263238" stroke-linecap="round" stroke-linejoin="round"/>
<path d="M370.69 152H373.474" stroke="#263238" stroke-linecap="round" stroke-linejoin="round"/>
<path d="M370.69 157.71H373.474" stroke="#263238" stroke-linecap="round" stroke-linejoin="round"/>
<path d="M370.69 163.42H373.474" stroke="#263238" stroke-linecap="round" stroke-linejoin="round"/>
<path d="M370.69 169.13H373.474" stroke="#263238" stroke-linecap="round" stroke-linejoin="round"/>
<path d="M370.69 174.83H373.474" stroke="#263238" stroke-linecap="round" stroke-linejoin="round"/>
<path d="M370.69 180.54H373.474" stroke="#263238" stroke-linecap="round" stroke-linejoin="round"/>
<path d="M370.69 186.25H373.474" stroke="#263238" stroke-linecap="round" stroke-linejoin="round"/>
<path d="M370.69 191.96H373.474" stroke="#263238" stroke-linecap="round" stroke-linejoin="round"/>
<path d="M370.69 197.66H373.474" stroke="#263238" stroke-linecap="round" stroke-linejoin="round"/>
<path d="M370.69 203.37H373.474" stroke="#263238" stroke-linecap="round" stroke-linejoin="round"/>
<path d="M370.69 209.08H373.474" stroke="#263238" stroke-linecap="round" stroke-linejoin="round"/>
<path d="M370.69 214.79H373.474" stroke="#263238" stroke-linecap="round" stroke-linejoin="round"/>
<path d="M370.69 220.49H373.474" stroke="#263238" stroke-linecap="round" stroke-linejoin="round"/>
<path d="M460.573 222.13V226.1" stroke="#263238" stroke-linecap="round" stroke-linejoin="round"/>
<path d="M453.924 222.13V226.1" stroke="#263238" stroke-linecap="round" stroke-linejoin="round"/>
<path d="M447.275 222.13V226.1" stroke="#263238" stroke-linecap="round" stroke-linejoin="round"/>
<path d="M440.634 222.13V226.1" stroke="#263238" stroke-linecap="round" stroke-linejoin="round"/>
<path d="M433.985 222.13V226.1" stroke="#263238" stroke-linecap="round" stroke-linejoin="round"/>
<path d="M427.336 222.13V226.1" stroke="#263238" stroke-linecap="round" stroke-linejoin="round"/>
<path d="M420.695 222.13V226.1" stroke="#263238" stroke-linecap="round" stroke-linejoin="round"/>
<path d="M414.046 222.13V226.1" stroke="#263238" stroke-linecap="round" stroke-linejoin="round"/>
<path d="M407.397 222.13V226.1" stroke="#263238" stroke-linecap="round" stroke-linejoin="round"/>
<path d="M400.756 222.13V226.1" stroke="#263238" stroke-linecap="round" stroke-linejoin="round"/>
<path d="M394.107 222.13V226.1" stroke="#263238" stroke-linecap="round" stroke-linejoin="round"/>
<path d="M387.459 222.13V226.1" stroke="#263238" stroke-linecap="round" stroke-linejoin="round"/>
<path d="M380.81 222.13V226.1" stroke="#263238" stroke-linecap="round" stroke-linejoin="round"/>
<path d="M374.168 222.13V226.1" stroke="#263238" stroke-linecap="round" stroke-linejoin="round"/>
<path d="M424.952 135.58H406.311V139.94H424.952V135.58Z" fill="#263238"/>
<path d="M464.486 256.42H367.471C362.435 256.42 358.353 262.24 358.353 269.42V364.84C358.353 372.02 362.435 377.84 367.471 377.84H464.486C469.521 377.84 473.603 372.02 473.603 364.84V269.42C473.603 262.24 469.521 256.42 464.486 256.42Z" fill="#263238" stroke="#263238" stroke-linecap="round" stroke-linejoin="round"/>
<path d="M462.256 263.84H369.701C366.114 263.84 363.207 267.986 363.207 273.1V361.17C363.207 366.284 366.114 370.43 369.701 370.43H462.256C465.843 370.43 468.75 366.284 468.75 361.17V273.1C468.75 267.986 465.843 263.84 462.256 263.84Z" fill="white" stroke="#263238" stroke-linecap="round" stroke-linejoin="round"/>
<path d="M398.259 360.12C391.204 360.12 384.401 356.376 379.174 349.618C373.948 342.86 370.672 333.571 369.984 323.559C369.296 313.547 371.246 303.528 375.453 295.452C379.661 287.377 385.825 281.822 392.747 279.87L394.093 289.69C391.217 290.494 388.487 292.133 386.073 294.504C383.659 296.875 381.613 299.928 380.06 303.473C378.508 307.019 377.483 310.981 377.05 315.114C376.616 319.248 376.782 323.464 377.539 327.502C378.295 331.54 379.625 335.314 381.447 338.588C383.268 341.863 385.542 344.569 388.127 346.539C390.713 348.508 393.554 349.7 396.476 350.039C399.397 350.378 402.336 349.858 405.111 348.51L407.362 357.98C404.43 359.398 401.355 360.121 398.259 360.12Z" fill="#263238"/>
<path d="M418.38 309.24C416.635 302.401 413.236 296.675 408.794 293.091C404.352 289.507 399.159 288.301 394.149 289.69L392.747 279.87C399.408 278.021 406.313 279.625 412.219 284.391C418.124 289.158 422.642 296.775 424.959 305.87L418.38 309.24Z" fill="#92E3A9"/>
<path d="M407.383 358L405.132 348.53C407.826 347.223 410.309 345.164 412.439 342.473C414.568 339.782 416.3 336.513 417.533 332.857C418.766 329.201 419.476 325.232 419.622 321.18C419.767 317.129 419.345 313.076 418.38 309.26L424.98 305.86C426.26 310.928 426.819 316.308 426.625 321.688C426.431 327.067 425.487 332.337 423.849 337.191C422.211 342.045 419.912 346.385 417.084 349.957C414.257 353.53 410.96 356.264 407.383 358Z" fill="#A8A8A8"/>
<path d="M444.077 288.4H436.194V299.64H444.077V288.4Z" fill="#263238"/>
<path d="M444.077 315.91H436.194V327.15H444.077V315.91Z" fill="#92E3A9"/>
<path d="M444.077 343.43H436.194V354.67H444.077V343.43Z" fill="#A8A8A8"/>
<path d="M448.222 294.32H461.505" stroke="#263238" stroke-linecap="round" stroke-linejoin="round"/>
<path d="M448.222 320.94H461.505" stroke="#263238" stroke-linecap="round" stroke-linejoin="round"/>
<path d="M390.958 320.35H404.242" stroke="#263238" stroke-linecap="round" stroke-linejoin="round"/>
<path d="M448.222 348.75H461.505" stroke="#263238" stroke-linecap="round" stroke-linejoin="round"/>
<path d="M67.328 444.29H51.8987" stroke="#263238" stroke-width="0.75" stroke-miterlimit="10" stroke-linecap="round"/>
<path d="M457.971 444.29H75.7439" stroke="#263238" stroke-width="0.75" stroke-miterlimit="10" stroke-linecap="round"/>
<path d="M487.427 444.29H462.88" stroke="#263238" stroke-width="0.75" stroke-miterlimit="10" stroke-linecap="round"/>
</svg>
