<svg width="500" height="500" viewBox="0 0 500 500" fill="none" xmlns="http://www.w3.org/2000/svg">
<path d="M402.12 428.84C417.894 418.593 431.002 404.738 440.36 388.42C497.52 289 484.61 142.26 374.53 79.3601C323.65 50.2901 250.41 31.8901 195.43 61.7501C150.83 85.9701 123.49 131.56 100.88 173.05C86.65 199.14 74.94 227.22 57.43 251.63C34.7 283.29 9.69003 325.57 34.94 362.35C69.35 412.45 134.34 435.35 193.28 450.35C257.22 466.69 329.11 469.01 388.17 437.14C392.95 434.587 397.6 431.82 402.12 428.84Z" fill="#92E3A9"/>
<path opacity="0.7" d="M402.12 428.84C417.894 418.593 431.002 404.738 440.36 388.42C497.52 289 484.61 142.26 374.53 79.3601C323.65 50.2901 250.41 31.8901 195.43 61.7501C150.83 85.9701 123.49 131.56 100.88 173.05C86.65 199.14 74.94 227.22 57.43 251.63C34.7 283.29 9.69003 325.57 34.94 362.35C69.35 412.45 134.34 435.35 193.28 450.35C257.22 466.69 329.11 469.01 388.17 437.14C392.95 434.587 397.6 431.82 402.12 428.84Z" fill="white"/>
<path d="M338.24 85.8699C380.24 86.5199 415.36 102.47 442.99 134.37C443.877 135.335 444.559 136.47 444.996 137.706C445.432 138.942 445.614 140.254 445.53 141.562C445.445 142.87 445.097 144.148 444.506 145.318C443.915 146.488 443.093 147.526 442.09 148.37C441.116 149.2 439.985 149.826 438.765 150.212C437.544 150.597 436.259 150.735 434.985 150.615C433.711 150.496 432.473 150.123 431.346 149.517C430.218 148.912 429.223 148.086 428.42 147.09C418.559 135.439 406.568 125.774 393.09 118.61C372.371 107.603 348.823 103.075 325.5 105.614C302.177 108.154 280.155 117.642 262.29 132.85C257.21 137.14 252.69 142.13 248.11 146.98C244.11 151.19 238.3 151.86 234.11 148.25C229.92 144.64 229.66 138.61 233.44 134.25C256.58 107.417 285.707 91.5666 320.82 86.6999C323.57 86.3199 326.34 86.0299 329.12 85.8999C332.15 85.7599 335.2 85.8699 338.24 85.8699Z" fill="#263238"/>
<path d="M341.71 124.85C368.28 125.54 393.27 136.85 412.92 159.61C416.8 164.09 416.35 169.87 412.04 173.61C407.95 177.13 402.04 176.66 398.23 172.28C387.97 160.4 375.54 151.69 360.38 147.6C329.49 139.26 302.78 146.86 280.38 169.73C279.55 170.58 278.78 171.49 277.99 172.38C276.303 174.327 273.912 175.523 271.343 175.707C268.774 175.891 266.237 175.047 264.29 173.36C262.343 171.673 261.146 169.282 260.963 166.713C260.779 164.144 261.623 161.607 263.31 159.66C271.952 149.405 282.618 141.044 294.64 135.1C308.43 128.23 323 124.92 341.71 124.85Z" fill="#263238"/>
<path d="M385.43 191.34C385.435 193.305 384.845 195.226 383.736 196.849C382.627 198.472 381.053 199.72 379.22 200.43C377.357 201.164 375.311 201.297 373.368 200.809C371.426 200.321 369.685 199.237 368.39 197.71C364.34 192.967 359.266 189.205 353.55 186.71C337.55 179.95 320 184.15 308.13 197.55C305.32 200.73 301.81 201.88 297.75 200.65C296.202 200.179 294.796 199.328 293.66 198.175C292.524 197.023 291.695 195.604 291.246 194.049C290.798 192.494 290.746 190.852 291.094 189.271C291.442 187.691 292.18 186.223 293.24 185C313.56 160.5 350.94 157 375.39 177.46C378.186 179.787 380.76 182.368 383.08 185.17C384.43 186.81 385.01 189.08 385.94 191.07L385.43 191.34Z" fill="#263238"/>
<path d="M338.2 242.38C334.333 242.392 330.55 241.254 327.331 239.112C324.112 236.97 321.602 233.919 320.12 230.348C318.638 226.776 318.251 222.845 319.008 219.053C319.764 215.261 321.631 211.779 324.37 209.05C327.109 206.32 330.597 204.467 334.392 203.724C338.187 202.981 342.117 203.382 345.683 204.877C349.249 206.372 352.291 208.893 354.421 212.119C356.552 215.346 357.676 219.133 357.65 223C357.639 228.149 355.585 233.083 351.937 236.717C348.29 240.351 343.349 242.388 338.2 242.38Z" fill="#263238"/>
<path d="M221.269 335.795C230.348 326.716 230.348 311.994 221.269 302.915C212.189 293.835 197.468 293.835 188.388 302.915C179.308 311.994 179.308 326.716 188.388 335.795C197.468 344.875 212.189 344.875 221.269 335.795Z" stroke="#263238" stroke-width="2" stroke-linecap="round" stroke-linejoin="round"/>
<path d="M204.83 342.61C211.181 342.61 216.33 332.2 216.33 319.36C216.33 306.519 211.181 296.11 204.83 296.11C198.479 296.11 193.33 306.519 193.33 319.36C193.33 332.2 198.479 342.61 204.83 342.61Z" stroke="#263238" stroke-width="2" stroke-linecap="round" stroke-linejoin="round"/>
<path d="M188.83 302.91C193.188 307.044 198.976 309.33 204.982 309.291C210.989 309.252 216.747 306.89 221.05 302.7" stroke="#263238" stroke-width="2" stroke-linecap="round" stroke-linejoin="round"/>
<path d="M220.89 335.87C216.525 331.694 210.706 329.381 204.665 329.422C198.625 329.463 192.838 331.855 188.53 336.09" stroke="#263238" stroke-width="2" stroke-linecap="round" stroke-linejoin="round"/>
<path d="M181.58 319.36H228.08" stroke="#263238" stroke-width="2" stroke-linecap="round" stroke-linejoin="round"/>
<path d="M204.83 296.11V342.61" stroke="#263238" stroke-width="2" stroke-linecap="round" stroke-linejoin="round"/>
<path d="M204.94 288.76V286.26" stroke="#263238" stroke-linecap="round" stroke-linejoin="round"/>
<path d="M204.94 281.18V30.01" stroke="#263238" stroke-linecap="round" stroke-linejoin="round" stroke-dasharray="5.07 5.07"/>
<path d="M204.94 27.48V24.98" stroke="#263238" stroke-linecap="round" stroke-linejoin="round"/>
<path d="M167.43 153.23C163.601 153.235 159.931 154.76 157.225 157.469C154.52 160.179 153 163.851 153 167.68C153 175.68 167.45 191.97 167.45 191.97C167.45 191.97 181.89 175.66 181.89 167.68C181.891 165.781 181.518 163.901 180.792 162.146C180.065 160.392 179 158.798 177.657 157.456C176.314 156.114 174.719 155.05 172.964 154.324C171.209 153.599 169.329 153.227 167.43 153.23ZM167.43 174.23C166.13 174.232 164.858 173.848 163.776 173.127C162.694 172.406 161.851 171.38 161.352 170.179C160.854 168.978 160.723 167.656 160.976 166.381C161.229 165.105 161.855 163.934 162.774 163.014C163.694 162.095 164.865 161.469 166.141 161.216C167.416 160.963 168.738 161.094 169.939 161.592C171.14 162.091 172.166 162.934 172.887 164.016C173.608 165.098 173.992 166.37 173.99 167.67C173.99 169.411 173.299 171.08 172.069 172.312C170.839 173.544 169.171 174.237 167.43 174.24V174.23Z" fill="#263238" stroke="#263238" stroke-linecap="round" stroke-linejoin="round"/>
<path d="M167.43 153.23V150.73" stroke="#263238" stroke-linecap="round" stroke-linejoin="round"/>
<path d="M167.43 145.8V29.9399" stroke="#263238" stroke-linecap="round" stroke-linejoin="round" stroke-dasharray="4.93 4.93"/>
<path d="M167.43 27.48V24.98" stroke="#263238" stroke-linecap="round" stroke-linejoin="round"/>
<path d="M133.27 271.76H104.64C102.402 271.76 100.255 272.649 98.672 274.232C97.0892 275.815 96.2 277.962 96.2 280.2V293.2C96.2 295.438 97.0892 297.585 98.672 299.168C100.255 300.751 102.402 301.64 104.64 301.64L104.93 314.74L113.93 301.64H133.29C135.528 301.64 137.675 300.751 139.258 299.168C140.841 297.585 141.73 295.438 141.73 293.2V280.2C141.73 279.09 141.511 277.991 141.086 276.966C140.66 275.94 140.037 275.009 139.251 274.225C138.465 273.441 137.532 272.82 136.506 272.397C135.48 271.974 134.38 271.757 133.27 271.76Z" fill="white" stroke="#263238" stroke-linecap="round" stroke-linejoin="round"/>
<path d="M122.47 278.79H146C147.837 278.803 149.596 279.538 150.896 280.837C152.197 282.135 152.934 283.893 152.95 285.73V296.45C152.934 298.288 152.197 300.045 150.896 301.344C149.596 302.642 147.837 303.377 146 303.39L145.77 314.15L138.39 303.39H122.47C120.629 303.39 118.864 302.659 117.563 301.357C116.261 300.056 115.53 298.291 115.53 296.45V285.73C115.53 283.889 116.261 282.124 117.563 280.823C118.864 279.521 120.629 278.79 122.47 278.79Z" fill="#263238" stroke="#263238" stroke-linecap="round" stroke-linejoin="round"/>
<path d="M129.5 291.08C129.5 290.568 129.348 290.066 129.063 289.64C128.778 289.214 128.373 288.882 127.899 288.686C127.425 288.491 126.904 288.44 126.401 288.541C125.898 288.641 125.437 288.889 125.075 289.252C124.713 289.616 124.467 290.078 124.369 290.581C124.27 291.084 124.322 291.605 124.52 292.078C124.718 292.551 125.051 292.955 125.478 293.239C125.906 293.522 126.407 293.672 126.92 293.67C127.605 293.668 128.261 293.394 128.745 292.908C129.228 292.423 129.5 291.765 129.5 291.08Z" fill="#92E3A9"/>
<path d="M134.93 293.67C136.36 293.67 137.52 292.511 137.52 291.08C137.52 289.65 136.36 288.49 134.93 288.49C133.5 288.49 132.34 289.65 132.34 291.08C132.34 292.511 133.5 293.67 134.93 293.67Z" fill="#92E3A9"/>
<path d="M142.94 293.67C144.37 293.67 145.53 292.511 145.53 291.08C145.53 289.65 144.37 288.49 142.94 288.49C141.51 288.49 140.35 289.65 140.35 291.08C140.35 292.511 141.51 293.67 142.94 293.67Z" fill="#92E3A9"/>
<path d="M127.51 262.61V260.11" stroke="#263238" stroke-linecap="round" stroke-linejoin="round"/>
<path d="M127.51 255.18V30.8401" stroke="#263238" stroke-linecap="round" stroke-linejoin="round" stroke-dasharray="4.93 4.93"/>
<path d="M127.51 28.3701V25.8701" stroke="#263238" stroke-linecap="round" stroke-linejoin="round"/>
<path d="M116.83 189.15H66.27V218.7H116.83V189.15Z" fill="white" stroke="#263238" stroke-linecap="round" stroke-linejoin="round"/>
<path d="M66.27 218.7L91.16 195.72L116.84 218.7H66.27Z" fill="white" stroke="#263238" stroke-linecap="round" stroke-linejoin="round"/>
<path d="M66.27 189.15L91.56 203.93L116.84 189.15H66.27Z" fill="white" stroke="#263238" stroke-linecap="round" stroke-linejoin="round"/>
<path d="M91.11 187.8V185.3" stroke="#263238" stroke-linecap="round" stroke-linejoin="round"/>
<path d="M91.11 180.61V145.4" stroke="#263238" stroke-linecap="round" stroke-linejoin="round" stroke-dasharray="4.69 4.69"/>
<path d="M91.11 143.06V140.56" stroke="#263238" stroke-linecap="round" stroke-linejoin="round"/>
<path d="M104.63 97.88C102.157 92.9184 98.2373 88.8239 93.388 86.1376C88.5387 83.4513 82.9884 82.2997 77.4707 82.835C71.953 83.3703 66.7276 85.5673 62.4852 89.1356C58.2427 92.7039 55.1828 97.4756 53.71 102.82C53.27 102.82 52.83 102.75 52.39 102.75C48.1264 102.661 43.9927 104.219 40.8478 107.099C37.7028 109.979 35.7886 113.96 35.5028 118.215C35.217 122.47 36.5816 126.671 39.3131 129.946C42.0446 133.221 45.9329 135.318 50.17 135.8V136H101.32C106.188 136.115 110.917 134.37 114.545 131.122C118.173 127.873 120.427 123.365 120.848 118.514C121.27 113.662 119.828 108.833 116.815 105.007C113.802 101.181 109.445 98.6471 104.63 97.92V97.88Z" fill="white" stroke="#263238" stroke-linecap="round" stroke-linejoin="round"/>
<path d="M80.08 82.71V80.21" stroke="#263238" stroke-linecap="round" stroke-linejoin="round"/>
<path d="M80.08 75.33V28.99" stroke="#263238" stroke-linecap="round" stroke-linejoin="round" stroke-dasharray="4.88 4.88"/>
<path d="M80.08 26.55V24.05" stroke="#263238" stroke-linecap="round" stroke-linejoin="round"/>
<path d="M47.58 261.1C46.4338 261.104 45.3205 261.483 44.41 262.18L31.82 252.73C32.0541 252.134 32.1729 251.5 32.17 250.86C32.1813 249.672 31.79 248.514 31.0596 247.577C30.3293 246.64 29.303 245.977 28.1481 245.698C26.9931 245.418 25.7775 245.538 24.6992 246.037C23.621 246.537 22.7436 247.387 22.2101 248.448C21.6766 249.51 21.5184 250.721 21.7613 251.885C22.0041 253.048 22.6337 254.095 23.5475 254.854C24.4612 255.614 25.6053 256.042 26.7934 256.069C27.9814 256.095 29.1434 255.718 30.09 255L42.68 264.44C42.4516 265.04 42.3331 265.677 42.33 266.32C42.3323 266.959 42.4509 267.593 42.68 268.19L30.09 277.63C29.1466 276.915 27.9894 276.54 26.8062 276.566C25.6229 276.592 24.4831 277.016 23.5715 277.771C22.66 278.526 22.0303 279.567 21.7845 280.725C21.5387 281.882 21.6913 283.089 22.2176 284.149C22.7438 285.209 23.6128 286.06 24.6836 286.565C25.7544 287.069 26.9641 287.196 28.1164 286.927C29.2688 286.657 30.2963 286.006 31.0321 285.079C31.7679 284.152 32.1689 283.003 32.17 281.82C32.1718 281.177 32.053 280.539 31.82 279.94L44.41 270.5C45.0743 271.001 45.8482 271.338 46.6681 271.481C47.4879 271.625 48.3301 271.571 49.1252 271.325C49.9203 271.079 50.6455 270.648 51.241 270.066C51.8365 269.485 52.2853 268.77 52.5502 267.981C52.8152 267.192 52.8887 266.351 52.7648 265.528C52.641 264.705 52.3232 263.924 51.8377 263.248C51.3522 262.572 50.713 262.021 49.9727 261.64C49.2324 261.26 48.4123 261.061 47.58 261.06V261.1Z" fill="#263238"/>
<path d="M39.8401 88.78V86.28" stroke="#263238" stroke-linecap="round" stroke-linejoin="round"/>
<path d="M39.8401 80.9099V29.9099" stroke="#263238" stroke-linecap="round" stroke-linejoin="round" stroke-dasharray="5.37 5.37"/>
<path d="M39.8401 27.23V24.73" stroke="#263238" stroke-linecap="round" stroke-linejoin="round"/>
<path d="M39.8401 249.98V247.48" stroke="#263238" stroke-linecap="round" stroke-linejoin="round"/>
<path d="M39.8401 242.47V144.64" stroke="#263238" stroke-linecap="round" stroke-linejoin="round" stroke-dasharray="5.02 5.02"/>
<path d="M39.8401 142.13V139.63" stroke="#263238" stroke-linecap="round" stroke-linejoin="round"/>
<path d="M93.3901 405.19C100.393 405.19 106.07 390.299 106.07 371.93C106.07 353.561 100.393 338.67 93.3901 338.67C86.3871 338.67 80.7101 353.561 80.7101 371.93C80.7101 390.299 86.3871 405.19 93.3901 405.19Z" fill="#92E3A9" stroke="#263238" stroke-miterlimit="10"/>
<path d="M132.788 351.437C136.752 338.963 135.562 327.451 130.13 325.725C124.698 323.998 117.081 332.711 113.117 345.186C109.153 357.66 110.343 369.172 115.774 370.898C121.206 372.625 128.823 363.911 132.788 351.437Z" fill="#92E3A9" stroke="#263238" stroke-miterlimit="10"/>
<path d="M39.7501 426.65C26.8401 424.46 17.1501 418.13 18.1001 412.52C19.0501 406.91 30.2901 404.12 43.1901 406.3C56.0901 408.48 65.7901 414.82 64.8401 420.43C63.8901 426.04 52.6501 428.83 39.7501 426.65Z" fill="#92E3A9" stroke="#263238" stroke-miterlimit="10"/>
<path d="M144.73 395.9C133.95 406.59 121.21 411.23 116.28 406.25C111.35 401.27 116.09 388.58 126.87 377.89C137.65 367.2 150.39 362.56 155.32 367.54C160.25 372.52 155.51 385.21 144.73 395.9Z" fill="#92E3A9" stroke="#263238" stroke-miterlimit="10"/>
<path d="M70.4401 366.57C80.8701 381.7 84.0001 397.64 77.3801 402.18C70.7601 406.72 57.0001 398.15 46.5701 383C36.1401 367.85 33.0001 352 39.6301 347.41C46.2601 342.82 60.0001 351.45 70.4401 366.57Z" fill="#92E3A9" stroke="#263238" stroke-miterlimit="10"/>
<path d="M94.28 403.53L95.26 449.26" stroke="#263238" stroke-miterlimit="10" stroke-linecap="round"/>
<path d="M93.1001 359.56L94.2801 403.53" stroke="#263238" stroke-miterlimit="10" stroke-linecap="round"/>
<path d="M93.1801 352.39L93.1001 355.76" stroke="#263238" stroke-miterlimit="10" stroke-linecap="round"/>
<path d="M77.3301 400C84.6055 415.027 88.8625 431.335 89.8601 448" stroke="#263238" stroke-miterlimit="10" stroke-linecap="round"/>
<path d="M55.55 366.7C64.2509 376.788 71.5748 387.985 77.3301 400" stroke="#263238" stroke-miterlimit="10" stroke-linecap="round"/>
<path d="M48.7001 359.45C48.7001 359.45 50.0101 360.66 52.1701 362.95" stroke="#263238" stroke-miterlimit="10" stroke-linecap="round"/>
<path d="M117.07 404.72C108.176 417.188 101.242 430.944 96.51 445.51" stroke="#263238" stroke-miterlimit="10" stroke-linecap="round"/>
<path d="M131.65 388C126.282 393.123 121.401 398.734 117.07 404.76" stroke="#263238" stroke-miterlimit="10" stroke-linecap="round"/>
<path d="M147.23 376.08C143.266 378.333 139.543 380.987 136.12 384" stroke="#263238" stroke-miterlimit="10" stroke-linecap="round"/>
<path d="M116.53 367.79C109.53 389.9 100.08 422.56 95.6801 450.92" stroke="#263238" stroke-miterlimit="10" stroke-linecap="round"/>
<path d="M120.81 354.68C119.56 358.41 118.11 362.83 116.53 367.79" stroke="#263238" stroke-miterlimit="10" stroke-linecap="round"/>
<path d="M125.2 342C125.2 342 123.97 345.39 121.99 351.19" stroke="#263238" stroke-miterlimit="10" stroke-linecap="round"/>
<path d="M64.1901 417.37C72.9701 420.7 81.5301 427.12 85.7001 439.28" stroke="#263238" stroke-miterlimit="10" stroke-linecap="round"/>
<path d="M48 414.07C53.5378 414.354 59.0019 415.466 64.21 417.37" stroke="#263238" stroke-miterlimit="10" stroke-linecap="round"/>
<path d="M37.4701 414.33C37.4701 414.33 39.0301 414.11 41.6101 414.01" stroke="#263238" stroke-miterlimit="10" stroke-linecap="round"/>
<path d="M150.2 426.65C163.11 424.46 172.8 418.13 171.85 412.52C170.9 406.91 159.66 404.12 146.75 406.3C133.84 408.48 124.16 414.82 125.11 420.43C126.06 426.04 137.29 428.83 150.2 426.65Z" fill="#92E3A9" stroke="#263238" stroke-miterlimit="10"/>
<path d="M126 417.27C117.12 420.56 108.42 426.99 104.21 439.27" stroke="#263238" stroke-miterlimit="10" stroke-linecap="round"/>
<path d="M143.33 414C137.417 414.168 131.568 415.272 126 417.27" stroke="#263238" stroke-miterlimit="10" stroke-linecap="round"/>
<path d="M152.47 414.33C152.47 414.33 151.47 414.19 149.68 414.08" stroke="#263238" stroke-miterlimit="10" stroke-linecap="round"/>
<path d="M125.85 478.14C129.755 469.962 131.804 461.022 131.85 451.96C131.856 446.537 131.047 441.143 129.45 435.96H61.9101C60.3083 441.142 59.4992 446.536 59.5101 451.96C59.5611 461.022 61.6098 469.961 65.5101 478.14H125.85Z" fill="#263238"/>
<path d="M60.1701 443.44C59.9801 444.67 59.8301 445.91 59.7201 447.18H131.63C131.52 445.91 131.37 444.67 131.18 443.44H60.1701Z" fill="#7A7A7A"/>
<path d="M130.87 462.56C131.09 461.32 131.29 460.07 131.44 458.82H59.92C60.07 460.07 60.26 461.32 60.49 462.56H130.87Z" fill="#7A7A7A"/>
<path d="M68.24 452.17C68.24 452.746 68.0694 453.308 67.7496 453.787C67.4299 454.265 66.9754 454.638 66.4437 454.858C65.9119 455.079 65.3268 455.136 64.7623 455.024C64.1979 454.912 63.6793 454.635 63.2724 454.228C62.8654 453.821 62.5882 453.302 62.476 452.738C62.3637 452.173 62.4213 451.588 62.6416 451.056C62.8618 450.525 63.2348 450.07 63.7133 449.75C64.1919 449.431 64.7545 449.26 65.33 449.26C66.101 449.263 66.8397 449.57 67.3848 450.115C67.93 450.66 68.2374 451.399 68.24 452.17Z" fill="#8C8C8C"/>
<path d="M82.7901 452.17C82.7901 452.746 82.6194 453.308 82.2997 453.787C81.9799 454.265 81.5254 454.638 80.9937 454.858C80.462 455.079 79.8769 455.136 79.3124 455.024C78.7479 454.912 78.2294 454.635 77.8224 454.228C77.4154 453.821 77.1383 453.302 77.026 452.738C76.9137 452.173 76.9714 451.588 77.1916 451.056C77.4119 450.525 77.7848 450.07 78.2634 449.75C78.7419 449.431 79.3045 449.26 79.8801 449.26C80.6519 449.26 81.392 449.567 81.9378 450.112C82.4835 450.658 82.7901 451.398 82.7901 452.17Z" fill="#8C8C8C"/>
<path d="M97.34 452.17C97.34 452.746 97.1694 453.308 96.8496 453.787C96.5298 454.265 96.0754 454.638 95.5436 454.858C95.0119 455.079 94.4268 455.136 93.8623 455.024C93.2978 454.912 92.7793 454.635 92.3723 454.228C91.9654 453.821 91.6882 453.302 91.5759 452.738C91.4637 452.173 91.5213 451.588 91.7415 451.056C91.9618 450.525 92.3348 450.07 92.8133 449.75C93.2919 449.431 93.8545 449.26 94.43 449.26C95.2018 449.26 95.942 449.567 96.4877 450.112C97.0334 450.658 97.34 451.398 97.34 452.17Z" fill="#8C8C8C"/>
<path d="M108.98 455.08C110.587 455.08 111.89 453.777 111.89 452.17C111.89 450.563 110.587 449.26 108.98 449.26C107.373 449.26 106.07 450.563 106.07 452.17C106.07 453.777 107.373 455.08 108.98 455.08Z" fill="#8C8C8C"/>
<path d="M126.44 452.17C126.44 452.746 126.269 453.308 125.95 453.787C125.63 454.265 125.175 454.638 124.644 454.858C124.112 455.079 123.527 455.136 122.962 455.024C122.398 454.912 121.879 454.635 121.472 454.228C121.065 453.821 120.788 453.302 120.676 452.738C120.564 452.173 120.621 451.588 120.842 451.056C121.062 450.525 121.435 450.07 121.913 449.75C122.392 449.431 122.955 449.26 123.53 449.26C124.302 449.26 125.042 449.567 125.588 450.112C126.134 450.658 126.44 451.398 126.44 452.17Z" fill="#8C8C8C"/>
<path d="M443.65 250.08C442.641 249.964 441.626 250.251 440.827 250.878C440.027 251.505 439.508 252.422 439.38 253.43L420 403.17L432.62 404.59L447.07 254.3C447.166 253.289 446.861 252.281 446.222 251.492C445.582 250.703 444.659 250.196 443.65 250.08Z" fill="#263238" stroke="#263238" stroke-linecap="round" stroke-linejoin="round"/>
<path d="M248.77 250.08C249.779 249.964 250.794 250.251 251.593 250.878C252.393 251.505 252.912 252.422 253.04 253.43L272.44 403.17L259.82 404.59L245.35 254.3C245.254 253.289 245.559 252.281 246.198 251.492C246.838 250.703 247.761 250.196 248.77 250.08Z" fill="#263238" stroke="#263238" stroke-linecap="round" stroke-linejoin="round"/>
<path d="M465.94 400.15H268.67C266.135 400.15 264.08 402.205 264.08 404.74V473.54C264.08 476.075 266.135 478.13 268.67 478.13H465.94C468.475 478.13 470.53 476.075 470.53 473.54V404.74C470.53 402.205 468.475 400.15 465.94 400.15Z" fill="white" stroke="#263238" stroke-linecap="round" stroke-linejoin="round"/>
<path d="M470.73 409.77H263.88C261.577 409.77 259.71 411.637 259.71 413.94V464.36C259.71 466.663 261.577 468.53 263.88 468.53H470.73C473.033 468.53 474.9 466.663 474.9 464.36V413.94C474.9 411.637 473.033 409.77 470.73 409.77Z" fill="white" stroke="#263238" stroke-linecap="round" stroke-linejoin="round"/>
<path d="M357.67 400.15H160.4C157.865 400.15 155.81 402.205 155.81 404.74V473.54C155.81 476.075 157.865 478.13 160.4 478.13H357.67C360.205 478.13 362.26 476.075 362.26 473.54V404.74C362.26 402.205 360.205 400.15 357.67 400.15Z" fill="white" stroke="#263238" stroke-linecap="round" stroke-linejoin="round"/>
<path d="M362.46 409.77H155.61C153.307 409.77 151.44 411.637 151.44 413.94V464.36C151.44 466.663 153.307 468.53 155.61 468.53H362.46C364.763 468.53 366.63 466.663 366.63 464.36V413.94C366.63 411.637 364.763 409.77 362.46 409.77Z" fill="white" stroke="#263238" stroke-linecap="round" stroke-linejoin="round"/>
<path d="M345.37 422.65H174.55C171.783 422.65 169.54 424.893 169.54 427.66V449.22C169.54 451.987 171.783 454.23 174.55 454.23H345.37C348.137 454.23 350.38 451.987 350.38 449.22V427.66C350.38 424.893 348.137 422.65 345.37 422.65Z" fill="#263238" stroke="#263238" stroke-linecap="round" stroke-linejoin="round"/>
<path d="M179.59 430.3C177.786 431.022 176.289 432.347 175.353 434.05C174.418 435.753 174.102 437.728 174.461 439.638C174.82 441.547 175.83 443.273 177.319 444.521C178.809 445.769 180.685 446.461 182.628 446.479C184.571 446.497 186.46 445.841 187.973 444.621C189.485 443.402 190.528 441.695 190.922 439.793C191.317 437.89 191.039 435.91 190.135 434.189C189.232 432.469 187.76 431.115 185.97 430.36" stroke="#92E3A9" stroke-width="3" stroke-miterlimit="10" stroke-linecap="round"/>
<path d="M182.79 427.05V433.26" stroke="#92E3A9" stroke-width="3" stroke-miterlimit="10" stroke-linecap="round"/>
<path d="M280.67 447.23C280.67 447.23 272.5 449.8 270.77 450.13C269.04 450.46 263.77 449.13 263.56 451.13C263.35 453.13 266.62 455.06 271.75 457.13C276.88 459.2 282.51 460.89 286.33 460.72C290.15 460.55 289.42 453.02 289.63 451.72C289.84 450.42 280.67 447.23 280.67 447.23Z" fill="white" stroke="#263238" stroke-linecap="round" stroke-linejoin="round"/>
<path d="M274.43 455.31C268.04 452.67 265.06 451.31 263.76 450.66C263.641 450.805 263.571 450.983 263.56 451.17C263.4 453.26 266.62 455.1 271.75 457.17C276.88 459.24 282.51 460.93 286.33 460.76C287.76 460.69 288.55 459.6 288.99 458.19C283.992 458.227 279.038 457.247 274.43 455.31Z" fill="white" stroke="#263238" stroke-linecap="round" stroke-linejoin="round"/>
<path d="M330.32 370.55L328.18 371.72V374.83C328.18 374.83 283.55 382.27 282.97 386.16C282.39 390.05 280.62 447.92 280.62 447.92C280.62 447.92 287.82 455.67 289.37 453.92C290.92 452.17 291.32 446.56 291.32 446.56L298.72 395.3C298.72 395.3 348.99 399.92 356.58 397.58C364.17 395.24 367.86 385.14 368.05 380.47C368.24 375.8 368.25 373.66 368.25 373.66L334 369L330.32 370.55Z" fill="#92E3A9" stroke="#263238" stroke-linecap="round" stroke-linejoin="round"/>
<path d="M315.15 449.32L314.83 449.85C313.216 452.428 311.371 454.854 309.32 457.1C306.01 460.6 300.57 463.52 300.76 464.68C300.95 465.84 304.65 466.63 317.29 462.74C322.98 460.99 327.21 460.99 327.79 459.04C328.37 457.09 323.71 448.74 323.71 448.74L315.15 449.32Z" fill="white" stroke="#263238" stroke-linecap="round" stroke-linejoin="round"/>
<path d="M327.79 459C327.863 458.059 327.691 457.115 327.29 456.26C323.016 458.292 318.564 459.926 313.99 461.14C309.855 462.285 305.64 463.118 301.38 463.63C300.96 464.04 300.72 464.39 300.76 464.63C300.95 465.8 304.65 466.58 317.29 462.69C323 461 327.21 461 327.79 459Z" fill="white" stroke="#263238" stroke-linecap="round" stroke-linejoin="round"/>
<path d="M342.58 378.91C342.58 378.91 337.91 374.83 337.52 377.16C337.13 379.49 336.35 380.08 336.35 380.08C336.35 380.08 303.68 384 300 386.3C296.32 388.6 295.14 391.75 297.28 396.42C299.42 401.09 313.81 452.24 313.81 452.24C315.309 452.917 316.874 453.436 318.48 453.79C320.62 454.18 325.09 452.04 325.09 452.04C325.09 452.04 324.55 442.51 323.19 439.4C321.83 436.29 316.26 400.4 316.26 400.4C316.26 400.4 339.87 400.49 347.85 400.49C355.83 400.49 364.57 393.88 366.32 388.43C368.07 382.98 367.32 381.82 367.32 381.82" fill="#92E3A9"/>
<path d="M342.58 378.91C342.58 378.91 337.91 374.83 337.52 377.16C337.13 379.49 336.35 380.08 336.35 380.08C336.35 380.08 303.68 384 300 386.3C296.32 388.6 295.14 391.75 297.28 396.42C299.42 401.09 313.81 452.24 313.81 452.24C315.309 452.917 316.874 453.436 318.48 453.79C320.62 454.18 325.09 452.04 325.09 452.04C325.09 452.04 324.55 442.51 323.19 439.4C321.83 436.29 316.26 400.4 316.26 400.4C316.26 400.4 339.87 400.49 347.85 400.49C355.83 400.49 364.57 393.88 366.32 388.43C368.07 382.98 367.32 381.82 367.32 381.82" stroke="#263238" stroke-linecap="round" stroke-linejoin="round"/>
<path d="M316.24 400.41L315.11 394.29" stroke="#263238" stroke-linecap="round" stroke-linejoin="round"/>
<path d="M353.37 387.51C353.996 388.383 354.504 389.334 354.88 390.34" stroke="#263238" stroke-linecap="round" stroke-linejoin="round"/>
<path d="M344.48 380.76C347.358 381.948 349.959 383.718 352.12 385.96" stroke="#263238" stroke-linecap="round" stroke-linejoin="round"/>
<path d="M351.87 381.86C354.878 383.238 357.371 385.535 358.99 388.42" stroke="#263238" stroke-linecap="round" stroke-linejoin="round"/>
<path d="M330.8 322.82C330.8 322.82 330.8 323.1 330.75 323.58C330.58 326.33 327.53 330.42 329.35 335.58C333.48 347.22 332.64 355.77 332.27 353.28C332.85 357.17 329.35 365.53 329.35 368.28C329.35 371.03 322.15 371.41 338.49 376.28C354.83 381.15 360.49 380.93 364.55 379.37C368.61 377.81 371.55 376.45 371.94 373.15C372.33 369.85 368.83 364.01 368.64 358.95C368.45 353.89 367.75 338.06 362.89 327.95C358.03 317.84 345.19 310.83 345.19 310.83L330.8 322.82Z" fill="white" stroke="#263238" stroke-linecap="round" stroke-linejoin="round"/>
<path d="M356.4 361C357.25 360.35 358.04 359.69 358.77 359" stroke="#263238" stroke-linecap="round" stroke-linejoin="round"/>
<path d="M335.9 372.44C341.924 369.793 347.737 366.69 353.29 363.16" stroke="#263238" stroke-linecap="round" stroke-linejoin="round"/>
<path d="M342.17 371.32C339.859 372.476 337.441 373.404 334.95 374.09" stroke="#263238" stroke-linecap="round" stroke-linejoin="round"/>
<path d="M345.33 369.61C345.33 369.61 344.78 369.95 343.86 370.45" stroke="#263238" stroke-linecap="round" stroke-linejoin="round"/>
<path d="M348.02 343.9L353.27 337.49" stroke="#263238" stroke-linecap="round" stroke-linejoin="round"/>
<path d="M329 279.69C327.684 281.064 326.511 282.568 325.5 284.18C324.65 285.86 324.5 287.08 323.05 288.18C321.6 289.28 318.6 288.57 318.68 290.3C318.76 292.03 320.56 293.68 320.56 293.68C320.56 293.68 319.1 304.24 319.65 305.92C320.2 307.6 327.76 307.92 327.76 307.92L331.61 320.46L345.2 311.25L345.56 307.6C345.9 306.12 348.34 301.54 350.36 298.1C352.38 294.66 351.48 285.6 346.6 281.7C341.72 277.8 335.26 278.2 333.27 278.06C331.28 277.92 329 279.69 329 279.69Z" fill="white" stroke="#263238" stroke-linecap="round" stroke-linejoin="round"/>
<path d="M321.44 295.72C322.082 296.361 322.891 296.808 323.776 297.01C324.66 297.212 325.584 297.16 326.44 296.86" stroke="#263238" stroke-linecap="round" stroke-linejoin="round"/>
<path d="M327.22 289.37C326.89 290.14 326.37 290.65 326.06 290.52C325.75 290.39 325.77 289.65 326.11 288.88C326.45 288.11 326.96 287.6 327.26 287.73C327.56 287.86 327.55 288.6 327.22 289.37Z" fill="#263238"/>
<path d="M326.69 285.55C326.69 285.55 329.62 284.97 330.06 287.87" stroke="#263238" stroke-linecap="round" stroke-linejoin="round"/>
<path d="M327.71 307.87L332.42 307.69L329.19 311.63L327.71 307.87Z" fill="#263238" stroke="#263238" stroke-linecap="round" stroke-linejoin="round"/>
<path d="M338.46 302.99L336.42 302.38L335.21 304.28" stroke="#263238" stroke-linecap="round" stroke-linejoin="round"/>
<path d="M337.32 275.05C337.32 275.05 340.26 271.67 336.73 270.05C333.2 268.43 321.19 271.36 322.48 276.63C323.77 281.9 334.98 282.57 336.05 282.63C337.12 282.69 333.91 283.85 334.79 285.45C335.67 287.05 337.79 287.85 337.9 289.58C338.01 291.31 335.9 293.63 336.9 294.64C337.9 295.65 339.5 294.14 340.52 293.75C341.54 293.36 344.33 296.17 342.13 299.75C339.93 303.33 338.45 302.96 338.45 302.96C338.191 303.619 338.149 304.343 338.329 305.028C338.508 305.713 338.901 306.323 339.45 306.77C341.45 308.46 345.45 307.96 346.45 306.32C347.45 304.68 349.18 303.2 352.78 299.66C356.38 296.12 358.09 287.18 355.6 281.01C353.11 274.84 341.82 272.33 337.32 275.05Z" fill="#263238" stroke="#263238" stroke-linecap="round" stroke-linejoin="round"/>
<path d="M345.15 307.89L326.62 321.54L327.68 327.43L348.54 312.06L345.15 307.89Z" fill="white" stroke="#263238" stroke-linecap="round" stroke-linejoin="round"/>
<path d="M298.89 387.48L331.53 380.33L323.9 375.8L292.93 382.71L298.89 387.48Z" fill="white" stroke="#263238" stroke-linecap="round" stroke-linejoin="round"/>
<path d="M284.36 356.51L298.89 387.48L292.93 382.71L278.16 353.65L284.36 356.51Z" fill="#263238" stroke="#263238" stroke-linecap="round" stroke-linejoin="round"/>
<path d="M310.61 374.31L303.09 376.25L298.43 383C298.617 383.181 298.84 383.321 299.085 383.411C299.329 383.5 299.59 383.538 299.85 383.52C300.63 383.39 302.7 381.57 302.7 381.57L308.15 380.14C308.15 380.14 305.3 381.83 305.3 382.22C305.3 382.61 305.82 382.74 307.11 382.61C308.4 382.48 311.52 379.61 311.52 379.61L313.6 377.01L310.61 374.31Z" fill="white" stroke="#263238" stroke-linecap="round" stroke-linejoin="round"/>
<path d="M330.93 340.54L327.08 358.1L310.61 374.31L314.5 377.94L328.18 371.72L329.13 369.25L332.43 354.54L330.93 340.54Z" fill="white" stroke="#263238" stroke-linecap="round" stroke-linejoin="round"/>
<path d="M306.05 370.77C306.05 370.77 300.8 371.55 298.86 371.55C296.92 371.55 292.25 371.94 291.47 372.33C290.69 372.72 286.99 375.05 287.19 376.8C287.39 378.55 290.69 377 290.69 377C291.376 378.574 292.224 380.072 293.22 381.47C294.77 383.61 295.55 382.83 298.66 381.67C301.77 380.51 306.44 377 306.44 377L309.17 374.47L306.05 370.77Z" fill="white" stroke="#263238" stroke-linecap="round" stroke-linejoin="round"/>
<path d="M351.72 316.09C351.72 316.09 343.72 314.92 340.83 318.81C337.51 323.502 335.314 328.894 334.41 334.57C333.82 339.62 330.13 349.74 330.13 349.74L305.4 370.33L309.68 376.74C309.68 376.74 339.68 362.74 340.44 361.8C341.2 360.86 351.13 335.15 351.13 335.15" fill="white"/>
<path d="M351.72 316.09C351.72 316.09 343.72 314.92 340.83 318.81C337.51 323.502 335.314 328.894 334.41 334.57C333.82 339.62 330.13 349.74 330.13 349.74L305.4 370.33L309.68 376.74C309.68 376.74 339.68 362.74 340.44 361.8C341.2 360.86 351.13 335.15 351.13 335.15" stroke="#263238" stroke-linecap="round" stroke-linejoin="round"/>
<path d="M28.5 478.14H488.61" stroke="#263238" stroke-linecap="round" stroke-linejoin="round"/>
</svg>
